<svg xmlns="http://www.w3.org/2000/svg" xmlns:xlink="http://www.w3.org/1999/xlink" width="97.098" height="2216" viewBox="0 0 97.098 2216"><svg width="25.002" height="40.998" viewBox="0 0 25.002 40.998" id="Arrow_next"><path fill-rule="evenodd" clip-rule="evenodd" fill="#E6E6E6" d="M4.654 40.998l20.348-20.5L4.654 0 0 4.624 15.758 20.5 0 36.372l4.654 4.625z"/></svg><svg width="25.002" height="40.998" viewBox="0 0 25.002 40.998" id="Arrow_prev" y="41"><path fill-rule="evenodd" clip-rule="evenodd" fill="#E6E6E6" d="M25.002 36.373L9.244 20.5 25.002 4.623 20.35 0 0 20.5 20.35 41 25 36.372z"/></svg><svg width="68.357" height="99.795" viewBox="402.312 456.427 68.357 99.795" id="Astr_1" y="82"><path fill="#FFF" d="M417.523 530.523l11.294 11.87-5.302 7.145-.346-3.11-20.86 9.794 13.6-19.59-8.528-.807 10.14-5.302zm48.285-13.252c-1.958 4.15-4.955 8.184-8.412 11.64-2.766 8.183-7.375 21.78-7.375 21.78l-.344 1.153-11.293-11.87c-1.844.462-4.38 1.152-7.03 1.498h-.345l-11.985-12.444.115-.346c.46-2.536 1.268-5.07 1.844-6.915l-11.407-11.87 1.152-.345 22.126-6.453h.116c3.57-3.227 7.72-6.108 11.983-7.837 5.3-2.305 12.906-4.494 18.438-3.803 1.96.23 3.574.922 4.84 1.844.117.117.463.348.463.348l.115.115c.115.115.23.346.346.46 4.38 6.34-1.96 20.284-3.342 23.05zm-44.712 2.653c1.96-5.416 5.187-10.37 9.335-14.75-6.683 1.96-15.21 4.494-18.32 5.416l8.987 9.333zm34.11 11.178c-4.494 3.92-9.68 6.915-15.096 8.645l8.988 9.334c1.038-2.998 3.92-11.41 6.108-17.98zm12.446-36.184c-.115-.115-.23-.23-.23-.346l-.346-.347c-1.038-.807-2.42-1.383-4.15-1.613-5.185-.69-12.444 1.498-17.63 3.688-4.148 1.844-8.643 4.84-12.1 8.182-4.955 4.725-8.644 10.486-10.603 16.71-.576 1.728-1.383 4.493-1.96 7.26l10.95 11.408c2.765-.46 5.53-1.153 7.26-1.614 6.222-1.73 12.214-5.186 17.17-9.91 3.57-3.342 6.683-7.72 8.642-11.754 5.533-11.408 5.072-18.783 2.997-21.665zm-1.96 1.845c2.882 3.804-.807 11.87-1.612 13.483-1.153 2.42-2.997 4.955-5.187 7.03-2.88 2.765-6.453 4.84-10.14 5.876-1.038.345-2.767.69-4.495.92l-.46.116-7.03-7.375.115-.46c.346-1.73.807-3.342 1.152-4.38 1.152-3.687 3.342-7.144 6.338-9.91 2.074-2.073 4.61-3.687 7.145-4.84 1.498-.69 6.568-2.65 10.602-2.19 1.152.116 2.19.577 2.996 1.153.115.115.346.23.346.23.115.117.23.233.23.348zm-1.38 1.038l-.116-.116-.115-.114c-.46-.46-1.267-.69-2.073-.806-2.766-.346-6.8.806-9.68 2.074-2.305 1.037-4.725 2.65-6.684 4.494-2.766 2.65-4.725 5.762-5.877 9.22-.346.92-.69 2.304-1.037 3.802l5.876 6.107c1.498-.23 2.88-.577 3.803-.923 3.456-.922 6.683-2.88 9.45-5.53 1.957-1.845 3.686-4.265 4.723-6.454 1.498-3.226 3.687-9.218 1.73-11.753zm-33.997-20.974c2.766.69 5.416 1.037 7.49 1.037 1.383 0 2.305-.114 2.88-.345.462-5.07-2.765-9.91-7.95-11.293-5.07-1.267-10.257 1.384-12.33 5.993 1.036 1.153 4.263 3.227 9.91 4.61zm-10.256 2.766c1.035 3.34 3.8 6.222 7.49 7.144 3.687.922 7.374-.23 9.91-2.65-2.65-.23-5.647-.69-8.76-1.498-2.995-.692-5.992-1.73-8.642-2.997zm-.348-8.413c-2.996.115-5.07.807-5.416 2.074-.69 2.537 5.877 6.455 14.636 8.645 8.758 2.19 16.363 1.96 17.055-.69.346-1.27-1.152-2.882-3.688-4.38v.23c-.46 1.844-5.878 1.96-12.216.346-6.224-1.612-10.948-4.38-10.487-6.106l.115-.116zm35.724 9.334l2.074-1.035 2.075 1.037-.346-2.304 1.61-1.613-2.304-.346-1.037-2.075-1.038 2.074-2.305.345 1.613 1.613-.343 2.305zm-38.26 15.328l-.806-1.498-.69 1.497-1.73.23 1.27 1.152-.23 1.612 1.497-.807 1.498.807-.23-1.614 1.268-1.153-1.845-.23zm-6.222-34.916l1.498-.806 1.498.807-.23-1.612 1.153-1.15-1.73-.23-.69-1.5-.807 1.5-1.613.23 1.152 1.15-.23 1.614z"/></svg><svg width="68.357" height="99.795" viewBox="402.312 456.427 68.357 99.795" id="Astr_1_hover" y="182"><path fill="#FECA2E" d="M417.523 530.523l11.294 11.87-5.302 7.145-.346-3.11-20.86 9.794 13.6-19.59-8.528-.807 10.14-5.302zm48.285-13.252c-1.958 4.15-4.955 8.184-8.412 11.64-2.766 8.183-7.375 21.78-7.375 21.78l-.344 1.153-11.293-11.87c-1.844.462-4.38 1.152-7.03 1.498h-.345l-11.985-12.444.115-.346c.46-2.536 1.268-5.07 1.844-6.915l-11.407-11.87 1.152-.345 22.126-6.453h.116c3.57-3.227 7.72-6.108 11.983-7.837 5.3-2.305 12.906-4.494 18.438-3.803 1.96.23 3.574.922 4.84 1.844.117.117.463.348.463.348l.115.115c.115.115.23.346.346.46 4.38 6.34-1.96 20.284-3.342 23.05zm-44.712 2.653c1.96-5.416 5.187-10.37 9.335-14.75-6.683 1.96-15.21 4.494-18.32 5.416l8.987 9.333zm34.11 11.178c-4.494 3.92-9.68 6.915-15.096 8.645l8.988 9.334c1.038-2.998 3.92-11.41 6.108-17.98zm12.446-36.184c-.115-.115-.23-.23-.23-.346l-.346-.347c-1.038-.807-2.42-1.383-4.15-1.613-5.185-.69-12.444 1.498-17.63 3.688-4.148 1.844-8.643 4.84-12.1 8.182-4.955 4.725-8.644 10.486-10.603 16.71-.576 1.728-1.383 4.493-1.96 7.26l10.95 11.408c2.765-.46 5.53-1.153 7.26-1.614 6.222-1.73 12.214-5.186 17.17-9.91 3.57-3.342 6.683-7.72 8.642-11.754 5.533-11.408 5.072-18.783 2.997-21.665zm-1.96 1.845c2.882 3.804-.807 11.87-1.612 13.483-1.153 2.42-2.997 4.955-5.187 7.03-2.88 2.765-6.453 4.84-10.14 5.876-1.038.345-2.767.69-4.495.92l-.46.116-7.03-7.375.115-.46c.346-1.73.807-3.342 1.152-4.38 1.152-3.687 3.342-7.144 6.338-9.91 2.074-2.073 4.61-3.687 7.145-4.84 1.498-.69 6.568-2.65 10.602-2.19 1.152.116 2.19.577 2.996 1.153.115.115.346.23.346.23.115.117.23.233.23.348zm-1.38 1.038l-.116-.116-.115-.114c-.46-.46-1.267-.69-2.073-.806-2.766-.346-6.8.806-9.68 2.074-2.305 1.037-4.725 2.65-6.684 4.494-2.766 2.65-4.725 5.762-5.877 9.22-.346.92-.69 2.304-1.037 3.802l5.876 6.107c1.498-.23 2.88-.577 3.803-.923 3.456-.922 6.683-2.88 9.45-5.53 1.957-1.845 3.686-4.265 4.723-6.454 1.498-3.226 3.687-9.218 1.73-11.753zm-33.997-20.974c2.766.69 5.416 1.037 7.49 1.037 1.383 0 2.305-.114 2.88-.345.462-5.07-2.765-9.91-7.95-11.293-5.07-1.267-10.257 1.384-12.33 5.993 1.036 1.153 4.263 3.227 9.91 4.61zm-10.256 2.766c1.035 3.34 3.8 6.222 7.49 7.144 3.687.922 7.374-.23 9.91-2.65-2.65-.23-5.647-.69-8.76-1.498-2.995-.692-5.992-1.73-8.642-2.997zm-.348-8.413c-2.996.115-5.07.807-5.416 2.074-.69 2.537 5.877 6.455 14.636 8.645 8.758 2.19 16.363 1.96 17.055-.69.346-1.27-1.152-2.882-3.688-4.38v.23c-.46 1.844-5.878 1.96-12.216.346-6.224-1.612-10.948-4.38-10.487-6.106l.115-.116zm35.724 9.334l2.074-1.035 2.075 1.037-.346-2.304 1.61-1.613-2.304-.346-1.037-2.075-1.038 2.074-2.305.345 1.613 1.613-.343 2.305zm-38.26 15.328l-.806-1.498-.69 1.497-1.73.23 1.27 1.152-.23 1.612 1.497-.807 1.498.807-.23-1.614 1.268-1.153-1.845-.23zm-6.222-34.916l1.498-.806 1.498.807-.23-1.612 1.153-1.15-1.73-.23-.69-1.5-.807 1.5-1.613.23 1.152 1.15-.23 1.614z"/></svg><svg width="60.8" height="100.194" viewBox="157.165 391.145 60.8 100.194" id="Astr_2" y="282"><path fill="#FFF" d="M213.562 423.024h-7.287v-1.214h7.287v1.214zm0 1.67h-7.287v1.215h7.287v-1.217zm0 2.733h-7.287v1.215h7.287v-1.215zm-46.3-.304c0-.455-.457-.91-.912-.91s-.91.455-.91.91v3.34c0 .456.455.91.91.91.456 0 .91-.454.91-.91v-3.34zm4.857 5.617c.302 0 .454-.15.605-.304l2.43-2.43c.303-.303.303-.91 0-1.365-.305-.302-.912-.302-1.367 0l-2.43 2.43c-.304.305-.304.91 0 1.367.303.304.455.304.76.304zm-14.728-2.58l2.43 2.43c.15.15.455.303.606.303s.455-.152.606-.304c.303-.306.303-.913 0-1.368l-2.277-2.43c-.305-.303-.912-.303-1.367 0-.304.304-.304.91 0 1.367zm11.84 17.002h6.073v-10.626c0-2.885.76-5.466 2.277-7.895-.304-.15-.456-.302-.76-.453l-.303-.152c-3.493-2.277-6.225-5.313-7.743-8.957-.152-.303-.304-.76-.456-1.062v-.15c-.15-.305-.15-.608-.303-1.063 0-.152 0-.152-.15-.304-.153-.305-.153-.608-.305-.91 0-.153 0-.306-.152-.306 0-.304-.15-.607-.15-.91v-.456c0-.304 0-.607-.153-.91v-4.403c0-.15 0-.455.152-.607v-.15c.302-1.367.605-2.733 1.212-3.948v-.152c.152-.152.152-.456.304-.607 0-.15 0-.15.152-.302.15-.152.15-.304.303-.455 0-.152.15-.304.15-.456 0-.15.154-.304.154-.304.152-.15.304-.455.304-.607v-.15c.456-.76 1.063-1.52 1.67-2.278l.304-.304c3.947-4.402 9.564-7.135 15.788-7.135 11.386 0 20.495 8.956 20.495 20.04 0 1.212-.152 2.427-.304 3.49h7.288c1.52 0 2.885 1.214 2.885 2.884v40.23c0 1.517-1.214 2.884-2.885 2.884h-10.323c-.304 0-.607 0-.91-.152v30.817H166.35v-5.465c.153-4.858 4.1-8.805 8.958-8.805h.152v-18.977h-7.894v-1.822c-4.25-.606-7.287-3.946-7.287-8.197v-.91h8.953zm4.86-47.06h-1.216c-.303.304-.455.607-.76.91-.15.152-.303.456-.455.607 0 0 0 .15-.15.15-.153.15-.153.304-.305.607 0 0 0 .15-.152.15-.15.152-.15.305-.15.456l-.457.91c-.152.153-.152.456-.304.608-.152.15-.152.456-.304.608-.305.91-.608 1.82-.76 2.73v.152c0 .152 0 .304-.152.607v5.01c0 .15 0 .454.152.606v.455c0 .153.152.457.152.608 0 .152 0 .304.15.455 0 .153.153.457.153.608.152.304.152.607.304.91 0 .152 0 .152.15.305.153.15.153.455.305.607 0 0 0 .15.152.15.152.305.152.457.304.76 1.063 2.126 2.43 3.947 4.25 5.466l.153.15c.153.153.305.305.608.457.152 0 .152.15.303.15l.457.456c.15.152.303.152.455.304l.304.304c7.286-1.367 12.903-7.895 12.903-15.638 0-3.795-1.064-5.77-1.823-6.527l-.15-.15c-.912-.912-4.555-3.645-13.512-3.645-.302-.298-.302-.298-.606-.298zm13.51-7.136c-5.01 0-9.564 1.974-12.904 5.162 9.26 0 13.358 2.884 14.725 4.25l.152.152c.304.304.304.455.304.455 1.062 1.215 2.277 3.644 2.277 7.742 0 7.895-5.01 14.726-12.296 16.852 2.43 1.06 5.163 1.67 7.895 1.67 10.323 0 18.673-8.2 18.673-18.067-.002-9.87-8.504-18.218-18.827-18.218zm14.422 32.64c-.456.454-1.063.91-1.52 1.365.608.76 1.064 1.52 1.52 2.43v-3.794zm2.733 33.094h10.323c.457 0 .912-.456.912-.91v-40.23c0-.455-.456-.91-.91-.91h-7.743c-.76 2.58-1.975 4.857-3.494 6.83v34.31c0 .454.455.91.91.91zm-2.733-.76v-21.86c-.152-3.036-1.215-5.77-3.037-8.046-3.188 2.126-7.135 3.188-11.234 3.188-3.036 0-5.77-.607-8.35-1.822-1.366 2.126-2.125 4.555-2.125 6.983v10.627h5.16v-8.046c0-3.492 2.885-6.225 6.225-6.225s6.224 2.883 6.224 6.223v12.6c0 3.492-2.885 6.225-6.225 6.225h-11.538v19.127c.456.152.91.152 1.214.455 1.063-.455 2.126-.606 3.19-.606h.15v-15.03h1.975v15.334c3.644.91 6.376 4.1 6.68 8.046h11.385V457.94h.305zm-27.478 31.578h27.476v-2.277h-27.477v2.28zm3.492-4.25h10.778c-.303-2.886-2.277-5.163-4.857-6.073-.305-.152-.608-.152-1.064-.304-.304 0-.607-.15-1.062-.15h-1.062c-.76.15-1.52.304-2.278.76-2.125 1.06-3.644 3.188-3.947 5.617h3.492v.15zm-9.565 4.25h3.947v-2.277h-3.947v2.28zm6.832-10.627c-3.644 0-6.68 2.887-7.135 6.53h4.554c.304-2.58 1.52-4.858 3.492-6.377-.304-.15-.608-.15-.91-.15zm-6.073-22.77h19.432c2.43 0 4.402-1.974 4.402-4.402v-12.6c0-2.43-1.974-4.403-4.402-4.403-2.43 0-4.403 1.974-4.403 4.402v9.868h-15.03v7.135zm-1.82-1.67v-5.313H162.1c.455 2.58 2.58 4.706 5.313 5.313zm2.73-19.887l2.126 3.188c.152.153.152.305 0 .457l-5.617 7.286c-.15.304-.303.304-.303.304-.152 0-.304 0-.304-.15l-5.77-7.288v-.608l2.126-3.187c.15-.152.15-.152.303-.152h6.983c.15 0 .303 0 .455.152zm.457 3.947h-2.43l-1.365 4.857 3.795-4.858zm-4.25 5.312l1.52-5.313h-3.04l1.52 5.31zm-.608-.606l-1.366-4.858h-2.43l3.796 4.858zm-3.796-5.162h2.277l-.91-1.974-1.367 1.974zm1.67-2.278l.91 1.974 1.215-1.974h-2.124zm1.366 2.278h2.733l-1.367-2.125-1.367 2.123zm1.822-2.278l1.214 1.974.91-1.974h-2.125zm1.518 2.278h2.277l-1.367-1.974-.91 1.974z"/></svg><svg width="60.8" height="100.194" viewBox="157.165 391.145 60.8 100.194" id="Astr_2_hover" y="383"><path fill="#FECA2E" d="M213.562 423.024h-7.287v-1.214h7.287v1.214zm0 1.67h-7.287v1.215h7.287v-1.217zm0 2.733h-7.287v1.215h7.287v-1.215zm-46.3-.304c0-.455-.457-.91-.912-.91s-.91.455-.91.91v3.34c0 .456.455.91.91.91.456 0 .91-.454.91-.91v-3.34zm4.857 5.617c.302 0 .454-.15.605-.304l2.43-2.43c.303-.303.303-.91 0-1.365-.305-.302-.912-.302-1.367 0l-2.43 2.43c-.304.305-.304.91 0 1.367.303.304.455.304.76.304zm-14.728-2.58l2.43 2.43c.15.15.455.303.606.303s.455-.152.606-.304c.303-.306.303-.913 0-1.368l-2.277-2.43c-.305-.303-.912-.303-1.367 0-.304.304-.304.91 0 1.367zm11.84 17.002h6.073v-10.626c0-2.885.76-5.466 2.277-7.895-.304-.15-.456-.302-.76-.453l-.303-.152c-3.493-2.277-6.225-5.313-7.743-8.957-.152-.303-.304-.76-.456-1.062v-.15c-.15-.305-.15-.608-.303-1.063 0-.152 0-.152-.15-.304-.153-.305-.153-.608-.305-.91 0-.153 0-.306-.152-.306 0-.304-.15-.607-.15-.91v-.456c0-.304 0-.607-.153-.91v-4.403c0-.15 0-.455.152-.607v-.15c.302-1.367.605-2.733 1.212-3.948v-.152c.152-.152.152-.456.304-.607 0-.15 0-.15.152-.302.15-.152.15-.304.303-.455 0-.152.15-.304.15-.456 0-.15.154-.304.154-.304.152-.15.304-.455.304-.607v-.15c.456-.76 1.063-1.52 1.67-2.278l.304-.304c3.947-4.402 9.564-7.135 15.788-7.135 11.386 0 20.495 8.956 20.495 20.04 0 1.212-.152 2.427-.304 3.49h7.288c1.52 0 2.885 1.214 2.885 2.884v40.23c0 1.517-1.214 2.884-2.885 2.884h-10.323c-.304 0-.607 0-.91-.152v30.817H166.35v-5.465c.153-4.858 4.1-8.805 8.958-8.805h.152v-18.977h-7.894v-1.822c-4.25-.606-7.287-3.946-7.287-8.197v-.91h8.953zm4.86-47.06h-1.216c-.303.304-.455.607-.76.91-.15.152-.303.456-.455.607 0 0 0 .15-.15.15-.153.15-.153.304-.305.607 0 0 0 .15-.152.15-.15.152-.15.305-.15.456l-.457.91c-.152.153-.152.456-.304.608-.152.15-.152.456-.304.608-.305.91-.608 1.82-.76 2.73v.152c0 .152 0 .304-.152.607v5.01c0 .15 0 .454.152.606v.455c0 .153.152.457.152.608 0 .152 0 .304.15.455 0 .153.153.457.153.608.152.304.152.607.304.91 0 .152 0 .152.15.305.153.15.153.455.305.607 0 0 0 .15.152.15.152.305.152.457.304.76 1.063 2.126 2.43 3.947 4.25 5.466l.153.15c.153.153.305.305.608.457.152 0 .152.15.303.15l.457.456c.15.152.303.152.455.304l.304.304c7.286-1.367 12.903-7.895 12.903-15.638 0-3.795-1.064-5.77-1.823-6.527l-.15-.15c-.912-.912-4.555-3.645-13.512-3.645-.302-.298-.302-.298-.606-.298zm13.51-7.136c-5.01 0-9.564 1.974-12.904 5.162 9.26 0 13.358 2.884 14.725 4.25l.152.152c.304.304.304.455.304.455 1.062 1.215 2.277 3.644 2.277 7.742 0 7.895-5.01 14.726-12.296 16.852 2.43 1.06 5.163 1.67 7.895 1.67 10.323 0 18.673-8.2 18.673-18.067-.002-9.87-8.504-18.218-18.827-18.218zm14.422 32.64c-.456.454-1.063.91-1.52 1.365.608.76 1.064 1.52 1.52 2.43v-3.794zm2.733 33.094h10.323c.457 0 .912-.456.912-.91v-40.23c0-.455-.456-.91-.91-.91h-7.743c-.76 2.58-1.975 4.857-3.494 6.83v34.31c0 .454.455.91.91.91zm-2.733-.76v-21.86c-.152-3.036-1.215-5.77-3.037-8.046-3.188 2.126-7.135 3.188-11.234 3.188-3.036 0-5.77-.607-8.35-1.822-1.366 2.126-2.125 4.555-2.125 6.983v10.627h5.16v-8.046c0-3.492 2.885-6.225 6.225-6.225s6.224 2.883 6.224 6.223v12.6c0 3.492-2.885 6.225-6.225 6.225h-11.538v19.127c.456.152.91.152 1.214.455 1.063-.455 2.126-.606 3.19-.606h.15v-15.03h1.975v15.334c3.644.91 6.376 4.1 6.68 8.046h11.385V457.94h.305zm-27.478 31.578h27.476v-2.277h-27.477v2.28zm3.492-4.25h10.778c-.303-2.886-2.277-5.163-4.857-6.073-.305-.152-.608-.152-1.064-.304-.304 0-.607-.15-1.062-.15h-1.062c-.76.15-1.52.304-2.278.76-2.125 1.06-3.644 3.188-3.947 5.617h3.492v.15zm-9.565 4.25h3.947v-2.277h-3.947v2.28zm6.832-10.627c-3.644 0-6.68 2.887-7.135 6.53h4.554c.304-2.58 1.52-4.858 3.492-6.377-.304-.15-.608-.15-.91-.15zm-6.073-22.77h19.432c2.43 0 4.402-1.974 4.402-4.402v-12.6c0-2.43-1.974-4.403-4.402-4.403-2.43 0-4.403 1.974-4.403 4.402v9.868h-15.03v7.135zm-1.82-1.67v-5.313H162.1c.455 2.58 2.58 4.706 5.313 5.313zm2.73-19.887l2.126 3.188c.152.153.152.305 0 .457l-5.617 7.286c-.15.304-.303.304-.303.304-.152 0-.304 0-.304-.15l-5.77-7.288v-.608l2.126-3.187c.15-.152.15-.152.303-.152h6.983c.15 0 .303 0 .455.152zm.457 3.947h-2.43l-1.365 4.857 3.795-4.858zm-4.25 5.312l1.52-5.313h-3.04l1.52 5.31zm-.608-.606l-1.366-4.858h-2.43l3.796 4.858zm-3.796-5.162h2.277l-.91-1.974-1.367 1.974zm1.67-2.278l.91 1.974 1.215-1.974h-2.124zm1.366 2.278h2.733l-1.367-2.125-1.367 2.123zm1.822-2.278l1.214 1.974.91-1.974h-2.125zm1.518 2.278h2.277l-1.367-1.974-.91 1.974z"/></svg><svg width="97.098" height="100.288" viewBox="81.89 391.051 97.098 100.288" id="Astr_3" y="484"><path fill="#FFF" d="M167.287 420.073h7.294v1.216h-7.292v-1.218zm0 4.103h7.294v-1.216h-7.292v1.216zm0 2.887h7.294v-1.216h-7.292v1.216zm11.7-9.573v40.268c0 1.52-1.216 2.887-2.887 2.887h-10.333c-.304 0-.608 0-.912-.152v30.847h-37.533v-5.47c.152-4.863 4.103-8.813 8.965-8.813h.152v-23.4l-14.286-14.284 1.215-1.216c-2.43-3.343-2.28-7.9.76-10.788l.607-.61 6.382 6.383 5.166 5.166v-1.824c0-2.888.76-5.47 2.28-7.9-.305-.153-.457-.306-.76-.457l-.305-.153-.15-.15c-.153-.153-.305-.153-.457-.306-.608-.454-1.216-.91-1.823-1.52l-.15-.15c-2.128-1.976-3.952-4.255-5.015-6.84v-.15c-.152-.304-.152-.456-.304-.76 0-.15-.15-.15-.15-.304-.152-.152-.152-.456-.304-.607 0-.153-.152-.306-.152-.457-.152-.304-.152-.608-.304-.912 0-.303-.153-.455-.153-.76 0-.15 0-.303-.152-.454 0-.305-.152-.456-.152-.76V408.53c0-.153 0-.457.152-.61v-.15c.304-1.368.608-2.735 1.216-3.95v-.153c.154-.15.154-.455.306-.607 0-.153.152-.153.152-.305.152-.152.152-.305.304-.456 0-.154.153-.306.153-.458 0-.15.152-.304.152-.304.152-.153.304-.457.456-.608v-.152c.457-.76 1.065-1.52 1.673-2.28l.304-.303c3.8-4.407 9.42-7.142 15.65-7.142 11.397 0 20.514 8.965 20.514 20.058 0 1.216-.15 2.43-.303 3.496h7.143c1.67-.005 2.887 1.363 2.887 2.882zm-27.96-6.838c0-3.8-1.062-5.774-1.822-6.534 0 0-.152-.152-.152-.304l-.152-.152c-.91-.91-4.557-3.646-13.522-3.646h-1.52c-.304.304-.456.607-.76.91-.152.153-.304.457-.456.61v.15c-.15.152-.303.456-.303.608 0 0 0 .15-.153.15-.152.153-.152.306-.304.457-.15.306-.303.61-.455.76v.154c-.152.15-.152.456-.304.607v.153c-.15.15-.15.456-.303.607-.303.91-.607 1.822-.76 2.734v.152c0 .15 0 .304-.15.607v5.014c0 .15 0 .456.15.607v.456s.153.457.153.608c0 .152 0 .305.15.456 0 .304.153.456.153.76.152.304.152.456.304.76 0 .152 0 .152.152.304.15.152.15.456.303.608 0 0 0 .15.152.15.152.306.152.457.304.76 1.064 2.13 2.43 3.952 4.103 5.472 0 0 .152 0 .152.152.152.15.304.304.456.455.153.152.153.152.305.152.152.152.304.304.456.304.153.154.305.306.457.306s.152.152.304.152c7.6-1.363 13.07-7.897 13.07-15.495zm-26.287 26.136l3.8-3.8-3.648-3.645c-1.823 2.127-1.823 5.166-.152 7.445zm13.676 16.41c.76.76 1.976 1.368 3.19 1.368 1.217 0 2.28-.456 3.192-1.367l8.965-8.968c1.67-1.67 1.67-4.56 0-6.23-.76-.76-1.975-1.367-3.19-1.367s-2.28.456-3.192 1.368l-6.99 6.99-10.635-10.638-5.015 5.015 13.676 13.83zm-5.014 33.886h-3.95v2.28h3.95v-2.28zm.304-1.823c.304-2.58 1.52-4.86 3.495-6.38h-.91c-3.647 0-6.686 2.887-6.99 6.534h4.407v-.152zm1.823 0h14.13c-.304-2.885-2.28-5.164-4.863-6.076-.304-.15-.607-.15-1.063-.304-.304 0-.608-.153-1.063-.153h-1.063c-.76.152-1.52.305-2.28.76-1.975 1.215-3.495 3.343-3.8 5.774zm27.5 1.825h-27.35v2.28h27.352v-2.28zm0-29.175v-22.186c-.15-2.888-1.215-5.622-3.04-7.75-3.19 2.128-7.14 3.343-11.242 3.343-3.04 0-5.927-.607-8.358-1.823-1.368 2.128-1.976 4.56-1.976 6.99v3.646l2.28 2.28 5.62-5.622c1.217-1.216 2.736-1.823 4.408-1.823s3.19.607 4.407 1.823 1.823 2.735 1.823 4.406c0 1.672-.607 3.19-1.823 4.407l-8.964 8.967c-1.215 1.216-2.735 1.823-4.407 1.823-1.217 0-2.433-.305-3.345-1.064v21.88c.456.153.912.153 1.215.457 1.065-.456 2.128-.607 3.192-.607h.152v-15.044h1.976v15.348c3.646.912 6.382 4.103 6.686 8.054h11.396V457.91zm-.15-28.72v-3.646c-.457.455-1.065.91-1.52 1.367.61.61 1.063 1.37 1.52 2.28zm4.406-18.082c0-10.03-8.357-18.083-18.69-18.083-5.014 0-9.573 1.976-12.916 5.167 9.27 0 13.373 2.887 14.588 4.254l.152.152c.152.152.304.304.304.456.912 1.216 2.127 3.495 2.127 7.75 0 7.9-5.012 14.587-12.306 16.866 2.43 1.063 5.167 1.672 7.9 1.672 10.487 0 18.844-8.205 18.844-18.234zm9.725 6.382c0-.456-.455-.912-.91-.912h-7.75c-.76 2.583-1.977 4.862-3.496 6.838v34.342c0 .455.456.91.912.91H176.1c.456 0 .912-.455.912-.91V417.49zm-55.765-1.368v8.966c0 .456-.304.91-.76.91-9.42.306-16.41 1.977-22.033 5.168-.152 0-.304.15-.456.15s-.304 0-.456-.15c-.303-.152-.455-.456-.455-.76v-19.603c0-.304.152-.607.456-.76.154-.15.306-.15.458-.15s.304 0 .456.15c5.774 3.19 12.764 4.863 22.033 5.167.304 0 .76.457.76.912zm-1.976 1.065c-8.358-.456-14.893-1.976-20.363-4.56v16.26c5.47-2.735 12.004-4.103 20.362-4.56v-7.14zm3.646 7.9v-8.965c0-.455.456-.91.912-.91 2.886 0 5.317 2.43 5.317 5.317 0 2.885-2.43 5.316-5.318 5.316-.61.152-.913-.303-.913-.76zm1.823-1.215c1.367-.456 2.43-1.672 2.43-3.19s-1.063-2.888-2.43-3.19v6.38zm-35.557 5.926c-3.19-1.975-5.167-5.47-5.167-9.117 0-3.644 1.976-7.29 5.167-9.115.456-.304.608-.91.304-1.367-.304-.456-.912-.607-1.368-.304-3.8 2.28-6.23 6.382-6.23 10.788 0 4.408 2.43 8.51 6.23 10.79.15.15.303.15.455.15.304 0 .608-.15.76-.454.456-.608.303-1.063-.152-1.368zm4.71-14.74c.456-.303.608-.91.304-1.366-.304-.456-.912-.608-1.368-.304-2.584 1.52-4.104 4.254-4.104 7.142 0 2.887 1.52 5.622 4.103 7.142.15.152.303.152.455.152.304 0 .608-.152.76-.456.304-.456.152-1.063-.304-1.368-1.975-1.215-3.19-3.19-3.19-5.47.15-2.13 1.367-4.256 3.343-5.47z"/></svg><svg width="97.098" height="100.288" viewBox="81.89 391.051 97.098 100.288" id="Astr_3_hover" y="585"><path fill="#FECA2E" d="M167.287 420.073h7.294v1.216h-7.292v-1.218zm0 4.103h7.294v-1.216h-7.292v1.216zm0 2.887h7.294v-1.216h-7.292v1.216zm11.7-9.573v40.268c0 1.52-1.216 2.887-2.887 2.887h-10.333c-.304 0-.608 0-.912-.152v30.847h-37.533v-5.47c.152-4.863 4.103-8.813 8.965-8.813h.152v-23.4l-14.286-14.284 1.215-1.216c-2.43-3.343-2.28-7.9.76-10.788l.607-.61 6.382 6.383 5.166 5.166v-1.824c0-2.888.76-5.47 2.28-7.9-.305-.153-.457-.306-.76-.457l-.305-.153-.15-.15c-.153-.153-.305-.153-.457-.306-.608-.454-1.216-.91-1.823-1.52l-.15-.15c-2.128-1.976-3.952-4.255-5.015-6.84v-.15c-.152-.304-.152-.456-.304-.76 0-.15-.15-.15-.15-.304-.152-.152-.152-.456-.304-.607 0-.153-.152-.306-.152-.457-.152-.304-.152-.608-.304-.912 0-.303-.153-.455-.153-.76 0-.15 0-.303-.152-.454 0-.305-.152-.456-.152-.76V408.53c0-.153 0-.457.152-.61v-.15c.304-1.368.608-2.735 1.216-3.95v-.153c.154-.15.154-.455.306-.607 0-.153.152-.153.152-.305.152-.152.152-.305.304-.456 0-.154.153-.306.153-.458 0-.15.152-.304.152-.304.152-.153.304-.457.456-.608v-.152c.457-.76 1.065-1.52 1.673-2.28l.304-.303c3.8-4.407 9.42-7.142 15.65-7.142 11.397 0 20.514 8.965 20.514 20.058 0 1.216-.15 2.43-.303 3.496h7.143c1.67-.005 2.887 1.363 2.887 2.882zm-27.96-6.838c0-3.8-1.062-5.774-1.822-6.534 0 0-.152-.152-.152-.304l-.152-.152c-.91-.91-4.557-3.646-13.522-3.646h-1.52c-.304.304-.456.607-.76.91-.152.153-.304.457-.456.61v.15c-.15.152-.303.456-.303.608 0 0 0 .15-.153.15-.152.153-.152.306-.304.457-.15.306-.303.61-.455.76v.154c-.152.15-.152.456-.304.607v.153c-.15.15-.15.456-.303.607-.303.91-.607 1.822-.76 2.734v.152c0 .15 0 .304-.15.607v5.014c0 .15 0 .456.15.607v.456s.153.457.153.608c0 .152 0 .305.15.456 0 .304.153.456.153.76.152.304.152.456.304.76 0 .152 0 .152.152.304.15.152.15.456.303.608 0 0 0 .15.152.15.152.306.152.457.304.76 1.064 2.13 2.43 3.952 4.103 5.472 0 0 .152 0 .152.152.152.15.304.304.456.455.153.152.153.152.305.152.152.152.304.304.456.304.153.154.305.306.457.306s.152.152.304.152c7.6-1.363 13.07-7.897 13.07-15.495zm-26.287 26.136l3.8-3.8-3.648-3.645c-1.823 2.127-1.823 5.166-.152 7.445zm13.676 16.41c.76.76 1.976 1.368 3.19 1.368 1.217 0 2.28-.456 3.192-1.367l8.965-8.968c1.67-1.67 1.67-4.56 0-6.23-.76-.76-1.975-1.367-3.19-1.367s-2.28.456-3.192 1.368l-6.99 6.99-10.635-10.638-5.015 5.015 13.676 13.83zm-5.014 33.886h-3.95v2.28h3.95v-2.28zm.304-1.823c.304-2.58 1.52-4.86 3.495-6.38h-.91c-3.647 0-6.686 2.887-6.99 6.534h4.407v-.152zm1.823 0h14.13c-.304-2.885-2.28-5.164-4.863-6.076-.304-.15-.607-.15-1.063-.304-.304 0-.608-.153-1.063-.153h-1.063c-.76.152-1.52.305-2.28.76-1.975 1.215-3.495 3.343-3.8 5.774zm27.5 1.825h-27.35v2.28h27.352v-2.28zm0-29.175v-22.186c-.15-2.888-1.215-5.622-3.04-7.75-3.19 2.128-7.14 3.343-11.242 3.343-3.04 0-5.927-.607-8.358-1.823-1.368 2.128-1.976 4.56-1.976 6.99v3.646l2.28 2.28 5.62-5.622c1.217-1.216 2.736-1.823 4.408-1.823s3.19.607 4.407 1.823 1.823 2.735 1.823 4.406c0 1.672-.607 3.19-1.823 4.407l-8.964 8.967c-1.215 1.216-2.735 1.823-4.407 1.823-1.217 0-2.433-.305-3.345-1.064v21.88c.456.153.912.153 1.215.457 1.065-.456 2.128-.607 3.192-.607h.152v-15.044h1.976v15.348c3.646.912 6.382 4.103 6.686 8.054h11.396V457.91zm-.15-28.72v-3.646c-.457.455-1.065.91-1.52 1.367.61.61 1.063 1.37 1.52 2.28zm4.406-18.082c0-10.03-8.357-18.083-18.69-18.083-5.014 0-9.573 1.976-12.916 5.167 9.27 0 13.373 2.887 14.588 4.254l.152.152c.152.152.304.304.304.456.912 1.216 2.127 3.495 2.127 7.75 0 7.9-5.012 14.587-12.306 16.866 2.43 1.063 5.167 1.672 7.9 1.672 10.487 0 18.844-8.205 18.844-18.234zm9.725 6.382c0-.456-.455-.912-.91-.912h-7.75c-.76 2.583-1.977 4.862-3.496 6.838v34.342c0 .455.456.91.912.91H176.1c.456 0 .912-.455.912-.91V417.49zm-55.765-1.368v8.966c0 .456-.304.91-.76.91-9.42.306-16.41 1.977-22.033 5.168-.152 0-.304.15-.456.15s-.304 0-.456-.15c-.303-.152-.455-.456-.455-.76v-19.603c0-.304.152-.607.456-.76.154-.15.306-.15.458-.15s.304 0 .456.15c5.774 3.19 12.764 4.863 22.033 5.167.304 0 .76.457.76.912zm-1.976 1.065c-8.358-.456-14.893-1.976-20.363-4.56v16.26c5.47-2.735 12.004-4.103 20.362-4.56v-7.14zm3.646 7.9v-8.965c0-.455.456-.91.912-.91 2.886 0 5.317 2.43 5.317 5.317 0 2.885-2.43 5.316-5.318 5.316-.61.152-.913-.303-.913-.76zm1.823-1.215c1.367-.456 2.43-1.672 2.43-3.19s-1.063-2.888-2.43-3.19v6.38zm-35.557 5.926c-3.19-1.975-5.167-5.47-5.167-9.117 0-3.644 1.976-7.29 5.167-9.115.456-.304.608-.91.304-1.367-.304-.456-.912-.607-1.368-.304-3.8 2.28-6.23 6.382-6.23 10.788 0 4.408 2.43 8.51 6.23 10.79.15.15.303.15.455.15.304 0 .608-.15.76-.454.456-.608.303-1.063-.152-1.368zm4.71-14.74c.456-.303.608-.91.304-1.366-.304-.456-.912-.608-1.368-.304-2.584 1.52-4.104 4.254-4.104 7.142 0 2.887 1.52 5.622 4.103 7.142.15.152.303.152.455.152.304 0 .608-.152.76-.456.304-.456.152-1.063-.304-1.368-1.975-1.215-3.19-3.19-3.19-5.47.15-2.13 1.367-4.256 3.343-5.47z"/></svg><svg width="51.614" height="98.914" viewBox="164.872 412.583 51.614 98.914" id="Astr_4" y="686"><path fill="#FFF" d="M176.948 441.86c.41.548.82.958 1.23 1.505 3.148 3.42 7.526 5.61 12.588 5.61 4.925 0 9.44-2.19 12.586-5.61.41-.41.82-.957 1.23-1.505 1.643-2.325 2.874-5.198 3.148-8.208 0-.685.137-1.23.137-1.916 0-3.967-1.094-6.293-2.052-7.388-2.736-4.24-11.766-4.515-14.502-4.515h-.41c-9.167 0-13.134 2.873-14.502 4.104l-.135.137c-.274.273-.274.41-.274.41-.957 1.23-2.05 3.42-2.05 7.525 0 .682 0 1.23.136 1.913 0 2.738 1.094 5.61 2.873 7.936zm-2.052-10.124c0-3.83 1.094-5.883 1.778-6.703l.274-.273.137-.137c.958-.82 4.65-3.694 13.544-3.694h.41c1.777 0 11.08.135 13.543 3.966.684.82 1.78 2.873 1.78 6.703 0 .684 0 1.23-.138 1.915-.274 2.873-1.368 5.472-3.01 7.66-.41.548-.82.96-1.23 1.506-2.874 3.01-6.98 4.926-11.356 4.926-4.516 0-8.483-1.915-11.356-4.925-.41-.41-.82-.957-1.23-1.504-1.643-2.19-2.737-4.788-3.01-7.66-.14-.413-.14-1.096-.14-1.78zm3.967 42.823c-.684 0-1.094-.55-1.094-1.097 0-.685.545-1.095 1.092-1.095s1.095.547 1.095 1.094-.548 1.095-1.095 1.095zm24.626-1.097c0 .684-.55 1.095-1.097 1.095-.684 0-1.094-.55-1.094-1.096 0-.685.546-1.095 1.093-1.095.685-.138 1.095.41 1.095 1.094zm-14.094-11.766c0-.685.547-1.095 1.094-1.095.685 0 1.096.548 1.096 1.095 0 .685-.547 1.095-1.095 1.095-.544 0-1.092-.548-1.092-1.095zm2.326 23.53c0 .685-.547 1.096-1.095 1.096-.684 0-1.094-.548-1.094-1.095 0-.685.547-1.096 1.094-1.096.548 0 1.095.412 1.095 1.095zm-10.397-6.428c.273.546.137 1.23-.41 1.504-.138.137-.41.137-.548.137-.41 0-.82-.273-.958-.547s-.138-.547-.138-.82c.137-.273.273-.548.547-.685.547-.41 1.23-.138 1.505.41zm18.47-10.673c-.138-.273-.138-.547-.138-.82.137-.274.273-.548.547-.685.547-.273 1.23-.137 1.504.41.273.548.136 1.23-.41 1.506-.138.136-.412.136-.548.136-.41 0-.684-.275-.957-.548zm-16.145-4.24c-.272-.548-.136-1.23.41-1.505.548-.274 1.232-.138 1.506.41.137.273.137.547.137.82-.137.273-.274.548-.547.685-.137.137-.41.137-.547.137-.41 0-.823-.274-.96-.548zm13.82 19.29c.136.273.136.547.136.82-.137.273-.273.548-.547.685-.14.137-.41.137-.55.137-.41 0-.82-.274-.957-.55-.137-.272-.137-.546-.137-.82.137-.272.273-.546.547-.684.41-.41 1.095-.137 1.505.41zm-11.766 1.093c-.137.412-.547.55-.958.55-.137 0-.41 0-.547-.138-.276-.137-.413-.41-.55-.685s0-.547.138-.82c.272-.548 1.094-.685 1.504-.41.546.137.683.958.41 1.504zm11.902-21.34c.137.273 0 .547-.137.82-.14.41-.55.548-.96.548-.137 0-.41 0-.547-.137-.547-.272-.684-.956-.41-1.503.273-.548 1.094-.685 1.504-.41.275.137.41.41.548.684zm-18.333 5.06c-.137-.272 0-.546.137-.82.274-.547 1.095-.684 1.505-.41.547.274.684.958.41 1.505-.273.274-.546.548-.957.548-.137 0-.41 0-.547-.137-.272-.275-.546-.41-.546-.685zm22.437 12.04c-.273.41-.547.548-.958.548-.137 0-.41 0-.547-.137-.274-.135-.41-.41-.547-.683-.137-.273 0-.547.137-.82.273-.548 1.094-.685 1.505-.41.547.274.82.957.41 1.505zm-11.492-5.608l-6.978 7.388-.137.137s-.137 0-.137-.137c-.137-.137-.137-.274 0-.41l6.978-7.39c-.137-.136-.137-.272-.137-.41v-8.892c0-.41.41-.82.82-.82.412 0 .822.41.822.82v7.524h4.24c.546 0 1.094.547 1.094 1.095 0 .547-.547 1.095-1.095 1.095h-5.473zm25.72-7.8v-6.702c0-2.736-.547-5.2-1.642-7.662V434.61c0-1.505-1.23-2.735-2.736-2.735h-.547c-.41-10.81-9.44-19.29-20.385-19.29-10.944 0-19.974 8.618-20.248 19.29h-.684c-1.505 0-2.736 1.23-2.736 2.735v17.648c-1.094 2.326-1.642 4.926-1.642 7.662v6.703c-.274.548-.547 1.23-.41 1.916l.82 6.84c.137 1.503 1.505 2.6 3.01 2.6h.41c1.506-.14 1.917-.275 2.053-.275.275 0 .41-.137.55-.137v14.364c0 .41.41.82.82.82h1.37v18.742h33.517V492.62h1.368c.41 0 .82-.41.82-.82V477.43c.274.137.41.137.685.273.136 0 .546.137 2.05.273h.274c1.505 0 2.736-1.095 3.01-2.6l.82-6.84c.002-.684-.135-1.367-.546-1.915zm-4.514-32.97c.547 0 .958.41.958.957v14.363c-1.368-2.052-3.146-3.83-5.2-5.198 2.053-2.873 3.42-6.294 3.695-9.987h.547v-.138zm-39.128-1.916c.274-9.576 8.346-17.374 18.333-17.374 9.985 0 18.057 7.798 18.33 17.374v1.916c-.272 3.283-1.504 6.43-3.282 8.893-.412.547-.685.957-1.232 1.505-3.42 3.693-8.345 6.156-13.818 6.156-5.472 0-10.534-2.326-13.817-6.156-.41-.41-.82-.958-1.094-1.505-1.916-2.6-3.01-5.61-3.284-8.893v-1.368c-.138-.137-.138-.273-.138-.548zm-3.42 2.873c0-.55.41-.96.958-.96h.684c.273 3.694 1.642 7.115 3.694 9.988-2.052 1.504-3.83 3.282-5.2 5.197v-14.23h-.136zm-1.78 25.31c0-5.884 3.148-11.22 8.073-14.776 3.692 4.24 9.3 6.977 15.457 6.977s11.766-2.735 15.46-6.976c2.6 1.915 4.65 4.24 6.02 6.84 1.368 2.463 2.052 5.2 2.052 7.936v5.473h-.275s-.958-.137-1.094-.137h-.683c-.82 0-1.642.137-2.326.41v-9.986c0-.41-.41-.82-.82-.82h-36.53c-.41 0-.82.41-.82.82v9.987c-.683-.274-1.504-.41-2.325-.41h-.684l-1.093.136h-.41v-5.473zm3.558 16.142c-.273 0-1.094.137-1.778.273h-.41c-.548-.137-.96-.547-.96-1.095l-.683-6.155-.137-.685c0-.273 0-.41.137-.547.137-.41.547-.82 1.094-.82 0 0 .274 0 .547-.137h.958c2.462 0 4.515 1.778 4.788 4.24.138 2.19-1.367 4.243-3.556 4.927zm19.017 33.52h-13.953v-2.19h14.09v2.19h-.135zm-6.976-12.314c-2.873 0-5.335 1.367-6.977 3.557v-8.21h13.955v8.073c-1.64-2.053-4.24-3.42-6.977-3.42zm6.84 7.934v.273h-13.817c.41-3.558 3.42-6.43 6.977-6.43 3.42 0 6.294 2.6 6.84 6.157zm16.008 4.378h-13.954v-2.19h14.09v2.19h-.135zm-6.977-10.535c3.557 0 6.567 2.736 6.978 6.43H191.59v-.136c.41-3.558 3.42-6.294 6.976-6.294zm-6.977 1.642v-8.073h13.955v8.21c-1.64-2.19-4.103-3.56-6.977-3.56s-5.335 1.37-6.977 3.422zm16.28-9.714h-34.612V476.47c1.642-1.367 2.6-3.42 2.326-5.745-.137-1.778-1.095-3.283-2.326-4.24V456.36h34.613v10.124c-1.23 1.095-2.19 2.463-2.327 4.24-.273 2.19.685 4.38 2.327 5.747v14.503zm6.84-21.89l-.683 6.156c0 .547-.547.957-.958 1.094h-.41c-.685-.137-1.505-.273-1.78-.273-2.325-.684-3.693-2.735-3.42-5.06.275-2.463 2.327-4.24 4.79-4.24h.955c.274 0 .547.136.547.136.545 0 .956.41 1.092.82.137.136.137.41.137.546l-.274.82z"/></svg><svg width="51.614" height="98.914" viewBox="164.872 412.583 51.614 98.914" id="Astr_4_hover" y="785"><path fill="#FECA2E" d="M176.948 441.86c.41.548.82.958 1.23 1.505 3.148 3.42 7.526 5.61 12.588 5.61 4.925 0 9.44-2.19 12.586-5.61.41-.41.82-.957 1.23-1.505 1.643-2.325 2.874-5.198 3.148-8.208 0-.685.137-1.23.137-1.916 0-3.967-1.094-6.293-2.052-7.388-2.736-4.24-11.766-4.515-14.502-4.515h-.41c-9.167 0-13.134 2.873-14.502 4.104l-.135.137c-.274.273-.274.41-.274.41-.957 1.23-2.05 3.42-2.05 7.525 0 .682 0 1.23.136 1.913 0 2.738 1.094 5.61 2.873 7.936zm-2.052-10.124c0-3.83 1.094-5.883 1.778-6.703l.274-.273.137-.137c.958-.82 4.65-3.694 13.544-3.694h.41c1.777 0 11.08.135 13.543 3.966.684.82 1.78 2.873 1.78 6.703 0 .684 0 1.23-.138 1.915-.274 2.873-1.368 5.472-3.01 7.66-.41.548-.82.96-1.23 1.506-2.874 3.01-6.98 4.926-11.356 4.926-4.516 0-8.483-1.915-11.356-4.925-.41-.41-.82-.957-1.23-1.504-1.643-2.19-2.737-4.788-3.01-7.66-.14-.413-.14-1.096-.14-1.78zm3.967 42.823c-.684 0-1.094-.55-1.094-1.097 0-.685.545-1.095 1.092-1.095s1.095.547 1.095 1.094-.548 1.095-1.095 1.095zm24.626-1.097c0 .684-.55 1.095-1.097 1.095-.684 0-1.094-.55-1.094-1.096 0-.685.546-1.095 1.093-1.095.685-.138 1.095.41 1.095 1.094zm-14.094-11.766c0-.685.547-1.095 1.094-1.095.685 0 1.096.548 1.096 1.095 0 .685-.547 1.095-1.095 1.095-.544 0-1.092-.548-1.092-1.095zm2.326 23.53c0 .685-.547 1.096-1.095 1.096-.684 0-1.094-.548-1.094-1.095 0-.685.547-1.096 1.094-1.096.548 0 1.095.412 1.095 1.095zm-10.397-6.428c.273.546.137 1.23-.41 1.504-.138.137-.41.137-.548.137-.41 0-.82-.273-.958-.547s-.138-.547-.138-.82c.137-.273.273-.548.547-.685.547-.41 1.23-.138 1.505.41zm18.47-10.673c-.138-.273-.138-.547-.138-.82.137-.274.273-.548.547-.685.547-.273 1.23-.137 1.504.41.273.548.136 1.23-.41 1.506-.138.136-.412.136-.548.136-.41 0-.684-.275-.957-.548zm-16.145-4.24c-.272-.548-.136-1.23.41-1.505.548-.274 1.232-.138 1.506.41.137.273.137.547.137.82-.137.273-.274.548-.547.685-.137.137-.41.137-.547.137-.41 0-.823-.274-.96-.548zm13.82 19.29c.136.273.136.547.136.82-.137.273-.273.548-.547.685-.14.137-.41.137-.55.137-.41 0-.82-.274-.957-.55-.137-.272-.137-.546-.137-.82.137-.272.273-.546.547-.684.41-.41 1.095-.137 1.505.41zm-11.766 1.093c-.137.412-.547.55-.958.55-.137 0-.41 0-.547-.138-.276-.137-.413-.41-.55-.685s0-.547.138-.82c.272-.548 1.094-.685 1.504-.41.546.137.683.958.41 1.504zm11.902-21.34c.137.273 0 .547-.137.82-.14.41-.55.548-.96.548-.137 0-.41 0-.547-.137-.547-.272-.684-.956-.41-1.503.273-.548 1.094-.685 1.504-.41.275.137.41.41.548.684zm-18.333 5.06c-.137-.272 0-.546.137-.82.274-.547 1.095-.684 1.505-.41.547.274.684.958.41 1.505-.273.274-.546.548-.957.548-.137 0-.41 0-.547-.137-.272-.275-.546-.41-.546-.685zm22.437 12.04c-.273.41-.547.548-.958.548-.137 0-.41 0-.547-.137-.274-.135-.41-.41-.547-.683-.137-.273 0-.547.137-.82.273-.548 1.094-.685 1.505-.41.547.274.82.957.41 1.505zm-11.492-5.608l-6.978 7.388-.137.137s-.137 0-.137-.137c-.137-.137-.137-.274 0-.41l6.978-7.39c-.137-.136-.137-.272-.137-.41v-8.892c0-.41.41-.82.82-.82.412 0 .822.41.822.82v7.524h4.24c.546 0 1.094.547 1.094 1.095 0 .547-.547 1.095-1.095 1.095h-5.473zm25.72-7.8v-6.702c0-2.736-.547-5.2-1.642-7.662V434.61c0-1.505-1.23-2.735-2.736-2.735h-.547c-.41-10.81-9.44-19.29-20.385-19.29-10.944 0-19.974 8.618-20.248 19.29h-.684c-1.505 0-2.736 1.23-2.736 2.735v17.648c-1.094 2.326-1.642 4.926-1.642 7.662v6.703c-.274.548-.547 1.23-.41 1.916l.82 6.84c.137 1.503 1.505 2.6 3.01 2.6h.41c1.506-.14 1.917-.275 2.053-.275.275 0 .41-.137.55-.137v14.364c0 .41.41.82.82.82h1.37v18.742h33.517V492.62h1.368c.41 0 .82-.41.82-.82V477.43c.274.137.41.137.685.273.136 0 .546.137 2.05.273h.274c1.505 0 2.736-1.095 3.01-2.6l.82-6.84c.002-.684-.135-1.367-.546-1.915zm-4.514-32.97c.547 0 .958.41.958.957v14.363c-1.368-2.052-3.146-3.83-5.2-5.198 2.053-2.873 3.42-6.294 3.695-9.987h.547v-.138zm-39.128-1.916c.274-9.576 8.346-17.374 18.333-17.374 9.985 0 18.057 7.798 18.33 17.374v1.916c-.272 3.283-1.504 6.43-3.282 8.893-.412.547-.685.957-1.232 1.505-3.42 3.693-8.345 6.156-13.818 6.156-5.472 0-10.534-2.326-13.817-6.156-.41-.41-.82-.958-1.094-1.505-1.916-2.6-3.01-5.61-3.284-8.893v-1.368c-.138-.137-.138-.273-.138-.548zm-3.42 2.873c0-.55.41-.96.958-.96h.684c.273 3.694 1.642 7.115 3.694 9.988-2.052 1.504-3.83 3.282-5.2 5.197v-14.23h-.136zm-1.78 25.31c0-5.884 3.148-11.22 8.073-14.776 3.692 4.24 9.3 6.977 15.457 6.977s11.766-2.735 15.46-6.976c2.6 1.915 4.65 4.24 6.02 6.84 1.368 2.463 2.052 5.2 2.052 7.936v5.473h-.275s-.958-.137-1.094-.137h-.683c-.82 0-1.642.137-2.326.41v-9.986c0-.41-.41-.82-.82-.82h-36.53c-.41 0-.82.41-.82.82v9.987c-.683-.274-1.504-.41-2.325-.41h-.684l-1.093.136h-.41v-5.473zm3.558 16.142c-.273 0-1.094.137-1.778.273h-.41c-.548-.137-.96-.547-.96-1.095l-.683-6.155-.137-.685c0-.273 0-.41.137-.547.137-.41.547-.82 1.094-.82 0 0 .274 0 .547-.137h.958c2.462 0 4.515 1.778 4.788 4.24.138 2.19-1.367 4.243-3.556 4.927zm19.017 33.52h-13.953v-2.19h14.09v2.19h-.135zm-6.976-12.314c-2.873 0-5.335 1.367-6.977 3.557v-8.21h13.955v8.073c-1.64-2.053-4.24-3.42-6.977-3.42zm6.84 7.934v.273h-13.817c.41-3.558 3.42-6.43 6.977-6.43 3.42 0 6.294 2.6 6.84 6.157zm16.008 4.378h-13.954v-2.19h14.09v2.19h-.135zm-6.977-10.535c3.557 0 6.567 2.736 6.978 6.43H191.59v-.136c.41-3.558 3.42-6.294 6.976-6.294zm-6.977 1.642v-8.073h13.955v8.21c-1.64-2.19-4.103-3.56-6.977-3.56s-5.335 1.37-6.977 3.422zm16.28-9.714h-34.612V476.47c1.642-1.367 2.6-3.42 2.326-5.745-.137-1.778-1.095-3.283-2.326-4.24V456.36h34.613v10.124c-1.23 1.095-2.19 2.463-2.327 4.24-.273 2.19.685 4.38 2.327 5.747v14.503zm6.84-21.89l-.683 6.156c0 .547-.547.957-.958 1.094h-.41c-.685-.137-1.505-.273-1.78-.273-2.325-.684-3.693-2.735-3.42-5.06.275-2.463 2.327-4.24 4.79-4.24h.955c.274 0 .547.136.547.136.545 0 .956.41 1.092.82.137.136.137.41.137.546l-.274.82z"/></svg><svg width="28.997" height="27.001" viewBox="0 0 28.997 27.001" id="Attach" y="884"><path fill-rule="evenodd" clip-rule="evenodd" fill="#2E2E2E" d="M21.562 10.916s1.173-.9.28-1.8c-.89-.9-1.758.262-1.758.262l-6.974 7.04s-2.104 2.738-3.698 1.08c-1.595-1.657 1.07-3.732 1.07-3.732l9.766-9.858s2.744-3.055 5.324-.45c2.58 2.604-.454 5.383-.454 5.383l-13.22 13.35s-4.23 4.933-8.147.98c-3.915-3.956 1.02-8.18 1.02-8.18L14.81 4.856s1.124-.947.28-1.8c-.844-.852-1.783.284-1.783.284L1.79 14.965s-4.347 4.814.508 9.716c4.855 4.903 9.625.516 9.625.516L27.753 9.21s3.168-3.528-.608-7.34c-3.775-3.812-7.27-.616-7.27-.616l-11.62 11.73s-3.492 2.86-.325 6.058c3.167 3.196 5.955-.376 5.955-.376l7.677-7.75z"/></svg><svg version="1" width="29" height="27" viewBox="-291 384 29 27" id="Attach_white" y="912"><path fill="#FFF" d="M-269.4 394.9s1.2-.9.3-1.8c-.9-.9-1.8.3-1.8.3l-7 7s-2.1 2.7-3.7 1.1c-1.6-1.7 1.1-3.7 1.1-3.7l9.8-9.9s2.7-3.1 5.3-.5c2.6 2.6-.5 5.4-.5 5.4l-13.2 13.3s-4.2 4.9-8.1 1c-3.9-4 1-8.2 1-8.2l10-10.1s1.1-.9.3-1.8-1.8.3-1.8.3l-11.5 11.6s-4.3 4.8.5 9.7c4.9 4.9 9.6.5 9.6.5l15.8-16s3.2-3.5-.6-7.3c-3.8-3.8-7.3-.6-7.3-.6l-11.6 11.7s-3.5 2.9-.3 6.1c3.2 3.2 6-.4 6-.4l7.7-7.7z"/></svg><svg width="74.539" height="65.594" viewBox="0 0 74.539 65.594" id="Download" y="939"><path fill="#FECA2E" d="M28.39 3.445V0h-1.984v3.445H0v40.192h54.79V3.445h-26.4zm24.502 38.02H1.748V4.887h51.144v36.578z"/><path fill="#FECA2E" d="M51.114 6.667H3.527v33.02h47.587V6.667zM45.3 17.657c-1.087 0-2.015-.674-2.4-1.626l-7.836 1.495c.005.05.016.1.016.15 0 1.427-1.16 2.588-2.59 2.588-.546 0-1.05-.172-1.468-.462l-5.247 5.733c.294.422.472.93.472 1.482 0 1.428-1.16 2.59-2.588 2.59-1.43 0-2.59-1.162-2.59-2.59 0-.17.017-.335.05-.495l-8.23-3.22c-.465.69-1.255 1.145-2.147 1.145-1.428 0-2.59-1.16-2.59-2.588 0-1.428 1.162-2.59 2.59-2.59 1.425 0 2.588 1.162 2.588 2.59 0 .182-.02.356-.054.527l8.217 3.214c.462-.704 1.26-1.175 2.165-1.175.518 0 .998.157 1.404.42l5.265-5.754c-.27-.41-.427-.893-.427-1.417 0-1.428 1.162-2.59 2.59-2.59 1.028 0 1.907.608 2.327 1.478l7.895-1.503c.006-1.42 1.162-2.577 2.586-2.577 1.43 0 2.59 1.162 2.59 2.59 0 1.427-1.162 2.588-2.59 2.588zM28.046 45.762h-1.983v8.957l-9.75 8.932 1.34 1.465 9.424-8.635 10.09 8.656 1.29-1.505-10.41-8.934"/><path fill-rule="evenodd" clip-rule="evenodd" fill="#FECA2E" stroke="#2E2E2E" stroke-width="4" stroke-miterlimit="10" d="M54.778 27.91c9.81 0 17.76 7.988 17.76 17.842s-7.95 17.842-17.76 17.842c-9.81 0-17.762-7.988-17.762-17.842S44.968 27.91 54.778 27.91z"/><path fill-rule="evenodd" clip-rule="evenodd" fill="#2E2E2E" d="M60.45 33.57v13.125h6.446L54.44 58.6 41.982 46.695h6.448V33.57h12.02z"/></svg><svg width="40" height="35" viewBox="0 0 74.539 65.594" id="Download_foot" y="1005"><path fill="gray" d="M28.39 3.445V0h-1.984v3.445H0v40.192h54.79V3.445h-26.4zm24.502 38.02H1.748V4.887h51.144v36.578z"/><path fill="gray" d="M51.114 6.667H3.527v33.02h47.587V6.667zM45.3 17.657c-1.087 0-2.015-.674-2.4-1.626l-7.836 1.495c.005.05.016.1.016.15 0 1.427-1.16 2.588-2.59 2.588-.546 0-1.05-.172-1.468-.462l-5.247 5.733c.294.422.472.93.472 1.482 0 1.428-1.16 2.59-2.588 2.59-1.43 0-2.59-1.162-2.59-2.59 0-.17.017-.335.05-.495l-8.23-3.22c-.465.69-1.255 1.145-2.147 1.145-1.428 0-2.59-1.16-2.59-2.588 0-1.428 1.162-2.59 2.59-2.59 1.425 0 2.588 1.162 2.588 2.59 0 .182-.02.356-.054.527l8.217 3.214c.462-.704 1.26-1.175 2.165-1.175.518 0 .998.157 1.404.42l5.265-5.754c-.27-.41-.427-.893-.427-1.417 0-1.428 1.162-2.59 2.59-2.59 1.028 0 1.907.608 2.327 1.478l7.895-1.503c.006-1.42 1.162-2.577 2.586-2.577 1.43 0 2.59 1.162 2.59 2.59 0 1.427-1.162 2.588-2.59 2.588zM28.046 45.762h-1.983v8.957l-9.75 8.932 1.34 1.465 9.424-8.635 10.09 8.656 1.29-1.505-10.41-8.934"/><path fill-rule="evenodd" clip-rule="evenodd" fill="gray" stroke="#2E2E2E" stroke-width="4" stroke-miterlimit="10" d="M54.778 27.91c9.81 0 17.76 7.988 17.76 17.842s-7.95 17.842-17.76 17.842c-9.81 0-17.762-7.988-17.762-17.842S44.968 27.91 54.778 27.91z"/><path fill-rule="evenodd" clip-rule="evenodd" fill="#2E2E2E" d="M60.45 33.57v13.125h6.446L54.44 58.6 41.982 46.695h6.448V33.57h12.02z"/></svg><svg width="74.539" height="65.594" viewBox="0 0 74.539 65.594" id="Download_hover" y="1040"><path fill="#FFF" d="M28.39 3.445V0h-1.984v3.445H0v40.192h54.79V3.445h-26.4zm24.502 38.02H1.748V4.887h51.144v36.578z"/><path fill="#FFF" d="M51.114 6.667H3.527v33.02h47.587V6.667zM45.3 17.657c-1.087 0-2.015-.674-2.4-1.626l-7.836 1.495c.005.05.016.1.016.15 0 1.427-1.16 2.588-2.59 2.588-.546 0-1.05-.172-1.468-.462l-5.247 5.733c.294.422.472.93.472 1.482 0 1.428-1.16 2.59-2.588 2.59-1.43 0-2.59-1.162-2.59-2.59 0-.17.017-.335.05-.495l-8.23-3.22c-.465.69-1.255 1.145-2.147 1.145-1.428 0-2.59-1.16-2.59-2.588 0-1.428 1.162-2.59 2.59-2.59 1.425 0 2.588 1.162 2.588 2.59 0 .182-.02.356-.054.527l8.217 3.214c.462-.704 1.26-1.175 2.165-1.175.518 0 .998.157 1.404.42l5.265-5.754c-.27-.41-.427-.893-.427-1.417 0-1.428 1.162-2.59 2.59-2.59 1.028 0 1.907.608 2.327 1.478l7.895-1.503c.006-1.42 1.162-2.577 2.586-2.577 1.43 0 2.59 1.162 2.59 2.59 0 1.427-1.162 2.588-2.59 2.588zM28.046 45.762h-1.983v8.957l-9.75 8.932 1.34 1.465 9.424-8.635 10.09 8.656 1.29-1.505-10.41-8.934"/><path fill-rule="evenodd" clip-rule="evenodd" fill="#FFF" stroke="#2E2E2E" stroke-width="4" stroke-miterlimit="10" d="M54.778 27.91c9.81 0 17.76 7.988 17.76 17.842s-7.95 17.842-17.76 17.842c-9.81 0-17.762-7.988-17.762-17.842S44.968 27.91 54.778 27.91z"/><path fill-rule="evenodd" clip-rule="evenodd" fill="#2E2E2E" d="M60.45 33.57v13.125h6.446L54.44 58.6 41.982 46.695h6.448V33.57h12.02z"/></svg><svg width="30" height="30" viewBox="0 0 30 30" id="Help" y="1106"><path fill="#BFBEBE" d="M15 0C6.715 0 0 6.716 0 15c0 8.285 6.715 15 15 15s15-6.715 15-15c0-8.284-6.715-15-15-15zm0 28.8C7.39 28.8 1.2 22.61 1.2 15S7.39 1.2 15 1.2 28.8 7.39 28.8 15 22.61 28.8 15 28.8z"/><path fill="#BFBEBE" d="M14.95 7.136c-3.047 0-4.747 1.882-4.77 4.864h1.324c-.042-2.164 1.092-3.75 3.38-3.75 1.64 0 3.004 1.154 3.004 2.834 0 1.092-.588 1.974-1.365 2.71C14.928 15.274 14.48 15.97 14.4 18h1.34c.08-1.84.038-1.803 1.645-3.408 1.07-1.007 1.826-2.017 1.826-3.57 0-2.437-1.93-3.886-4.26-3.886zM15 20.4c-.662 0-1.2.538-1.2 1.2 0 .663.538 1.2 1.2 1.2.663 0 1.2-.537 1.2-1.2 0-.662-.537-1.2-1.2-1.2z"/></svg><svg width="30" height="30" viewBox="0 0 30 30" id="Help_hover" y="1136"><path fill="#7FBDD6" d="M15 0C6.715 0 0 6.716 0 15c0 8.285 6.715 15 15 15s15-6.715 15-15c0-8.284-6.715-15-15-15zm0 22.8c-.662 0-1.2-.537-1.2-1.2 0-.662.538-1.2 1.2-1.2.663 0 1.2.538 1.2 1.2 0 .663-.537 1.2-1.2 1.2zm2.385-8.208C15.778 16.197 15.82 16.16 15.74 18H14.4c.08-2.028.528-2.725 2.124-4.206.777-.735 1.365-1.617 1.365-2.71 0-1.68-1.367-2.834-3.005-2.834-2.29 0-3.423 1.587-3.38 3.75H10.18c.022-2.98 1.722-4.863 4.768-4.863 2.33 0 4.262 1.45 4.262 3.885 0 1.553-.757 2.56-1.827 3.57z"/></svg><svg width="48.724" height="49.898" viewBox="314.873 321.93 48.724 49.898" id="Icon_1" y="1166"><g fill="#FFF"><path d="M331.852 349.706v6.613c0 .53.432.962.965.962.532 0 .964-.43.964-.964v-6.01l-3.053-3.225c-.667-.704-.93-1.688-.704-2.63l.735-3.064h-.86l.646-.978c.136.062.28.11.43.142.154-.458.417-.857.756-1.173.442-.412 1.015-.68 1.642-.745.095-.01.19-.016.285-.017v-3.156c0-.532-.43-.964-.964-.964-.532 0-.964.432-.964.964v1.163c-.117-.02-.235-.033-.357-.033-.12 0-.24.013-.356.034v-2.746c0-.532-.432-.964-.965-.964-.532 0-.964.432-.964.964v5.235l-.468.71-.467-.71v-5.235c0-.532-.432-.964-.964-.964s-.964.432-.964.964v2.746c-.116-.02-.235-.034-.357-.034-.247 0-.48.047-.7.128v-4.482c0-.532-.43-.965-.965-.965-.532 0-.964.433-.964.965v5.234l-.59.898v-4.49c0-.532-.433-.964-.965-.964s-.964.432-.964.964v1.197c-.217-.083-.452-.13-.7-.13-1.103 0-2 .896-2 2 0 1.105.897 2 2 2 .248 0 .483-.045.7-.127v.583c0 .117.024.232.065.34H318.3l-1.498-2.272v-5.233c0-.532-.432-.964-.964-.964s-.965.432-.965.964v5.523c0 .19.056.373.16.53l2.6 3.945v4.215c-.013.062-.02.126-.02.19v8.032c0 .532.432.964.964.964.533 0 .965-.433.965-.965v-6.613h.958v6.614c0 .534.433.966.965.966s.964-.433.964-.966v-8.03c0-.065-.01-.13-.02-.19v-4.195l1.07 1.622v4.215c-.014.062-.02.125-.02.19v8.03c0 .534.43.965.963.965.533 0 .965-.43.965-.964V349.7h.958v6.613c0 .533.43.964.963.964.533 0 .964-.43.964-.964v-8.03c0-.065-.007-.13-.02-.19v-4.216l.365-.553.362.552v4.215c-.012.063-.02.126-.02.19v8.03c0 .535.433.966.965.966s.964-.43.964-.964V349.7h.96zm-5.985-8.314h-1.722l-.59-.895.588-.89c.348.59.988.988 1.724.988.297 0 .577-.066.83-.182l.645.978h-1.475v.003zm9.987-1.755c.1-.158.206-.312.322-.457.108-.136.222-.267.344-.39.215-.215.45-.41.7-.58.276-.19.572-.348.884-.477v-1.546c0-.532-.43-.964-.963-.964-.236 0-.45.09-.62.23v-1.57c0-.533-.43-.965-.963-.965s-.964.432-.964.964v4.89c.22.075.427.177.617.298.244.157.46.348.644.567zm-.634 12.193l-.753-.794v5.757l.754-.92m27.14-23.875c-.53 0-.964.432-.964.964v5.235l-1.498 2.273h-2.486c.04-.11.065-.224.065-.34v-.584c.218.08.452.128.698.128 1.105 0 2-.896 2-2s-.895-2-2-2c-.246 0-.48.046-.698.128v-1.197c0-.532-.432-.964-.965-.964-.532 0-.964.434-.964.966v4.49l-.592-.897v-5.237c0-.532-.432-.964-.964-.964s-.965.43-.965.963v4.483c-.218-.08-.452-.128-.7-.128-.12 0-.24.013-.356.033v-2.744c0-.532-.43-.964-.962-.964s-.964.433-.964.965v5.235l-.467.708-.073-.11v3.726l.073-.11.363.552v4.215c-.013.063-.02.126-.02.192v8.03c0 .533.432.965.964.965s.965-.432.965-.964v-6.614h.957v6.613c0 .532.43.964.963.964s.966-.433.966-.965v-8.03c0-.067-.007-.13-.02-.192v-4.214l1.07-1.624v4.194c-.013.062-.02.126-.02.19v8.032c0 .53.432.963.964.963.533 0 .965-.432.965-.964v-6.614h.958v6.614c0 .53.432.963.965.963.532 0 .964-.432.964-.964v-8.033c0-.065-.007-.13-.02-.19v-4.216l2.6-3.944c.105-.157.16-.342.16-.53v-5.523c.003-.533-.428-.966-.96-.966zm-8.308 10.116h-3.196l.645-.978c.255.116.535.182.83.182.737 0 1.378-.397 1.726-.988l.587.89-.59.894zm-4.837 3.382c-.055.11-.112.22-.182.323l-3.786 5.742v5.976c.02.136.03.273.03.41v.046c.035.003.07.01.105.01.532 0 .964-.43.964-.963v-6.613h.958v6.613c0 .532.432.964.965.964.53 0 .962-.432.962-.964v-8.03c0-.067-.007-.13-.02-.192l.002-3.324zm-5.61-10.89c0-.533-.43-.965-.963-.965s-.965.434-.965.966v.126c-.168-.14-.382-.23-.62-.23-.532 0-.964.433-.964.965v1.918c.558.02 1.09.134 1.584.33.117.046.23.098.345.152.61.3 1.15.722 1.584 1.24v-4.5zm-20.8-4.23c.575-.755.6-1.816.125-2.646-.515-.898-2.762-2.61-1.52-3.604.688-.552-.287-1.515-.97-.968-.81.647-.886 1.643-.604 2.585.376 1.255 2.84 2.562 1.786 3.942-.536.703.654 1.383 1.183.69zm35.697-5.853c.88-.09.583-1.427-.286-1.34-1.03.105-1.636.898-1.912 1.842-.368 1.257.99 3.692-.645 4.28-.834.3-.205 1.517.614 1.223.894-.32 1.492-1.198 1.545-2.153.055-1.033-.9-3.69.68-3.852zm-26.822 5.703c.147.945.83 1.76 1.75 1.99.846.21 1.35-1.064.493-1.28-1.685-.42-.576-2.98-1.066-4.194-.37-.91-1.05-1.64-2.086-1.642-.872 0-1.033 1.36-.15 1.36 1.59.003.9 2.743 1.06 3.766zm16.736-4.91c.402-.896.457-1.893-.26-2.642-.604-.63-1.698.195-1.087.833 1.1 1.15-1.355 2.55-1.98 3.373-.58.762-.696 1.817-.225 2.64.432.757 1.7.238 1.263-.53-.863-1.506 1.75-2.477 2.286-3.673zm-12.362 1.436c.367.884 1.224 1.513 2.172 1.518.87.006 1.06-1.353.176-1.358-1.736-.01-1.266-2.76-2.03-3.822-.574-.798-1.408-1.345-2.416-1.1-.85.205-.684 1.565.175 1.356 1.548-.374 1.528 2.45 1.925 3.406zm-9.674 3.746c1.236 0 1.236-1.918 0-1.918s-1.236 1.918 0 1.918zm-9.175-2.738c1.236 0 1.236-1.918 0-1.918s-1.236 1.917 0 1.917zm25.745-4.383c-1.236 0-1.236 1.917 0 1.917s1.236-1.917 0-1.917zm-1.78 6.847c1.235 0 1.235-1.917 0-1.917s-1.237 1.917 0 1.917zm10.544-2.876c1.236 0 1.236-1.917 0-1.917s-1.236 1.92 0 1.92zm10.956.136c-1.237 0-1.237 1.918 0 1.918s1.235-1.918 0-1.918z"/><path d="M344.418 350.333l3.472-5.268c.16-.243.246-.527.246-.818V333.75c0-.036-.003-.07-.006-.107-.056-.77-.697-1.38-1.482-1.38-.82 0-1.487.667-1.487 1.488v10.05l-.72 1.097-1.59 2.41h-5.928l-2.485-2.624.493-2.054.193-.808c.002-.002.002-.005.003-.008.01-.04.016-.08.02-.118l.01-.058c.02-.17.007-.34-.03-.5-.036-.153-.095-.3-.175-.432-.197-.33-.52-.582-.926-.68l-.027-.005c-.107-.023-.215-.036-.32-.036l-.018.002c-.665.008-1.266.464-1.428 1.14l-.062.26-.098.405-.715 2.98c-.117.49.02 1.005.366 1.37l2.06 2.175.707.746 2.103 2.22v5.078l-.194.237-1.633 1.995-3.115 3.807c-.5.61-.437 1.5.142 2.035l3.79 3.498c.286.265.647.395 1.01.395.4 0 .8-.16 1.092-.48.558-.603.52-1.544-.084-2.1l-2.76-2.55 2.507-3.063h3.586v10.204c0 .82.667 1.486 1.488 1.486s1.487-.666 1.487-1.487v-12.39c0-.102-.01-.2-.03-.296v-6.5l.54-.82z"/><path d="M336.587 342.973c.228.953.85 1.752 1.687 2.21.305.168.638.29.99.357.213.042.432.065.657.065 1.35 0 2.51-.78 3.07-1.91.134-.263.234-.545.294-.842.044-.22.068-.446.068-.68 0-.268-.033-.527-.092-.777-.18-.78-.625-1.455-1.236-1.93-.11-.085-.225-.163-.344-.234-.208-.125-.43-.23-.663-.307-.29-.1-.6-.157-.922-.174-.058 0-.114-.007-.173-.007-.5 0-.97.11-1.398.3-.146.065-.284.14-.42.225-.867.544-1.476 1.464-1.592 2.534-.002.02-.002.04-.005.06-.01.092-.014.185-.015.28v.033c0 .11.005.22.016.33.015.16.045.316.08.47z"/></g></svg><svg width="45.975" height="50.097" viewBox="267.633 264.827 45.975 50.097" id="Icon_2" y="1216"><g fill="#FFF"><path d="M302.012 283.875c2.826 0 5.127-2.3 5.127-5.126 0-2.83-2.3-5.128-5.13-5.128-2.825 0-5.124 2.3-5.124 5.126 0 2.826 2.3 5.125 5.125 5.125z"/><path d="M313.188 293.152l-1.76-2.4c-.403-.548-1.07-1.42-1.49-1.944l-2.6-3.245c-.377-.472-.768-.807-1.518-.807l-6.14-.008-3.99-2.71c-.442-.3-1.175-.89-1.565-1.257l-.457-.43h.824c.145 0 .273-.06.354-.164s.104-.245.064-.385l-.543-1.95c-.072-.262-.343-.467-.615-.467h-1.396l-.35-2.112 1.84-1.224c.44-.294.816-.818 1.025-1.372 1.5-.133 2.68-1.396 2.68-2.93 0-2.073-.572-2.938-1.973-2.966l.34-1.33c.04-.157.01-.314-.08-.433-.094-.118-.24-.187-.4-.187h-9.553c-.16 0-.307.068-.398.187-.092.12-.122.276-.082.433l.34 1.33c-1.405.024-1.98.89-1.98 2.967 0 1.534 1.18 2.796 2.68 2.93.208.554.585 1.078 1.026 1.372l1.843 1.23-.348 2.107h-1.198c-.272 0-.543.206-.615.468l-.543 1.95c-.04.14-.017.28.062.386.08.105.21.165.354.165h.617l-.457.432c-.39.368-1.123.955-1.566 1.257l-3.987 2.71-6.035.003c-.773 0-1.28.297-1.695.814l-2.598 3.244c-.42.525-1.09 1.397-1.49 1.944l-1.76 2.4c-.344.468-.484 1.04-.396 1.614.086.572.392 1.076.86 1.42.374.273.817.42 1.28.42.69 0 1.344-.332 1.75-.888l1.58-2.15-.346 3.864-3.045 14.462c-.127.598-.013 1.21.32 1.72.335.513.848.864 1.446.99.156.032.315.05.474.05 1.075 0 2.015-.765 2.237-1.816l2.85-13.534h.742l.405 4.567c.05.55.073 1.514.053 2.064l-.24 6.344c-.024.61.192 1.193.607 1.642s.98.708 1.59.73l.09.002c1.233 0 2.236-.967 2.283-2.2l.24-6.345c.028-.742 0-1.902-.067-2.643l-.61-6.832c0-.02-.003-.036-.006-.055l.662-7.395 5.242-3.563c.627-.425 1.55-1.166 2.102-1.686l.496-.468.495.466c.553.52 1.476 1.26 2.103 1.685l4.863 3.306.686 7.652c-.003.02-.007.036-.008.055l-.608 6.83c-.066.74-.097 1.9-.07 2.64l.242 6.61c.045 1.237 1.05 2.205 2.284 2.205.028 0 .057 0 .085-.002.61-.02 1.175-.28 1.59-.728.417-.447.634-1.03.61-1.64l-.24-6.61c-.02-.553.005-1.52.055-2.068l.406-4.567h.743l1.086 5.15c.138.655.378 1.717.534 2.365l1.47 6.084c.248 1.03 1.162 1.75 2.22 1.75.182 0 .363-.02.54-.063 1.226-.296 1.982-1.534 1.686-2.76l-1.468-6.084c-.148-.617-.375-1.62-.505-2.237l-1.28-6.08-.386-4.31.14.193 1.762 2.4c.406.555 1.06.887 1.75.887.464 0 .906-.146 1.28-.42.468-.343.774-.848.86-1.42s-.053-1.144-.395-1.612zm-18-25.16c.015-.018.03-.036.042-.054.098-.004.19-.007.277-.007.496 0 .89 0 .89 1.815 0 .783-.507 1.45-1.21 1.69v-3.443zm-9.063 3.442c-.702-.24-1.21-.908-1.21-1.69 0-1.814.393-1.814.89-1.814.09 0 .185.003.285.007.01.015.022.03.035.044v3.455zm3.127.18c-.042-.058-.083-.16-.033-.312l.363-1.122c-.002.005-.005-.003-.008-.007l-.946-.687c-.197-.143-.16-.312-.145-.36.016-.05.086-.207.327-.207h1.18c-.006 0 .002-.007.004-.01l.36-1.114c.075-.23.248-.248.3-.248s.223.017.297.246l.364 1.122c0-.005.006 0 .01 0h1.17c.24 0 .312.158.328.207.016.048.052.218-.144.36l-.953.693c.004-.003.002.005.002.01l.36 1.112c.05.152.01.254-.032.313-.055.075-.14.117-.23.117-.074 0-.147-.027-.22-.08l-.954-.693-.955.693c-.163.122-.353.097-.45-.035z"/><path d="M278.944 283.875c2.826 0 5.125-2.3 5.125-5.126 0-2.83-2.3-5.128-5.127-5.128s-5.126 2.3-5.126 5.126c0 2.826 2.3 5.125 5.126 5.125z"/></g></svg><svg width="47.404" height="49.396" viewBox="284.337 253.069 47.404 49.396" id="Icon_3" y="1267"><g fill="#FFF"><path d="M296.65 290.563l-1.234-.95c.102-.064.214-.115.314-.182.314-.212.442-.62.305-.975l-.248-.645-1.073-2.846c-.17-.445-.567-.765-1.04-.83h-.005l-1.06 2.622c-.304.75-1.023 1.233-1.833 1.233s-1.525-.485-1.834-1.234l-1.056-2.624-.01.002c-.466.068-.858.384-1.026.825l-1.082 2.85-.248.643c-.14.357-.012.76.306.977 1.414.964 3.116 1.53 4.95 1.53 1.162 0 2.262-.25 3.277-.66.026.203.13.4.308.536l1.305 1.003c.147.11.32.165.49.165.243 0 .48-.107.64-.314.27-.35.206-.857-.147-1.13zm2.61 2.007c-.355-.27-.86-.204-1.13.148s-.206.857.147 1.13l1.304 1.003c.05.04.11.03.163.057l.583-1.515-1.066-.82zm17.35 0l-1.045.804v.002l.586 1.522c.044-.023.097-.015.138-.047l1.304-1c.355-.27.42-.778.148-1.13s-.777-.418-1.13-.15zm-2.525-21.674c-.447 0-.806.36-.806.807s.356.807.804.807h1.61c.443 0 .805-.362.805-.807s-.36-.807-.806-.807h-1.61zm-8.055 1.614c.443 0 .806-.362.806-.807s-.362-.807-.805-.807h-1.61c-.446 0-.805.36-.805.807s.358.807.806.807h1.61zm-4.832-1.614h-1.61c-.447 0-.806.36-.806.807s.358.807.806.807h1.61c.443 0 .806-.362.806-.807s-.362-.807-.806-.807zm8.054 1.614h1.61c.444 0 .806-.362.806-.807s-.36-.807-.805-.807h-1.61c-.447 0-.807.36-.807.807s.36.807.806.807zm11.276 0c.442 0 .805-.362.805-.807s-.362-.807-.805-.807h-1.61c-.448 0-.807.36-.807.807s.36.807.808.807h1.61zm-24.163-1.614h-1.61c-.446 0-.806.36-.806.807s.357.807.804.807h1.61c.443 0 .806-.362.806-.807.002-.446-.36-.807-.805-.807zm28.995 1.614c.443 0 .806-.362.806-.807s-.362-.807-.806-.807h-1.61c-.447 0-.807.36-.807.807s.36.807.806.807h1.61zm2.99 1.884v-1.61c0-.445-.36-.806-.807-.806s-.807.36-.807.805v1.61c0 .446.36.806.807.806.445 0 .807-.36.807-.807zm-36.817-1.884c.444 0 .806-.362.806-.807s-.363-.807-.808-.807h-1.61c-.447 0-.806.36-.806.807s.358.807.806.807h1.61zm-3.313 2.69c.444 0 .805-.36.805-.806v-1.154c0-.445-.36-.806-.806-.806s-.81.36-.81.806v1.154c0 .445.36.806.808.806zm42.118 12.548l-.98-2.588c-.196-.52-.686-.868-1.24-.888h-.03c-.24 1.352-1.418 2.408-2.84 2.408s-2.6-1.057-2.84-2.41l-.02.002c-.55.02-1.032.368-1.23.88l-1 2.596-.245.645c-.148.38-.007.807.333 1.028.085.057.18.096.267.15l-1.295.994c-.352.27-.416.776-.146 1.13.157.206.396.313.64.313.17 0 .342-.054.49-.167l1.304-1.004c.2-.155.298-.388.3-.623 1.067.434 2.222.694 3.442.694 1.843 0 3.56-.55 5.003-1.487.34-.22.48-.65.335-1.028l-.246-.644z"/><path d="M323.812 283.19v1.117h-.38c.217.807.93 1.432 1.814 1.432s1.598-.627 1.815-1.434h-.324v-1.117c.907-.706 1.616-2.065 1.616-3.64 0-2.293-1.393-4.16-3.1-4.16-1.706 0-3.08 1.867-3.08 4.16 0 1.575.634 2.934 1.642 3.64zm1.435-6.82c1.148 0 2.117 1.456 2.117 3.182 0 1.725-.97 3.18-2.117 3.18s-2.118-1.456-2.118-3.18c0-1.726.97-3.183 2.116-3.183zm-9.724 21.39l-1.46-3.807c-.203-.527-.615-.902-1.104-1.097-.285-.145-.574-.242-.91-.26l-2.86 7.052v-2.194c0-.41-.37-.745-.78-.745h-.95c-.414 0-.79.332-.79.743v2.122l-2.828-6.98c-.336.018-.635.113-.917.26-.487.193-.894.567-1.098 1.097l-1.458 3.807-.367.957c-.217.564-.008 1.2.498 1.53 2.147 1.397 4.7 2.217 7.445 2.217 2.746 0 5.3-.82 7.447-2.216.507-.33.715-.97.5-1.532l-.37-.958zm-12.195-12.203c0 2.35.988 4.37 2.426 5.42.65.475 1.387.77 2.18.77s1.527-.295 2.18-.77c1.437-1.05 2.427-3.07 2.427-5.42 0-3.413-2.065-6.19-4.604-6.19s-4.607 2.777-4.607 6.19zm4.606-4.736c1.708 0 3.153 2.17 3.153 4.738s-1.445 4.736-3.153 4.736-3.15-2.17-3.15-4.736 1.442-4.736 3.15-4.736z"/><path d="M308.592 293.28h-1.29c-.397 0-.76.224-.952.57-.19.346-.18.772.03 1.108l.31.518c.12.188.33.325.553.325h1.41c.225 0 .432-.133.55-.32l.312-.508c.21-.334.223-.77.03-1.116-.192-.345-.558-.573-.953-.573zm1.634-32.77h2.046c.15.202.35.305.448.428v.984h-.42l.92 2.264c.31.754 1.54.75 1.85-.006l.92-2.258h-.446v-.985c.203-.123.326-.225.475-.427h2.047c.176 0 .34-.1.42-.257.082-.157.065-.347-.037-.49-.47-.658-.833-1.522-.937-2.25-.056-.393-.732-4.316-3.366-4.316-2.387 0-3.366 3.213-3.366 4.33 0 .732-.465 1.582-.933 2.235-.104.144-.12.333-.038.49.08.16.24.258.417.258zm3.928-4.268c1.064 0 1.914.582 1.98 1.31-.04 1.583-.93 2.902-1.99 2.902-1.047 0-1.927-1.292-1.984-2.853.028-.75.903-1.357 1.994-1.357z"/><path d="M309.217 267.225c1.404.958 3.102 1.522 4.928 1.522 1.827 0 3.522-.564 4.93-1.522.313-.213.442-.616.303-.97l-.247-.644-1.15-2.967c-.152-.395-.532-.654-.955-.652l-1.05 2.575c-.308.747-1.022 1.228-1.828 1.228-.803 0-1.52-.48-1.826-1.227l-1.05-2.576c-.49.132-.89.49-1.073.964l-1.036 2.657-.246.645c-.137.356-.012.757.304.97zm-14.502-.15c.34-.22.48-.65.335-1.026l-.247-.645-.92-2.43c-.216-.565-.727-.953-1.327-1.053-.24 1.41-1.414 2.403-2.834 2.403s-2.596-1.03-2.837-2.38c-.594.075-1.1.475-1.314 1.035l-.93 2.425-.244.644c-.147.377-.006.804.334 1.026 1.44.936 3.15 1.486 4.992 1.486s3.553-.55 4.993-1.487z"/><path d="M288.22 260.855v1.067h-.313c.22.807.93 1.427 1.814 1.427s1.597-.62 1.815-1.43h-.393v-1.066c1.01-.704 1.647-2.06 1.647-3.633 0-2.29-1.377-4.152-3.08-4.152-1.704 0-3.104 1.862-3.104 4.152 0 1.572.706 2.93 1.614 3.633zm1.502-6.81c1.145 0 2.114 1.454 2.114 3.177 0 1.722-.97 3.176-2.114 3.176s-2.112-1.454-2.112-3.176c0-1.723.967-3.177 2.112-3.177zm7.218 13.03c1.44.937 3.152 1.486 4.993 1.486s3.553-.547 4.993-1.483c.34-.22.48-.65.335-1.027l-.245-.644-.92-2.43c-.215-.565-.727-.953-1.327-1.053-.24 1.41-1.414 2.403-2.834 2.403s-2.596-1.03-2.837-2.38c-.595.075-1.1.475-1.314 1.035l-.93 2.426-.247.644c-.145.377-.004.804.335 1.026z"/><path d="M300.52 260.855v1.067h-.4c.22.807.932 1.427 1.814 1.427s1.595-.62 1.813-1.43h-.304v-1.066c.908-.704 1.603-2.06 1.603-3.633 0-2.29-1.398-4.152-3.1-4.152-1.705 0-3.07 1.862-3.07 4.152 0 1.572.636 2.93 1.644 3.633zm1.414-6.81c1.145 0 2.113 1.454 2.113 3.177 0 1.722-.97 3.176-2.113 3.176-1.146 0-2.113-1.454-2.113-3.176 0-1.723.97-3.177 2.115-3.177zm29.75 12.003l-.245-.643-.92-2.43c-.217-.565-.73-.953-1.328-1.053-.24 1.41-1.416 2.403-2.835 2.403-1.42 0-2.596-1.03-2.837-2.38-.594.075-1.098.475-1.313 1.035l-.93 2.424-.246.644c-.144.38-.004.806.336 1.028 1.44.936 3.152 1.486 4.994 1.486 1.84 0 3.55-.55 4.99-1.485.34-.222.48-.65.335-1.03z"/><path d="M324.92 260.855v1.067h-.376c.22.807.93 1.427 1.814 1.427.882 0 1.594-.62 1.812-1.43h-.325v-1.066c.907-.704 1.612-2.06 1.612-3.633 0-2.29-1.392-4.152-3.095-4.152s-3.078 1.862-3.078 4.152c0 1.572.63 2.93 1.637 3.633zm1.437-6.81c1.145 0 2.114 1.454 2.114 3.177 0 1.722-.97 3.176-2.112 3.176s-2.113-1.454-2.113-3.176c0-1.723.97-3.177 2.113-3.177zm-33.707 28.648h2.05c.174 0 .337-.096.418-.253.08-.158.065-.346-.037-.49-.47-.656-.832-1.52-.936-2.25-.056-.39-.732-4.313-3.367-4.313-2.385 0-3.365 3.213-3.365 4.33 0 .734-.465 1.583-.935 2.235-.103.144-.118.33-.037.488.08.157.243.253.42.253h2.045c.15.202.323.313.526.436v.974h-.5l.923 2.268c.31.755 1.54.748 1.85-.008l.92-2.26h-.47v-.977c.2-.122.35-.232.497-.435zm-1.875-.047c-1.046 0-1.926-1.293-1.984-2.854.03-.752.906-1.36 1.997-1.36 1.063 0 1.914.582 1.98 1.31-.04 1.585-.93 2.904-1.99 2.904z"/></g></svg><svg width="51.024" height="49.947" viewBox="-17.399 -16.678 51.024 49.947" id="Icon_4" y="1317"><path fill="#FFF" d="M.887-11.966L-.33-13.188c4.65-4.652 12.23-4.652 16.887 0l-1.218 1.222c-3.986-3.984-10.47-3.984-14.454 0zm13.562.89c-3.496-3.496-9.18-3.496-12.676 0l1.218 1.22c2.82-2.816 7.416-2.816 10.235 0l1.22-1.22zM3.95-8.9l1.223 1.22c1.62-1.62 4.262-1.62 5.88 0l1.224-1.222c-2.297-2.294-6.03-2.294-8.326.002zm5.132 21.078c2.078 0 3.77-1.692 3.77-3.773 0-2.08-1.692-3.773-3.77-3.773-2.08 0-3.776 1.692-3.776 3.773 0 2.076 1.695 3.773 3.776 3.773zm-9.72.737c1.802 0 3.268-1.467 3.268-3.265 0-1.803-1.47-3.27-3.27-3.27-1.802 0-3.266 1.467-3.266 3.27 0 1.8 1.464 3.265 3.267 3.265zm18.377.914c1.456 0 2.64-1.188 2.64-2.643 0-1.46-1.184-2.643-2.64-2.643-1.46 0-2.646 1.182-2.646 2.643 0 1.454 1.186 2.64 2.644 2.64zM-.62 17.693h22.038V15.4c0-1.01-.726-1.85-1.68-2.026-.528.473-1.222.77-1.98.777v-.002l-.02.002c-.004 0-.01-.003-.016-.003v.002c-.76-.007-1.452-.3-1.976-.778-.625.114-1.13.528-1.423 1.07v-.025c0-1.443-1.033-2.638-2.4-2.893-.75.68-1.74 1.1-2.82 1.105v-.003c-.01 0-.016.003-.027.003-.006 0-.012-.003-.02-.003v.003c-1.092-.006-2.076-.424-2.82-1.105-1.334.246-2.345 1.39-2.397 2.777-.22-.988-1.01-1.766-2.013-1.95-.65.59-1.506.952-2.443.96H-.66c-.94-.008-1.796-.37-2.443-.96-1.184.22-2.083 1.257-2.083 2.5v2.836H-.62v.005zM33.626-.21v22.74c0 1.896-1.55 3.448-3.447 3.448H13.42l-5.306 7.29-5.304-7.29h-16.763c-1.896 0-3.446-1.552-3.446-3.448V-.21c0-1.897 1.553-3.447 3.448-3.447h44.13c1.898 0 3.448 1.55 3.448 3.446zm-45.853 11.374c0-.954-.773-1.73-1.726-1.73s-1.724.777-1.724 1.73c0 .95.77 1.72 1.724 1.72s1.726-.77 1.726-1.72zM28.16-1.26h-39.182v24.844H1.065l-.027-.032h2.25l4.825 6.633 4.826-6.633h2.25l-.03.032h12.995L28.16-1.26zm2.982 8.782c0-.23-.187-.417-.418-.417-.23 0-.412.188-.412.417V14.8c0 .23.184.414.412.414.23 0 .418-.184.418-.415V7.52z"/></svg><svg width="35.1" height="49.946" viewBox="48.522 94.148 35.1 49.946" id="Icon_5" y="1367"><g fill="#FFF"><path d="M50.293 121.685c.05.003.098.005.147.005.978 0 1.808-.754 1.885-1.744l.537-6.93 3.63-2.617v10.05c0 .506.138.977.356 1.394l-4.076 16.89c-.293 1.22.456 2.445 1.674 2.74.18.04.36.06.536.06 1.025 0 1.954-.697 2.205-1.736l3.884-16.096 4.416 2.105-.37 5.974c-.078 1.25.872 2.33 2.125 2.406.05.002.097.004.145.004 1.19 0 2.19-.928 2.264-2.13l.466-7.504c.056-.925-.452-1.79-1.29-2.19l-6.275-2.99v-6.646l2.195 2.62c.312.372.756.61 1.236.666l6.675.756c.072.007.143.012.216.012.95 0 1.77-.712 1.878-1.678.118-1.04-.63-1.977-1.667-2.094l-5.92-.67-4.825-5.76c-.143-.364-.355-.694-.62-.977-.254-.98-1.135-1.704-2.19-1.704-.79 0-1.48.4-1.888 1.007l-7.696 5.547c-.45.325-.736.833-.78 1.387l-.604 7.805c-.083 1.045.696 1.955 1.738 2.035z"/><circle cx="61.496" cy="98.846" r="4.698"/><path d="M83.623 119.7l-5.575 1.742 1.284 1.282-6.094 4.888c-.178.144-.282.36-.282.59v6.812h-11.46c-.417 0-.757.338-.757.757v6.813H49.28c-.418 0-.758.34-.758.757 0 .418.34.756.757.756h12.214c.417 0 .757-.338.757-.757v-6.814h11.46c.417 0 .757-.338.757-.756v-7.204l5.94-4.765 1.474 1.476 1.74-5.574z"/></g></svg><svg width="24.071" height="22.004" viewBox="0 0 24.071 22.004" id="Mail" y="1417"><path clip-rule="evenodd" fill="none" d="M23.768 21.64l-7.36-8.84 7.328-7.16c.207.207.336.493.336.81v14.417c0 .3-.118.57-.304.772zM.375 5.607c.2-.182.462-.297.753-.297h6.604c.413.464 1.005.76 1.67.76.13 0 .254-.02.377-.04v3.076c0 1.257 1.01 2.276 2.255 2.276 1.246 0 2.256-1.02 2.256-2.276V6.03c.124.02.248.04.378.04.665 0 1.257-.295 1.67-.76h6.604c.29 0 .553.116.753.298l-11.66 9.188L.375 5.608zM14.67 4.93c-.314 0-.596-.127-.8-.332l-.707-.714v5.22c0 .628-.505 1.137-1.128 1.137-.623 0-1.128-.51-1.128-1.136v-5.22L10.2 4.6c-.203.204-.486.332-.797.332-.623 0-1.128-.51-1.128-1.138 0-.314.126-.6.33-.804L11.24.333c.202-.206.484-.333.796-.333s.594.127.798.333l2.633 2.657c.204.205.33.49.33.804 0 .628-.505 1.138-1.128 1.138zM.302 21.64C.117 21.435 0 21.165 0 20.866V6.45c0-.317.13-.603.336-.81l7.328 7.16-7.36 8.84zm11.732-4.567l3.06-2.99 8.62 7.608c-.2.195-.473.315-.772.315H1.128c-.3 0-.572-.12-.774-.313l8.62-7.607 3.062 2.99z"/></svg><svg version="1" width="30" height="30" viewBox="-302 382 30 30" id="Phone_call_modal" y="1440"><path fill="#EDB934" d="M-273 403.4c-.8-.5-3.3-1.8-4.5-2.5-.6-.3-1.8-.5-2.5.4-.6.6-1.7 1.9-2.3 2.5l-.1.1c-.2.2-.5.4-1 .4-1 0-2.9-.6-6.1-3.8-4.8-4.9-5-6.7-4.4-7.2.5-.5 2.1-2.1 2.1-2.9 0-.9-.2-1.6-.4-2.2-.6-1.5-1.6-4.2-2.1-5.3-.2-.4-.7-1-1.5-1h-1.5c-.5 0-1.1.2-1.6.6-1.1.9-2.9 2.9-2.9 5.2v1.7c0 .7.1 1.7.4 2.5.9 2.7 3.6 8.4 8 12.5 5.6 5.3 10.7 7.5 15.2 7.5 2.9 0 4.8-1.8 5.7-3.1.5-.7.7-1.4.7-1.9v-2c-.2-.4-.6-1.1-1.2-1.5z"/></svg><svg width="12.969" height="13.003" viewBox="0 0 12.969 13.003" id="Phone_foot" y="1470"><path fill="#242424" d="M12.537 9.294c-.355-.21-1.426-.8-1.945-1.084-.263-.145-.757-.224-1.093.15l-.003.002c-.243.282-.738.81-1.003 1.095 0 0 0 .002-.002.002l-.05.05c-.09.097-.204.194-.442.196-.418-.004-1.272-.243-2.648-1.638C3.28 5.965 3.207 5.166 3.435 4.95c.228-.217.89-.924.89-1.27 0-.373-.07-.704-.162-.95C3.92 2.065 3.466.92 3.256.433 3.172.238 2.95.007 2.604 0h-.658c-.214 0-.473.095-.677.272C.77.682 0 1.514 0 2.522v.73c0 .31.05.753.167 1.077.407 1.162 1.557 3.617 3.458 5.424 2.423 2.304 4.62 3.248 6.572 3.248 1.24 0 2.07-.775 2.48-1.326.212-.295.292-.61.292-.842v-.867c0-.217-.19-.533-.434-.674z"/></svg><svg width="18.01" height="18.002" viewBox="0 0 18.01 18.002" id="Phone_head" y="1484"><path fill="#9DCEEA" d="M17.41 12.868c-.493-.293-1.98-1.108-2.702-1.502-.365-.198-1.052-.31-1.518.21l-.002.002c-.337.39-1.024 1.123-1.393 1.515-.002.003-.002.004-.004.004-.02.026-.045.05-.067.073-.126.133-.284.267-.612.268-.583-.003-1.77-.334-3.68-2.265-2.88-2.913-2.975-4.017-2.66-4.32.315-.3 1.234-1.28 1.234-1.757 0-.518-.1-.975-.225-1.316C5.44 2.86 4.812 1.277 4.52.6 4.405.327 4.098.007 3.617 0H2.7c-.295 0-.654.13-.938.376C1.072.942 0 2.096 0 3.49V4.5c0 .43.068 1.046.232 1.493.565 1.614 2.162 5.013 4.803 7.514 3.365 3.19 6.415 4.495 9.126 4.495 1.725 0 2.88-1.073 3.443-1.835.297-.406.407-.843.407-1.166v-1.2c0-.3-.26-.736-.6-.93z"/></svg><svg version="1" id="Phone_head_hover" width="18" height="18" viewBox="-296 388 18 18" y="1503"><style>.st0{fill:#EDB934;}</style><path class="st0" d="M-278.6 400.9c-.5-.3-2-1.1-2.7-1.5-.4-.2-1.1-.3-1.5.2-.3.4-1 1.1-1.4 1.5 0 0 0 .1-.1.1-.1.1-.3.3-.6.3-.6 0-1.8-.3-3.7-2.3-2.9-2.9-3-4-2.7-4.3s1.2-1.3 1.2-1.8-.1-1-.2-1.3c-.3-.9-1-2.5-1.3-3.2-.1-.3-.4-.6-.9-.6h-.9c-.3 0-.7.1-.9.4-.7.6-1.8 1.7-1.8 3.1v1c0 .4.1 1 .2 1.5.6 1.6 2.2 5 4.8 7.5 3.4 3.2 6.4 4.5 9.1 4.5 1.7 0 2.9-1.1 3.4-1.8.3-.4.4-.8.4-1.2v-1.2c.2-.3-.1-.7-.4-.9z"/></svg><svg width="19.988" height="22.992" viewBox="0 0 19.988 22.992" id="Platf_andr" y="1521"><path fill-rule="evenodd" clip-rule="evenodd" fill="#BFBFBF" d="M3.45 7.214c-.04-2.07 1.06-3.57 2.26-4.468.328-.246.72-.41 1.056-.66-.185-.373-1.14-1.76-.93-2.064.096-.017.19-.047.274.018l1.057 1.87c1.667-.767 3.996-.68 5.666 0 .234-.472.767-1.572 1.112-1.905l.183.018c.062.03.06.03.09.09.092.194-.135.42-.218.57l-.766 1.422c1.456.557 2.666 2.154 3.134 3.702.13.43.116.9.182 1.407H3.45zm3.516-3.4c-.133.056-.282.075-.364.178-.274.345-.048 1.023.51.908.634-.13.584-1.08-.146-1.086zm5.94 0c-.15.064-.292.093-.382.214-.26.346.013.972.527.872.645-.126.607-1.096-.143-1.086zM1.426 7.41c.712.006 1.206.35 1.422.836.165.37.11 1.007.11 1.53v3.1c0 .823.173 2.02-.147 2.58-.245.432-.647.7-1.273.766C.795 16.3.23 15.697.08 15.172c-.108-.378-.037-.95-.037-1.39v-3.168c0-.707-.142-1.764.09-2.313.15-.35.473-.66.84-.8l.455-.09zm16.983 0c1.616.002 1.547 1.247 1.547 2.83v2.634c0 .858.146 2.096-.2 2.652-.246.395-.638.623-1.222.694-.718.086-1.268-.487-1.44-.962-.14-.394-.07-1.043-.07-1.55v-3.114c0-.724-.13-1.766.108-2.312.284-.655.612-.616 1.275-.872zm-1.88.284v7.19c0 1.052.147 2.392-.327 2.99-.475.6-1.27.562-2.313.59v2.027c0 1.37-.06 2.263-1.22 2.476-.33.06-.647-.04-.84-.125-.345-.145-.62-.39-.764-.73-.15-.35-.11-.897-.11-1.387v-2.278h-1.93v2.047c0 1.38-.052 2.262-1.222 2.475-.896.164-1.486-.463-1.658-1.032l-.037-.747-.02-2.74c-.958.008-1.728.05-2.186-.446-.577-.623-.456-1.884-.456-3.08V7.695H16.53z"/></svg><svg width="19.988" height="22.992" viewBox="0 0 19.988 22.992" id="Platf_andr_hover" y="1544"><path fill-rule="evenodd" clip-rule="evenodd" fill="#EDB934" d="M3.45 7.214c-.04-2.07 1.06-3.57 2.26-4.468.328-.246.72-.41 1.056-.66-.185-.373-1.14-1.76-.93-2.064.096-.017.19-.047.274.018l1.057 1.87c1.667-.767 3.996-.68 5.666 0 .234-.472.767-1.572 1.112-1.905l.183.018c.062.03.06.03.09.09.092.194-.135.42-.218.57l-.766 1.422c1.456.557 2.666 2.154 3.134 3.702.13.43.116.9.182 1.407H3.45zm3.516-3.4c-.133.056-.282.075-.364.178-.274.345-.048 1.023.51.908.634-.13.584-1.08-.146-1.086zm5.94 0c-.15.064-.292.093-.382.214-.26.346.013.972.527.872.645-.126.607-1.096-.143-1.086zM1.426 7.41c.712.006 1.206.35 1.422.836.165.37.11 1.007.11 1.53v3.1c0 .823.173 2.02-.147 2.58-.245.432-.647.7-1.273.766C.795 16.3.23 15.697.08 15.172c-.108-.378-.037-.95-.037-1.39v-3.168c0-.707-.142-1.764.09-2.313.15-.35.473-.66.84-.8l.455-.09zm16.983 0c1.616.002 1.547 1.247 1.547 2.83v2.634c0 .858.146 2.096-.2 2.652-.246.395-.638.623-1.222.694-.718.086-1.268-.487-1.44-.962-.14-.394-.07-1.043-.07-1.55v-3.114c0-.724-.13-1.766.108-2.312.284-.655.612-.616 1.275-.872zm-1.88.284v7.19c0 1.052.147 2.392-.327 2.99-.475.6-1.27.562-2.313.59v2.027c0 1.37-.06 2.263-1.22 2.476-.33.06-.647-.04-.84-.125-.345-.145-.62-.39-.764-.73-.15-.35-.11-.897-.11-1.387v-2.278h-1.93v2.047c0 1.38-.052 2.262-1.222 2.475-.896.164-1.486-.463-1.658-1.032l-.037-.747-.02-2.74c-.958.008-1.728.05-2.186-.446-.577-.623-.456-1.884-.456-3.08V7.695H16.53z"/></svg><svg width="18.008" height="22" viewBox="0 0 18.008 22" id="Platf_ios" y="1567"><path fill-rule="evenodd" clip-rule="evenodd" fill="#BFBFBF" d="M13.102 5.05c-.76 0-1.452.12-2.08.36l-.393.152-.53.22c-.346.137-.66.206-.94.206-.223 0-.513-.08-.87-.24l-.405-.175-.383-.163c-.56-.247-1.16-.37-1.8-.37-1.718 0-3.098.61-4.14 1.833C.52 8.093 0 9.703 0 11.703c0 2.814.835 5.414 2.504 7.8C3.664 21.167 4.724 22 5.682 22c.407 0 .81-.084 1.21-.25l.508-.22.403-.15c.565-.212 1.086-.317 1.562-.317.504 0 1.083.135 1.74.404l.32.13c.67.27 1.198.403 1.584.403.82 0 1.726-.592 2.72-1.777s1.753-2.578 2.277-4.178c-1.953-1.062-2.93-2.585-2.93-4.57 0-1.658.79-3.076 2.37-4.254C16.35 5.775 14.9 5.05 13.1 5.05zM12.844.053c-1.062.16-1.998.71-2.805 1.648-.81.94-1.213 1.943-1.213 3.01 0 .126.017.33.052.613 1.15 0 2.163-.475 3.032-1.422.87-.95 1.304-2.052 1.304-3.31 0-.14-.01-.335-.03-.59-.154.02-.268.04-.343.054z"/></svg><svg width="18.008" height="22" viewBox="0 0 18.008 22" id="Platf_ios_hover" y="1589"><path fill-rule="evenodd" clip-rule="evenodd" fill="#EDB934" d="M13.102 5.05c-.76 0-1.452.12-2.08.36l-.393.152-.53.22c-.346.137-.66.206-.94.206-.223 0-.513-.08-.87-.24l-.405-.175-.383-.163c-.56-.247-1.16-.37-1.8-.37-1.718 0-3.098.61-4.14 1.833C.52 8.093 0 9.703 0 11.703c0 2.814.835 5.414 2.504 7.8C3.664 21.167 4.724 22 5.682 22c.407 0 .81-.084 1.21-.25l.508-.22.403-.15c.565-.212 1.086-.317 1.562-.317.504 0 1.083.135 1.74.404l.32.13c.67.27 1.198.403 1.584.403.82 0 1.726-.592 2.72-1.777s1.753-2.578 2.277-4.178c-1.953-1.062-2.93-2.585-2.93-4.57 0-1.658.79-3.076 2.37-4.254C16.35 5.775 14.9 5.05 13.1 5.05zM12.844.053c-1.062.16-1.998.71-2.805 1.648-.81.94-1.213 1.943-1.213 3.01 0 .126.017.33.052.613 1.15 0 2.163-.475 3.032-1.422.87-.95 1.304-2.052 1.304-3.31 0-.14-.01-.335-.03-.59-.154.02-.268.04-.343.054z"/></svg><svg width="22" height="21.945" viewBox="11.5 16.494 22 21.945" id="Platf_web" y="1611"><path fill="#BFBFBF" d="M17.964 22.808h4.086v4.208H17.5c.027-1.5.19-2.92.464-4.208zm0 9.318h4.086v-4.21H17.5c.027 1.503.19 2.922.464 4.21zm4.085-10.22v-5.412c-1.656.324-3.074 2.416-3.873 5.41h3.87zm5.924 10.22h4.504c.603-1.288.96-2.707 1.02-4.21H28.4c-.026 1.505-.17 2.92-.427 4.21zm0-9.318c.257 1.29.4 2.705.427 4.208h5.1c-.062-1.5-.418-2.92-1.02-4.208h-4.505zm-.205-.903h4.235c-1.47-2.51-3.903-4.38-6.795-5.11 1.11 1.1 2.004 2.88 2.56 5.11zM22.05 38.44v-5.412h-3.872c.8 2.993 2.218 5.085 3.87 5.41zm4.77-16.535c-.797-2.994-2.216-5.086-3.87-5.41v5.41h3.87zm.68 6.012h-4.55v4.21h4.086c.274-1.29.437-2.708.464-4.21zm-16 0c.06 1.502.418 2.92 1.02 4.21h4.505c-.257-1.29-.402-2.706-.426-4.21h-5.1zm5.73 5.11h-4.236c1.47 2.51 3.903 4.38 6.796 5.112-1.11-1.103-2.003-2.883-2.56-5.113zm10.54 0c-.556 2.23-1.447 4.01-2.56 5.112 2.893-.734 5.323-2.605 6.796-5.113H27.77zm-10.54-11.12c.557-2.23 1.448-4.01 2.56-5.11-2.893.73-5.324 2.6-6.796 5.11h4.236zm9.806.902H22.95v4.207h4.55c-.027-1.5-.19-2.92-.464-4.208zm-14.515 0c-.6 1.286-.96 2.706-1.02 4.207h5.1c.024-1.503.17-2.92.425-4.208H12.52zm10.43 10.22v5.41c1.656-.325 3.075-2.417 3.873-5.41h-3.87z"/></svg><svg width="22" height="21.945" viewBox="11.5 16.494 22 21.945" id="Platf_web_hover" y="1633"><path fill="#EDB934" d="M17.964 22.808h4.086v4.208H17.5c.027-1.5.19-2.92.464-4.208zm0 9.318h4.086v-4.21H17.5c.027 1.503.19 2.922.464 4.21zm4.085-10.22v-5.412c-1.656.324-3.074 2.416-3.873 5.41h3.87zm5.924 10.22h4.504c.603-1.288.96-2.707 1.02-4.21H28.4c-.026 1.505-.17 2.92-.427 4.21zm0-9.318c.257 1.29.4 2.705.427 4.208h5.1c-.062-1.5-.418-2.92-1.02-4.208h-4.505zm-.205-.903h4.235c-1.47-2.51-3.903-4.38-6.795-5.11 1.11 1.1 2.004 2.88 2.56 5.11zM22.05 38.44v-5.412h-3.872c.8 2.993 2.218 5.085 3.87 5.41zm4.77-16.535c-.797-2.994-2.216-5.086-3.87-5.41v5.41h3.87zm.68 6.012h-4.55v4.21h4.086c.274-1.29.437-2.708.464-4.21zm-16 0c.06 1.502.418 2.92 1.02 4.21h4.505c-.257-1.29-.402-2.706-.426-4.21h-5.1zm5.73 5.11h-4.236c1.47 2.51 3.903 4.38 6.796 5.112-1.11-1.103-2.003-2.883-2.56-5.113zm10.54 0c-.556 2.23-1.447 4.01-2.56 5.112 2.893-.734 5.323-2.605 6.796-5.113H27.77zm-10.54-11.12c.557-2.23 1.448-4.01 2.56-5.11-2.893.73-5.324 2.6-6.796 5.11h4.236zm9.806.902H22.95v4.207h4.55c-.027-1.5-.19-2.92-.464-4.208zm-14.515 0c-.6 1.286-.96 2.706-1.02 4.207h5.1c.024-1.503.17-2.92.425-4.208H12.52zm10.43 10.22v5.41c1.656-.325 3.075-2.417 3.873-5.41h-3.87z"/></svg><svg width="39.5" height="50.029" viewBox="0 0 39.5 50.029" id="Services_1" y="1655"><path fill="#231F20" d="M21.353 45.87c-.633-1.115-.972-1.462-1.137-1.63-.092-.092-.212-.217-.313-.388-.78-.65-1.127-1.738-1.066-2.587.017-.264.087-.5.18-.72H2.73V6.15h22.873v25.673c.007.017.01.02.015.037.39.794.904 1.84 1.298 2.618.182-.12.386-.234.61-.32.207-.08.484-.16.808-.18V3.64C28.33 1.636 26.7 0 24.687 0H3.64C1.63 0 0 1.635 0 3.64v42.743c0 2.015 1.628 3.646 3.64 3.646h21.052c.772 0 1.484-.24 2.075-.656-.886-.354-1.877-.856-2.884-1.594-1.962-.903-2.395-1.562-2.53-1.91zm.937-43.585c.513 0 .934.416.934.93 0 .516-.418.928-.934.928-.515 0-.93-.412-.93-.93 0-.512.415-.928.93-.928zM9.288 2.64h9.758V3.7H9.288V2.64zm9.32 43.507h-8.89V43.41h8.888v2.737h.002zM6.128 10.14h6.333v6.894H6.13V10.14zm6.745 7.715c.225 0 .412-.187.412-.414V9.73c0-.228-.187-.414-.412-.414H5.715c-.228 0-.414.187-.414.414v7.715c0 .228.19.415.416.415h7.158v-.003zM5.715 9.728h7.158v7.715H5.715V9.728zM23.83 21.48c0 .613-.493 1.102-1.104 1.102h-16.9c-.608 0-1.102-.49-1.102-1.1 0-.608.492-1.104 1.103-1.104h16.9c.61 0 1.104.497 1.104 1.103zm-3.173 5.74H5.715c-.61 0-1.102-.49-1.102-1.102 0-.607.49-1.1 1.102-1.1h16.9c.61 0 1.104.49 1.104 1.1s-.495 1.103-1.105 1.103h-.242c-.505-.195-1.066-.262-1.597-.06-.038.017-.08.045-.12.06zm-3.162 2.533c.04.26.1.55.193.865.172.474.333.905.496 1.336H5.714c-.608 0-1.1-.494-1.1-1.103 0-.61.49-1.1 1.1-1.1h11.78v.004zM31.973 49.88s.326-.82-1.156-1.173c0 0-2.707.064-5.62-1.687 0 0-2-.674-2.21-1.19-1.392-1.987-1.71-1.75-1.777-2.11-1.362-.6-1.722-3.695.915-2.28.034-.016 1.783 1.368 1.792 1.333 0 0 1.412 1.185 2.16 1.228.983-.545-1.88-4.82-1.91-5.193 0 0-1.564-2.628-4.134-7.937-1.277-3.174.873-2.61 1.73-1.56.218-.072 4.333 7.02 4.607 6.974 0 0 1.163-2.46 3.216-.81 0 0 1.352-2.09 3.182-.323 0 0 2.695-1.1 3.68 1.373 0 0 2.804 4.147 2.765 8.074l.286 1.528-7.528 3.757z"/></svg><svg width="50.035" height="49.913" viewBox="0 -0.973 50.035 49.913" id="Services_2" y="1706"><path d="M14.7 13.386h9.293v9.572H13.647c.06-3.414.432-6.643 1.054-9.572zm0 21.195h9.293v-9.57H13.647c.06 3.415.432 6.643 1.054 9.573zm9.293-23.245V-.973c-3.76.74-6.987 5.497-8.804 12.308h8.802zM37.47 34.58h10.244c1.37-2.93 2.186-6.157 2.318-9.572H38.44c-.058 3.42-.384 6.64-.97 9.573zm0-21.194c.583 2.932.912 6.154.97 9.572h11.596c-.14-3.414-.95-6.644-2.32-9.572H37.47zm-.466-2.052h9.634C43.293 5.626 37.76 1.374 31.183-.29c2.526 2.505 4.555 6.553 5.82 11.624zM23.994 48.94V36.63H15.19c1.815 6.808 5.04 11.566 8.802 12.307zm10.853-37.606C33.032 4.524 29.805-.233 26.043-.974v12.308h8.804zm1.543 13.674H26.043v9.573h9.292c.622-2.93.994-6.156 1.055-9.57zm-36.39 0c.138 3.415.952 6.644 2.32 9.573h10.245c-.584-2.932-.914-6.152-.97-9.57H0zm13.032 11.624H3.398c3.346 5.708 8.877 9.96 15.457 11.626-2.527-2.506-4.557-6.554-5.823-11.626zm23.972 0c-1.266 5.072-3.293 9.12-5.82 11.626 6.576-1.666 12.104-5.92 15.454-11.626h-9.634zM13.032 11.334c1.266-5.072 3.293-9.12 5.822-11.625C12.276 1.373 6.747 5.625 3.398 11.332h9.634zm22.303 2.052h-9.292v9.572H36.39c-.06-3.414-.433-6.643-1.055-9.572zm-33.014 0C.954 16.316.14 19.544 0 22.958h11.595c.057-3.418.385-6.64.97-9.572H2.32zm23.724 23.246V48.94c3.762-.74 6.988-5.496 8.804-12.308h-8.804z"/></svg><svg width="50.001" height="50" viewBox="0 0 50.001 50" id="Services_3" y="1756"><path d="M38.282 26.562l-.026.002H26.562v-1.59c0-1.71 1.39-3.1 3.1-3.1h10.083v-.01h.868c3.454 0 6.266-2.8 6.266-6.266 0-3.432-2.795-6.224-6.227-6.224H20.288c-1.71 0-3.1-1.39-3.1-3.1v-4.71C17.188.7 16.488 0 15.626 0c-.863 0-1.562.7-1.562 1.562v4.714c0 3.432 2.792 6.223 6.224 6.223h20.366c1.71 0 3.1 1.39 3.1 3.123 0 1.717-1.408 3.114-3.14 3.114h-7.18v.01h-3.77c-3.433 0-6.226 2.793-6.226 6.225v1.59h-11.59c-.042 0-.084-.007-.127-.007C5.25 26.555 0 31.805 0 38.275c0 6.472 5.248 11.718 11.72 11.718 3.827 0 7.216-1.844 9.355-4.68h7.85c2.138 2.84 5.53 4.686 9.358 4.686 6.473 0 11.72-5.247 11.72-11.72s-5.247-11.72-11.72-11.72zm0 20.313c-2.715 0-5.215-1.254-6.86-3.44-.59-.784-1.517-1.246-2.498-1.246h-7.85c-.982 0-1.906.46-2.497 1.242-1.646 2.184-4.146 3.437-6.857 3.437-4.74 0-8.595-3.856-8.595-8.595 0-4.713 3.813-8.553 8.517-8.594.062.005.127.007.205.008h26.41c.022 0 .05 0 .074-.002 4.72.027 8.547 3.873 8.547 8.595 0 4.74-3.855 8.593-8.594 8.593z"/><path d="M35.936 35.174c-.862 0-1.562.698-1.562 1.56 0 .864.7 1.564 1.562 1.564s1.562-.7 1.562-1.563-.7-1.56-1.562-1.56zm0 4.648c-.862 0-1.562.7-1.562 1.562 0 .862.7 1.562 1.562 1.562s1.562-.7 1.562-1.562c0-.863-.7-1.562-1.562-1.562zm4.687-6.212c-.862 0-1.562.7-1.562 1.563 0 .86.7 1.56 1.564 1.56s1.563-.698 1.563-1.56c0-.862-.7-1.563-1.563-1.563zm0 4.65c-.862 0-1.562.698-1.562 1.562s.7 1.563 1.564 1.563 1.563-.7 1.563-1.563-.7-1.562-1.563-1.562zm-13.04-.537L26.005 39.3c-.305.306-.305.8 0 1.106.153.15.354.227.553.227.2 0 .4-.076.553-.227l1.58-1.578c.305-.307.305-.8 0-1.105-.306-.306-.8-.306-1.106 0zm-4.677 0L21.33 39.3c-.307.306-.307.8 0 1.106.15.15.35.227.55.227s.4-.076.554-.227l1.577-1.578c.308-.307.308-.8 0-1.105-.303-.306-.797-.306-1.103 0zm-8.066-1.007h-1.558v-1.56c0-.863-.7-1.562-1.562-1.562-.863 0-1.563.7-1.563 1.562v1.56h-1.56c-.863 0-1.562.7-1.562 1.562 0 .862.7 1.562 1.562 1.562h1.56v1.56c0 .863.7 1.562 1.563 1.562.862 0 1.562-.7 1.562-1.562v-1.56h1.56c.862 0 1.56-.7 1.56-1.562 0-.863-.698-1.562-1.56-1.562z"/></svg><svg width="52.131" height="49.977" viewBox="0 0 52.131 49.977" id="Services_4" y="1806"><g fill="#231F20"><path d="M34.09 28.65l4.404 2.082c.628.296 1.124.78 1.452 1.372 2.622-2.643 5.452-6.803 7.833-11.792 4.576-9.606 5.727-18.603 2.563-20.1-3.16-1.496-9.432 5.075-14.01 14.68-2.38 4.988-3.822 9.805-4.226 13.497.19-.035.388-.06.586-.06.49 0 .957.11 1.396.318zm-3.92 8.222l4.405 2.083c.325.154.665.227 1.002.227.766 0 1.487-.394 1.932-1.052-2.625-1.82-5.48-3.2-8.505-4.196-.434 1.126.056 2.414 1.165 2.938zm.597-6.562c.415.136.822.288 1.232.44 2.13.803 4.16 1.824 6.14 2.96.393.225.78.452 1.164.684.18-.542.15-1.106-.054-1.604-.215-.517-.605-.962-1.153-1.22l-4.4-2.083c-.325-.15-.665-.228-1-.228-.23 0-.458.037-.68.102-.505.154-.944.49-1.25.947zm-1.277 2.564c1.15.387 2.276.826 3.38 1.32.69.31 1.37.632 2.036.987 1.082.578 2.134 1.216 3.15 1.91l.773-1.626c-.588-.352-1.173-.69-1.768-1.028-1.604-.903-3.246-1.728-4.957-2.404-.623-.246-1.254-.466-1.894-.67l-.722 1.514zM6.423 29.916c6.688-4.34-1.066-11.06-3.747-14.565-1.072-1.397-3.488-.02-2.4 1.405 2.485 3.248 9.488 8.228 3.12 11.733-1.888 1.038-3.14 2.928-1.77 4.935 1.39 2.036 5.248 2.218 7.404 2.534 1.51.222 3.09.667 4.532 1.24-.586.264-1.208.473-1.81.696-3.016 1.125-9.735 3.81-7.36 8.362 1.94 3.717 7.352 3.643 11.576 3.723-.052-.086-.093-.186-.123-.295-.23-.903.514-1.415 2.308-2.4-2.71-.24-5.427-.17-8.122-.644-5.415-.963-1.936-4.305 1.11-5.55 1.605-.657 7.8-2.073 5.7-5.043-1.265-1.79-4.648-2.213-6.54-2.69-1.3-.328-2.69-.414-4.01-.692-3.11-.663-1.82-1.483.134-2.748z"/><path d="M19.408 47.647c-2.024 1.104-3.707 1.998-1.898 1.998.493 0 1.246-.067 2.32-.212 1.454-.2 3.5-.542 6.303-1.07 15.486-2.91 3.732-10.526 3.732-10.526-.787-.303-1.542-.442-2.242-.442-3.84 0-6.16 4.09-4.31 6.95.55.844-1.85 2.184-3.905 3.302z"/></g></svg><svg width="44.001" height="44.001" viewBox="0 0 44.001 44.001" id="Soc_behance" y="1856"><path fill="#FFF" d="M19.313 20.095c.362-.264.537-.7.537-1.3 0-.332-.058-.606-.175-.82-.12-.212-.282-.38-.485-.496-.2-.124-.43-.208-.692-.253-.26-.05-.53-.07-.81-.07h-2.94v3.338h3.182c.556 0 1.018-.133 1.383-.4zm-1.147 2.547h-3.42v3.934h3.357c.31 0 .604-.028.882-.09.28-.06.53-.16.74-.303.21-.14.386-.33.512-.57.128-.24.188-.55.188-.926 0-.736-.208-1.26-.62-1.577-.41-.312-.962-.468-1.64-.468z"/><path fill="#FFF" d="M22 0C9.85 0 0 9.85 0 22s9.85 22 22 22 22-9.85 22-22S34.15 0 22 0zm4.762 15.683h5.79v1.41h-5.79v-1.41zm-3.616 11.05c-.28.533-.66.962-1.13 1.295-.473.335-1.016.58-1.624.74-.603.16-1.227.24-1.868.24H11.6V14.726h6.735c.684 0 1.3.06 1.864.18.56.12 1.036.318 1.44.59.4.272.71.633.933 1.09.218.448.326 1.01.326 1.675 0 .72-.163 1.32-.49 1.8-.328.48-.81.874-1.457 1.18.878.252 1.53.697 1.962 1.33.434.637.646 1.4.646 2.293 0 .724-.136 1.347-.415 1.872zm4.9-.204c.426.414 1.04.623 1.838.623.572 0 1.067-.145 1.483-.434.41-.29.662-.598.76-.918h2.5c-.4 1.245-1.01 2.134-1.844 2.67-.822.536-1.825.804-2.994.804-.817 0-1.55-.132-2.21-.392-.657-.263-1.206-.63-1.67-1.112-.45-.483-.8-1.054-1.05-1.724-.247-.668-.37-1.406-.37-2.206 0-.773.13-1.496.38-2.164.26-.67.615-1.25 1.085-1.733.47-.487 1.026-.872 1.675-1.153.65-.28 1.366-.42 2.16-.42.874 0 1.64.167 2.297.51.654.34 1.19.797 1.612 1.372.42.573.72 1.228.907 1.963.187.732.25 1.5.198 2.3H27.34c0 .82.278 1.593.705 2.01z"/><path fill="#FFF" d="M29.703 20.52c-.454 0-.83.076-1.13.23-.295.155-.536.346-.72.57-.185.23-.31.472-.38.73-.073.25-.118.48-.13.682h4.62c-.066-.725-.314-1.26-.654-1.637-.338-.374-.91-.576-1.608-.576z"/></svg><svg width="44.001" height="44.001" viewBox="0 0 44.001 44.001" id="Soc_behance_hover" y="1901"><path fill="#1769FF" d="M19.313 20.095c.362-.264.537-.7.537-1.3 0-.332-.058-.606-.175-.82-.12-.212-.282-.38-.485-.496-.2-.124-.43-.208-.692-.253-.26-.05-.53-.07-.81-.07h-2.94v3.338h3.182c.556 0 1.018-.133 1.383-.4zm-1.147 2.547h-3.42v3.934h3.357c.31 0 .604-.028.882-.09.28-.06.53-.16.74-.303.21-.14.386-.33.512-.57.128-.24.188-.55.188-.926 0-.736-.208-1.26-.62-1.577-.41-.312-.962-.468-1.64-.468z"/><path fill="#1769FF" d="M22 0C9.85 0 0 9.85 0 22s9.85 22 22 22 22-9.85 22-22S34.15 0 22 0zm4.762 15.683h5.79v1.41h-5.79v-1.41zm-3.616 11.05c-.28.533-.66.962-1.13 1.295-.473.335-1.016.58-1.624.74-.603.16-1.227.24-1.868.24H11.6V14.726h6.735c.684 0 1.3.06 1.864.18.56.12 1.036.318 1.44.59.4.272.71.633.933 1.09.218.448.326 1.01.326 1.675 0 .72-.163 1.32-.49 1.8-.328.48-.81.874-1.457 1.18.878.252 1.53.697 1.962 1.33.434.637.646 1.4.646 2.293 0 .724-.136 1.347-.415 1.872zm4.9-.204c.426.414 1.04.623 1.838.623.572 0 1.067-.145 1.483-.434.41-.29.662-.598.76-.918h2.5c-.4 1.245-1.01 2.134-1.844 2.67-.822.536-1.825.804-2.994.804-.817 0-1.55-.132-2.21-.392-.657-.263-1.206-.63-1.67-1.112-.45-.483-.8-1.054-1.05-1.724-.247-.668-.37-1.406-.37-2.206 0-.773.13-1.496.38-2.164.26-.67.615-1.25 1.085-1.733.47-.487 1.026-.872 1.675-1.153.65-.28 1.366-.42 2.16-.42.874 0 1.64.167 2.297.51.654.34 1.19.797 1.612 1.372.42.573.72 1.228.907 1.963.187.732.25 1.5.198 2.3H27.34c0 .82.278 1.593.705 2.01z"/><path fill="#1769FF" d="M29.703 20.52c-.454 0-.83.076-1.13.23-.295.155-.536.346-.72.57-.185.23-.31.472-.38.73-.073.25-.118.48-.13.682h4.62c-.066-.725-.314-1.26-.654-1.637-.338-.374-.91-.576-1.608-.576z"/></svg><svg width="44.001" height="44.001" viewBox="0 0 44.001 44.001" id="Soc_dribbble" y="1946"><path fill="#FFF" d="M21.065 18.157c-1.314-2.326-2.56-4.147-3.316-5.175-2.47 1.167-4.38 3.306-5.243 5.924 2.51.2 5.75.17 8.557-.75zm1.84 3.593c-.34-.734-.687-1.458-1.04-2.13-4.307 1.46-7.797 1.352-9.77 1.08-.055.426-.095.858-.095 1.3 0 2.367.856 4.512 2.23 6.225.982-1.887 3.435-5.327 8.676-6.475zm5.227-7.595C26.435 12.825 24.322 12 22 12c-.82 0-1.605.127-2.368.313 1.344 1.642 2.47 3.35 3.423 5.037 2.593-1.224 4.287-2.515 5.077-3.195zm-12.37 15.603C17.48 31.138 19.63 32 22 32c1.428 0 2.78-.31 4.008-.85-.48-2.622-1.3-5.098-2.235-7.384-2.65.8-5.527 2.542-8.01 5.992zm8.103-10.912c.456.888.847 1.75 1.21 2.594 1.976-.162 4.26-.033 6.927.56 0-2.47-.93-4.7-2.414-6.444-1.99 1.438-3.913 2.508-5.723 3.29z"/><path fill="#FFF" d="M22 0C9.85 0 0 9.85 0 22s9.85 22 22 22 22-9.85 22-22S34.15 0 22 0zm0 34.5c-6.9 0-12.5-5.596-12.5-12.5 0-6.903 5.597-12.5 12.5-12.5S34.5 15.097 34.5 22 28.905 34.5 22 34.5z"/><path fill="#FFF" d="M25.83 23.308c1.294 3.424 1.842 6.1 1.968 6.814 2.117-1.513 3.614-3.827 4.055-6.5-.59-.17-2.994-.763-6.022-.314z"/></svg><svg width="44.001" height="44.001" viewBox="0 0 44.001 44.001" id="Soc_dribbble_hover" y="1991"><g fill="#E94D8A"><path d="M21.065 18.157c-1.314-2.326-2.56-4.147-3.316-5.175-2.47 1.167-4.38 3.306-5.24 5.924 2.506.2 5.747.17 8.554-.75zm1.84 3.593c-.342-.734-.688-1.458-1.04-2.13-4.308 1.46-7.798 1.352-9.77 1.08-.055.426-.095.858-.095 1.3 0 2.367.855 4.51 2.23 6.224.98-1.887 3.435-5.326 8.675-6.474zm5.225-7.595C26.436 12.825 24.324 12 22 12c-.818 0-1.604.127-2.367.313 1.344 1.642 2.47 3.35 3.423 5.037 2.59-1.224 4.286-2.515 5.075-3.195zM15.763 29.758C17.477 31.138 19.627 32 22 32c1.428 0 2.78-.31 4.008-.85-.48-2.622-1.3-5.1-2.235-7.384-2.65.8-5.526 2.542-8.01 5.992zm8.103-10.912c.455.888.846 1.75 1.21 2.594 1.976-.162 4.26-.033 6.927.56 0-2.47-.932-4.7-2.414-6.444-1.99 1.438-3.917 2.508-5.725 3.29z"/><path d="M22 0C9.85 0 0 9.85 0 22s9.85 22 22 22 22-9.85 22-22S34.15 0 22 0zm0 34.5c-6.902 0-12.5-5.597-12.5-12.5 0-6.904 5.597-12.5 12.5-12.5S34.5 15.095 34.5 22 28.904 34.5 22 34.5z"/><path d="M25.83 23.308c1.294 3.424 1.84 6.1 1.968 6.814 2.117-1.514 3.613-3.828 4.056-6.5-.59-.17-2.995-.763-6.023-.314z"/></g></svg><svg width="44.001" height="44.001" viewBox="0 0 44.001 44.001" id="Soc_facebook" y="2036"><path fill="#FFF" d="M22 0C9.85 0 0 9.85 0 22s9.85 22 22 22 22-9.85 22-22S34.15 0 22 0zm5.47 23.56h-3.483v9.99H19.13V23.483h-3.084v-4.527H19.2v-3.748s.143-4.72 4.187-4.757h4.5v4.446h-2.79s-1.18 0-1.18 1.328v2.81h4.04l-.487 4.528z"/></svg><svg width="44.001" height="44.001" viewBox="0 0 44.001 44.001" id="Soc_facebook_hover" y="2081"><path fill="#3C5A99" d="M22 0C9.85 0 0 9.85 0 22s9.85 22 22 22 22-9.85 22-22S34.15 0 22 0zm5.47 23.562h-3.483v9.99H19.13v-10.07h-3.084v-4.526H19.2v-3.748s.143-4.72 4.188-4.757h4.5v4.447h-2.79s-1.18 0-1.18 1.328v2.81h4.038l-.487 4.528z"/></svg><svg width="44.001" height="44.001" viewBox="0 0 44.001 44.001" id="Soc_vk" y="2126"><path fill="#FFF" d="M22 0C9.85 0 0 9.85 0 22s9.85 22 22 22 22-9.85 22-22S34.15 0 22 0zm8.42 23.72c.616.644 1.29 1.23 1.892 1.895.477.517.93 1.075 1.31 1.674.497.77.192 1.346-.74 1.394-1.206.065-2.415.048-3.622.068-.068 0-.137-.022-.205-.03-.63-.128-1.14-.48-1.58-.927-.592-.604-1.14-1.253-1.76-1.833-.627-.595-1.176-.443-1.463.372-.152.44-.207.926-.252 1.39-.053.535-.26.743-.795.727-.714-.02-1.426.023-2.135-.025-1.88-.12-3.48-.886-4.847-2.163-1.022-.964-1.844-2.08-2.6-3.247-1.287-1.987-2.39-4.075-3.363-6.222-.288-.64-.14-.933.558-.957 1.133-.035 2.262-.035 3.39-.02.452.01.776.268.95.705.543 1.37 1.242 2.664 2.064 3.877.287.435.612.85.982 1.203.47.45.872.334 1.047-.293.115-.395.184-.813.197-1.217.025-.73.023-1.454-.022-2.175-.07-1.136-.335-1.447-1.438-1.766.188-.44.526-.66.93-.74.51-.095 1.03-.163 1.542-.167.8-.008 1.61.004 2.4.096.904.103 1.146.39 1.16 1.307.02 1.038-.036 2.08-.05 3.122 0 .35-.01.7.023 1.045.022.213.075.444.175.648.2.42.51.515.827.184.528-.554 1.054-1.133 1.438-1.784.633-1.066 1.16-2.185 1.7-3.304.296-.604.375-.69 1.048-.69 1.208-.018 2.415-.025 3.627-.046 1.012-.012 1.332.395.852 1.29-.526.99-1.173 1.917-1.804 2.86-.488.718-1.05 1.378-1.55 2.094-.488.698-.466 1.045.116 1.65z"/></svg><svg width="44.001" height="44.001" viewBox="0 0 44.001 44.001" id="Soc_vk_hover" y="2171"><path fill="#46678F" d="M22 0C9.85 0 0 9.85 0 22s9.85 22 22 22 22-9.85 22-22S34.15 0 22 0zm8.42 23.72c.616.645 1.29 1.23 1.892 1.895.48.517.932 1.075 1.312 1.675.496.77.19 1.348-.74 1.396-1.207.065-2.416.048-3.623.068-.066 0-.135-.022-.203-.03-.63-.13-1.14-.48-1.58-.927-.593-.604-1.14-1.253-1.76-1.833-.628-.596-1.177-.443-1.464.37-.152.44-.207.928-.252 1.393-.053.534-.26.74-.794.726-.713-.02-1.426.022-2.135-.025-1.88-.12-3.48-.887-4.846-2.163-1.022-.964-1.845-2.08-2.6-3.247-1.288-1.986-2.39-4.074-3.363-6.22-.287-.64-.14-.934.56-.958 1.132-.035 2.26-.035 3.39-.02.45.01.775.268.95.705.542 1.368 1.24 2.663 2.063 3.876.287.437.61.853.982 1.205.47.45.87.333 1.047-.294.113-.394.183-.812.195-1.216.025-.73.023-1.454-.022-2.175-.068-1.137-.334-1.448-1.438-1.767.188-.44.526-.66.93-.738.51-.095 1.03-.163 1.543-.167.8-.008 1.608.004 2.4.096.904.104 1.146.39 1.16 1.308.02 1.04-.035 2.08-.05 3.123 0 .35-.01.7.024 1.046.02.213.073.444.174.648.2.42.512.515.828.184.526-.553 1.053-1.132 1.438-1.783.633-1.067 1.16-2.186 1.7-3.305.296-.603.376-.688 1.048-.69 1.207-.017 2.414-.024 3.627-.045 1.01-.012 1.33.395.85 1.29-.525.99-1.172 1.917-1.803 2.86-.488.718-1.05 1.378-1.55 2.094-.49.696-.467 1.043.115 1.647z"/></svg></svg>