<?xml version="1.0" encoding="UTF-8"?>
<svg width="70px" height="69px" viewBox="0 0 70 69" version="1.1" xmlns="http://www.w3.org/2000/svg" xmlns:xlink="http://www.w3.org/1999/xlink">
<title>Infoshell Logo</title>
<defs><rect id="path-1" x="0" y="0" width="69.5679012" height="69"></rect></defs>
<g id="Page-1" stroke="none" stroke-width="1" fill="none" fill-rule="evenodd">
<g id="Calc-Mail" transform="translate(-52.000000,-48.000000)">
<g id="Group-2" transform="translate(52.000000,48.000000)">
<g id="vid-2-Logo-infoshell">
<mask id="mask-2" fill="white"><use xlink:href="#path-1"></use></mask><use id="Mask" fill="#FECA2E" fill-rule="nonzero" xlink:href="#path-1"></use>
<g id="logo-infoshell" mask="url(#mask-2)">
<g transform="translate(10.985280, 11.016667)" id="logo-big">
<g transform="translate(0.099715, 0.100000)">
<path d="M0.0969789496,26.2098907 L0.0969789496,0.00915860865 L3.63072413,0.00915860865 L3.63072413,26.2098907 L0.0969789496,26.2098907 Z M19.1792029,26.2098907 L16.1306798,26.2098907 L16.1306798,4.86963557 C16.1306798,4.65546306 16.0950558,4.42359034 16.0238078,4.17313241 C15.9516692,3.92267447 15.8082826,3.69080176 15.5936481,3.47574424 C15.3781229,3.26157173 15.0610694,3.07748957 14.6433781,2.92172774 C14.2247962,2.76685093 13.6690619,2.68985503 12.9761752,2.68985503 C12.3304903,2.68985503 11.8103801,2.76685093 11.4158443,2.92172774 C11.0213086,3.07748957 10.7167235,3.27396187 10.5020889,3.51202966 C10.2865638,3.75009745 10.1485208,3.99436031 10.0897412,4.24481825 C10.0291804,4.49527618 9.99979063,4.7271489 9.99979063,4.94132141 L9.99979063,26.2098907 L6.98778205,26.2098907 L6.98778205,4.3342043 C6.98778205,4.07224123 7.03587444,3.69699683 7.13116862,3.20758609 C7.2264628,2.71994538 7.47761195,2.23761473 7.88372547,1.76059413 C8.29072958,1.28357354 8.89989986,0.872928732 9.71301749,0.526889676 C10.5252445,0.181735631 11.6491815,0.00915860865 13.0830472,0.00915860865 C14.5178035,0.00915860865 15.6408499,0.181735631 16.4539675,0.526889676 C17.2661945,0.872928732 17.8753648,1.28357354 18.2823689,1.76059413 C18.6884824,2.23761473 18.9396316,2.71994538 19.0349258,3.20758609 C19.1302199,3.69699683 19.1792029,4.07224123 19.1792029,4.3342043 L19.1792029,26.2098907 Z M25.7582364,11.6819637 L32.4267247,11.6819637 L32.4267247,14.5370856 L25.7582364,14.5370856 L25.7582364,26.2098907 L22.7129481,26.2098907 L22.7129481,4.09365616 C22.7129481,3.63644296 22.7975645,3.16580863 22.9667972,2.6844374 C23.1360298,2.20217142 23.3889787,1.76195833 23.7274441,1.36469285 C24.0668097,0.967427367 24.4952924,0.641741253 25.0146928,0.389423989 C25.5349933,0.136211983 26.1327088,0.00915860865 26.8096395,0.00915860865 L34.0209327,0.00915860865 L34.0209327,2.53948918 L27.8241355,2.53948918 C27.194914,2.53948918 26.6935171,2.75064831 26.3190448,3.17207183 C25.9445724,3.59349534 25.7582364,4.10618255 25.7582364,4.70744922 L25.7582364,11.6819637 Z M44.9322616,21.7582366 L44.9678882,21.7582366 L44.9678882,5.38307776 L44.9322616,5.38307776 L44.9322616,4.98035057 C44.9322616,4.76133939 44.8948537,4.5233231 44.8236005,4.26811171 C44.7523473,4.01199532 44.6089503,3.77397903 44.3934094,3.55496784 C44.1787591,3.33505165 43.8607918,3.14681063 43.4439606,2.98843477 C43.0253481,2.83005891 42.4695732,2.75041848 41.7766359,2.75041848 C41.1309039,2.75041848 40.6107556,2.83005891 40.2161911,2.98843477 C39.8216265,3.14681063 39.5170191,3.34862672 39.3014782,3.59116804 C39.086828,3.83551936 38.9487749,4.08530072 38.8891004,4.3405121 C38.8294258,4.59662849 38.8000339,4.83464478 38.8000339,5.05365597 L38.8000339,22.0876584 C38.8000339,22.3066696 38.8294258,22.5446859 38.8891004,22.7998972 C38.9487749,23.0560136 39.086828,23.300365 39.3014782,23.5311412 C39.5170191,23.7628225 39.8216265,23.9573985 40.2161911,24.1157744 C40.6107556,24.2750552 41.1309039,24.3537907 41.7766359,24.3537907 C42.4695732,24.3537907 43.0253481,24.2750552 43.4439606,24.1157744 C43.8607918,23.9573985 44.1787591,23.7691575 44.3934094,23.5492413 C44.6089503,23.3302301 44.7523473,23.0922138 44.8236005,22.8360974 C44.8948537,22.580886 44.9322616,22.3555398 44.9322616,22.1600588 L44.9322616,21.7582366 Z M47.9792262,22.3066696 L47.9792262,22.6722915 C47.9792262,22.9646081 47.9311303,23.3546652 47.8358291,23.8415579 C47.740528,24.3293555 47.4893605,24.8162482 47.0832173,25.3040458 C46.6761834,25.7918435 46.0669687,26.2117657 45.2546823,26.5647177 C44.4415053,26.9176696 43.3174862,27.0950505 41.8835157,27.0950505 C40.4486546,27.0950505 39.3255262,26.9176696 38.5123492,26.5647177 C37.7000628,26.2117657 37.090848,25.7918435 36.6847048,25.3040458 C36.277671,24.8162482 36.0256128,24.3230205 35.9312023,23.8234578 C35.8359012,23.3238951 35.7878053,22.941078 35.7878053,22.6722915 L35.7878053,4.4319176 C35.7878053,4.16403615 35.8359012,3.78031407 35.9312023,3.28075136 C36.0256128,2.78209365 36.277671,2.28796097 36.6847048,1.80016332 C37.090848,1.31327068 37.7000628,0.8924434 38.5123492,0.539491485 C39.3255262,0.186539571 40.4486546,0.00915860865 41.8835157,0.00915860865 C43.3174862,0.00915860865 44.4415053,0.186539571 45.2546823,0.539491485 C46.0669687,0.8924434 46.6761834,1.31327068 47.0832173,1.80016332 C47.4893605,2.28796097 47.740528,2.78209365 47.8358291,3.28075136 C47.9311303,3.78031407 47.9792262,4.16403615 47.9792262,4.4319176 L47.9792262,22.3066696 Z M7.87121835,45.8631957 C7.87121835,46.0621877 7.84013147,46.3278147 7.77963809,46.6582509 C7.71830453,46.9896 7.55866922,47.3218619 7.29905181,47.6522982 C7.04027457,47.9836473 6.65126854,48.2702688 6.13371407,48.5094243 C5.61447923,48.7494927 4.89864092,48.8699833 3.98451874,48.8699833 C3.06955638,48.8699833 2.35287788,48.7494927 1.83448323,48.5094243 C1.31608858,48.2702688 0.927922726,47.9836473 0.668305308,47.6522982 C0.409528075,47.3218619 0.249052583,46.9859488 0.188559204,46.6454716 C0.127225639,46.3068201 0.0969789496,46.0457572 0.0969789496,45.8631957 L0.0969789496,45.2424867 L2.01764374,45.2424867 L2.01764374,45.4652117 C2.01764374,45.6158249 2.03696801,45.776479 2.07477637,45.9508252 C2.11258473,46.1242586 2.20080424,46.2903896 2.33775453,46.4473924 C2.47470482,46.6043953 2.66962793,46.7376652 2.92084349,46.8444636 C3.17205905,46.9521749 3.50393245,47.0069434 3.9156235,47.0069434 C4.35756125,47.0069434 4.70791873,46.9521749 4.96669597,46.8444636 C5.22631339,46.7376652 5.42795798,46.6089593 5.57331013,46.4592589 C5.71782209,46.3104713 5.81360327,46.1489044 5.85897331,45.975471 C5.90518353,45.8020376 5.92702836,45.648686 5.92702836,45.5154161 L5.92702836,42.8071165 C5.92702836,42.6090373 5.87409665,42.3726202 5.76739305,42.0996908 C5.66068945,41.8258486 5.40947389,41.6149901 5.01290619,41.4662025 C4.92132593,41.4324286 4.80706066,41.3904394 4.67011037,41.3411478 C4.53316008,41.2918562 4.41049295,41.2416518 4.30378935,41.1923602 L2.58897009,40.5707384 C2.52847671,40.5378773 2.48226649,40.5214468 2.45201981,40.5214468 C1.58326767,40.2403021 0.973292761,39.8350156 0.622935273,39.3037617 C0.272577786,38.7734206 0.0969789496,38.2102185 0.0969789496,37.6141552 L0.0969789496,33.4654456 C0.0969789496,33.2828841 0.127225639,33.022734 0.188559204,32.6831697 C0.249052583,32.3426925 0.409528075,32.0076922 0.668305308,31.6763431 C0.927922726,31.344994 1.31608858,31.0592853 1.83448323,30.819217 C2.35287788,30.5791486 3.06955638,30.458658 3.98451874,30.458658 C4.89864092,30.458658 5.61447923,30.5791486 6.13371407,30.819217 C6.65126854,31.0592853 7.04027457,31.344994 7.29905181,31.6763431 C7.55866922,32.0076922 7.71830453,32.3426925 7.77963809,32.6831697 C7.84013147,33.022734 7.87121835,33.2828841 7.87121835,33.4654456 L7.87121835,34.1108004 L5.92702836,34.1108004 L5.92702836,33.837871 C5.92702836,33.6881706 5.90518353,33.5266037 5.85897331,33.3531703 C5.81360327,33.1788241 5.71782209,33.01817 5.57331013,32.8693824 C5.42795798,32.7187691 5.22631339,32.5918889 4.96669597,32.4841776 C4.70791873,32.3764664 4.35756125,32.3216979 3.9156235,32.3216979 C3.50393245,32.3216979 3.17205905,32.3764664 2.92084349,32.4841776 C2.66962793,32.5918889 2.47470482,32.7278972 2.33775453,32.8931154 C2.20080424,33.0592463 2.11258473,33.2290285 2.07477637,33.4033747 C2.03696801,33.5768081 2.01764374,33.738375 2.01764374,33.8871626 L2.01764374,37.2417298 C2.01764374,37.4571524 2.07477637,37.6981335 2.18904164,37.9628477 C2.30330691,38.2275618 2.5587234,38.4338563 2.95529111,38.5826439 C3.01578449,38.6173306 3.0922414,38.6501916 3.18382166,38.6830527 C3.27540191,38.7159138 3.36698216,38.7487748 3.45856242,38.7816359 C3.732463,38.8820447 4.04921305,38.9979712 4.40713221,39.1303283 C4.76505137,39.2635982 5.09692477,39.3950425 5.40107204,39.5283123 C5.70605949,39.610465 5.96567691,39.709961 6.17908411,39.8258876 C6.45298468,39.9253836 6.69327783,40.0705199 6.89912335,40.2603839 C7.10496888,40.4511606 7.28392846,40.6711472 7.43684228,40.9194308 C7.7258662,41.383137 7.87121835,41.8961347 7.87121835,42.4593369 L7.87121835,45.8631957 Z M19.1792029,30.458658 L19.1792029,47.9848234 L17.1599329,47.9848234 L17.1599329,40.1768657 L12.5655411,40.1768657 L12.5655411,47.9848234 L10.5215272,47.9848234 L10.5215272,30.458658 L12.5655411,30.458658 L12.5655411,38.2666158 L17.1599329,38.2666158 L17.1599329,30.458658 L19.1792029,30.458658 Z M29.6037512,47.9848234 L24.6723928,47.9848234 C24.1870229,47.9848234 23.768218,47.8995682 23.4150536,47.7299458 C23.0628137,47.5612115 22.7688182,47.3436331 22.5339916,47.0780985 C22.299165,46.811676 22.1235073,46.5177231 22.006094,46.1953517 C21.8886807,45.8738685 21.8295118,45.5594898 21.8295118,45.2522158 L21.8295118,33.1894895 C21.8295118,32.8848797 21.8886807,32.5696129 22.006094,32.2472416 C22.1235073,31.9257584 22.299165,31.6309174 22.5339916,31.3653829 C22.7688182,31.0989603 23.0628137,30.8813819 23.4150536,30.7117595 C23.768218,30.5430252 24.1870229,30.458658 24.6723928,30.458658 L29.6037512,30.458658 L29.6037512,32.1504414 L25.3768726,32.1504414 C24.9414264,32.1504414 24.5928846,32.2916454 24.3330961,32.5740533 C24.0733076,32.8555732 23.9429511,33.1983702 23.9429511,33.6006683 L23.9429511,38.2666158 L28.4971078,38.2666158 L28.4971078,40.1768657 L23.9429511,40.1768657 L23.9429511,44.8659031 C23.9429511,45.2522158 24.0733076,45.5870202 24.3330961,45.8694281 C24.5928846,46.150948 24.9414264,46.2921519 25.3768726,46.2921519 L29.6037512,46.2921519 L29.6037512,47.9848234 Z M38.4381142,46.2681739 L38.4381142,47.9848234 L34.1775518,47.9848234 C33.727631,47.9848234 33.3401516,47.8995682 33.0142583,47.7299458 C32.6875097,47.5612115 32.4163597,47.3436331 32.1990976,47.0780985 C31.9818354,46.811676 31.8184611,46.5177231 31.70983,46.1953517 C31.6020543,45.8738685 31.5473111,45.5594898 31.5473111,45.2522158 L31.5473111,30.458658 L33.5026705,30.458658 L33.5026705,44.8659031 C33.5026705,45.2522158 33.6232767,45.5825798 33.8636337,45.8569951 C34.1039906,46.1314103 34.425607,46.2681739 34.8293383,46.2681739 L38.4381142,46.2681739 Z M47.9792262,46.2681739 L47.9792262,47.9848234 L43.7189903,47.9848234 C43.2690136,47.9848234 42.8806307,47.8995682 42.5555525,47.7299458 C42.2287633,47.5612115 41.9567241,47.3436331 41.739435,47.0780985 C41.5221459,46.811676 41.3596067,46.5177231 41.2509622,46.1953517 C41.1423176,45.8738685 41.0884231,45.5594898 41.0884231,45.2522158 L41.0884231,30.458658 L43.0440253,30.458658 L43.0440253,44.8659031 C43.0440253,45.2522158 43.1637909,45.5825798 43.4050332,45.8569951 C43.64542,46.1314103 43.9670764,46.2681739 44.3708578,46.2681739 L47.9792262,46.2681739 Z" id="Combined-Shape" fill="#292B32"></path>
</g>
</g>
</g>
</g>
</g>
</g>
</g>
</svg>