<?xml version="1.0" encoding="UTF-8"?>
<svg width="81px" height="78px" viewBox="0 0 81 78" version="1.1" xmlns="http://www.w3.org/2000/svg" xmlns:xlink="http://www.w3.org/1999/xlink">
    <!-- Generator: sketchtool 52.5 (67469) - http://www.bohemiancoding.com/sketch -->
    <title>589BBC60-DD31-4C11-9F30-A93230819C1D</title>
    <desc>Created with sketchtool.</desc>
    <defs>
        <polygon id="path-1" points="0 68.6993086 68.7018125 68.6993086 68.7018125 0.0613453753 0 0.0613453753"></polygon>
    </defs>
    <g id="Symbols" stroke="none" stroke-width="1" fill="none" fill-rule="evenodd">
        <g id="logo/main">
            <g id="Logo">
                <g>
                    <g>
                        <polygon id="Rectangle" fill="#FFC225" points="0 0 80.0526316 0 80.0526316 78 0 78"></polygon>
                        <g id="Logo_yel-Copy" transform="translate(6.157895, 3.078947)">
                            <g id="Group-3">
                                <mask id="mask-2" fill="white">
                                    <use xlink:href="#path-1"></use>
                                </mask>
                                <g id="Clip-2"></g>
                            </g>
                            <polygon id="Fill-4" fill="#282828" points="5.36333852 37.0960492 8.96230894 37.0960492 8.96230894 5.93441389 5.36333852 5.93441389"></polygon>
                            <path d="M27.7276088,37.0960492 L24.0850081,37.0960492 L24.0850081,11.4360925 C24.0850081,11.1785671 24.0424419,10.8997586 23.9573096,10.5986029 C23.871113,10.2974472 23.6997842,10.0186387 23.443323,9.76004921 C23.1857976,9.50252382 22.8069586,9.28117969 22.3078701,9.09388851 C21.8077175,8.90766148 21.1436851,8.81508004 20.315773,8.81508004 C19.544261,8.81508004 18.9227948,8.90766148 18.4513743,9.09388851 C17.9799539,9.28117969 17.6160131,9.51742199 17.3595519,9.80367954 C17.1020265,10.0899371 16.9370825,10.3836437 16.8668483,10.6847994 C16.7944858,10.9859552 16.7593687,11.2647636 16.7593687,11.522289 L16.7593687,37.0960492 L13.1603983,37.0960492 L13.1603983,10.792279 C13.1603983,10.4772893 13.2178627,10.0260878 13.3317272,9.4376104 C13.4455917,8.85126129 13.7456833,8.2712971 14.2309377,7.69771784 C14.7172563,7.12413859 15.445138,6.63037091 16.416711,6.21428652 C17.3872199,5.79926627 18.7301828,5.59175615 20.4434715,5.59175615 C22.1578244,5.59175615 23.4997231,5.79926627 24.4712962,6.21428652 C25.441805,6.63037091 26.1696867,7.12413859 26.6560053,7.69771784 C27.1412597,8.2712971 27.4413513,8.85126129 27.5552158,9.4376104 C27.6690803,10.0260878 27.7276088,10.4772893 27.7276088,10.792279 L27.7276088,37.0960492" id="Fill-5" fill="#282828"></path>
                            <path d="M35.5246686,19.8173731 L43.4079249,19.8173731 L43.4079249,23.21309 L35.5246686,23.21309 L35.5246686,37.0960492 L31.9246341,37.0960492 L31.9246341,10.792279 C31.9246341,10.2484961 32.0246646,9.68875086 32.2247256,9.11623575 C32.4247867,8.54265649 32.7238141,8.01909249 33.1239362,7.54660791 C33.5251224,7.07412333 34.0316599,6.6867711 34.645677,6.38667954 C35.2607583,6.08552382 35.9673569,5.93441389 36.7676011,5.93441389 L45.2925425,5.93441389 L45.2925425,8.94384273 L37.9669031,8.94384273 C37.2230592,8.94384273 36.6303251,9.19498318 36.1876369,9.69619994 C35.7449486,10.1974167 35.5246686,10.8071772 35.5246686,11.522289 L35.5246686,19.8173731" id="Fill-6" fill="#282828"></path>
                            <path d="M59.2159396,31.121886 L59.2585058,31.121886 L59.2585058,11.8670751 L59.2159396,11.8670751 L59.2159396,11.3935263 C59.2159396,11.1360009 59.1712451,10.8561283 59.0861127,10.5560367 C59.0009804,10.254881 58.8296515,9.97500841 58.5721261,9.71748303 C58.3156649,9.45889349 57.9357618,9.23754936 57.4377375,9.05132233 C56.9375849,8.8650953 56.2735525,8.7714497 55.4456403,8.7714497 C54.6741283,8.7714497 54.0526621,8.8650953 53.5812417,9.05132233 C53.1098212,9.23754936 52.7458804,9.47485581 52.488355,9.76004921 C52.2318938,10.0473709 52.0669499,10.3410775 51.9956515,10.6411691 C51.9243532,10.9423248 51.8892361,11.2221974 51.8892361,11.4797228 L51.8892361,31.5092382 C51.8892361,31.7667636 51.9243532,32.0466363 51.9956515,32.3467278 C52.0669499,32.6478835 52.2318938,32.9352052 52.488355,33.2065646 C52.7458804,33.4789882 53.1098212,33.7077814 53.5812417,33.8940084 C54.0526621,34.0812996 54.6741283,34.173881 55.4456403,34.173881 C56.2735525,34.173881 56.9375849,34.0812996 57.4377375,33.8940084 C57.9357618,33.7077814 58.3156649,33.4864372 58.5721261,33.2278477 C58.8296515,32.9703223 59.0009804,32.6904497 59.0861127,32.389294 C59.1712451,32.0892024 59.2159396,31.824228 59.2159396,31.5943706 L59.2159396,31.121886 Z M62.856412,31.7667636 L62.856412,32.196682 C62.856412,32.5404039 62.7989477,32.9990545 62.6850832,33.5715696 C62.5712186,34.1451489 62.2711271,34.717664 61.7858726,35.2912432 C61.299554,35.8648225 60.5716724,36.3585902 59.6011635,36.7736104 C58.6295905,37.1886306 57.2866275,37.3972049 55.5733388,37.3972049 C53.858986,37.3972049 52.5170872,37.1886306 51.5455142,36.7736104 C50.5750053,36.3585902 49.8471236,35.8648225 49.3618692,35.2912432 C48.8755506,34.717664 48.5743949,34.1376998 48.4615945,33.5502865 C48.34773,32.9628732 48.2902656,32.5127359 48.2902656,32.196682 L48.2902656,10.7486487 C48.2902656,10.433659 48.34773,9.98245749 48.4615945,9.39504422 C48.5743949,8.80869511 48.8755506,8.22766677 49.3618692,7.65408751 C49.8471236,7.08157241 50.5750053,6.58674058 51.5455142,6.17172034 C52.5170872,5.75670009 53.858986,5.54812582 55.5733388,5.54812582 C57.2866275,5.54812582 58.6295905,5.75670009 59.6011635,6.17172034 C60.5716724,6.58674058 61.299554,7.08157241 61.7858726,7.65408751 C62.2711271,8.22766677 62.5712186,8.80869511 62.6850832,9.39504422 C62.7989477,9.98245749 62.856412,10.433659 62.856412,10.7486487 L62.856412,31.7667636 L62.856412,31.7667636 Z" id="Fill-7" fill="#282828"></path>
                            <path d="M15.2099598,59.5411953 C15.2099598,59.7731809 15.1705861,60.0828499 15.093967,60.4680738 C15.0162837,60.8543619 14.8140944,61.2417141 14.4852706,61.626938 C14.1575111,62.0132261 13.6648075,62.3473706 13.0092884,62.6261791 C12.3516409,62.9060517 11.4449813,63.0465201 10.2871813,63.0465201 C9.12831704,63.0465201 8.22059327,62.9060517 7.56400997,62.6261791 C6.90742666,62.3473706 6.41578729,62.0132261 6.08696356,61.626938 C5.75920399,61.2417141 5.55595048,60.8501053 5.47933136,60.4531756 C5.40164808,60.0583743 5.36333852,59.7540262 5.36333852,59.5411953 L5.36333852,58.8175702 L7.79599564,58.8175702 L7.79599564,59.0772239 C7.79599564,59.2528094 7.82047119,59.4401006 7.86835814,59.6433541 C7.91624509,59.8455434 8.02798131,60.0392196 8.20143849,60.2222541 C8.37489567,60.4052887 8.62177951,60.5606552 8.93996169,60.6851613 C9.25814388,60.8107315 9.6784849,60.8745808 10.1999206,60.8745808 C10.7596658,60.8745808 11.2034182,60.8107315 11.5311778,60.6851613 C11.8600016,60.5606552 12.1153986,60.4106095 12.2994974,60.2360881 C12.4825319,60.062631 12.6038455,59.8742756 12.6613099,59.6720863 C12.7198384,59.4698969 12.7475064,59.291119 12.7475064,59.1357524 L12.7475064,55.9784061 C12.7475064,55.7474846 12.6804647,55.4718686 12.545317,55.1536864 C12.4101694,54.83444 12.0919872,54.5886204 11.5897063,54.4151632 C11.4737135,54.3757895 11.3289885,54.3268384 11.1555313,54.269374 C10.9820741,54.2119097 10.8267076,54.1533812 10.69156,54.0959168 L8.51962068,53.3712277 C8.44300156,53.3329181 8.38447306,53.3137633 8.3461635,53.3137633 C7.24582778,52.9860037 6.47325164,52.5135192 6.02949922,51.8941813 C5.58574681,51.2759075 5.36333852,50.6193242 5.36333852,49.9244313 L5.36333852,45.0878493 C5.36333852,44.8750184 5.40164808,44.5717344 5.47933136,44.1758689 C5.55595048,43.7789393 5.75920399,43.3883946 6.08696356,43.0021065 C6.41578729,42.6158184 6.90742666,42.2827381 7.56400997,42.0028655 C8.22059327,41.7229928 9.12831704,41.5825244 10.2871813,41.5825244 C11.4449813,41.5825244 12.3516409,41.7229928 13.0092884,42.0028655 C13.6648075,42.2827381 14.1575111,42.6158184 14.4852706,43.0021065 C14.8140944,43.3883946 15.0162837,43.7789393 15.093967,44.1758689 C15.1705861,44.5717344 15.2099598,44.8750184 15.2099598,45.0878493 L15.2099598,45.8402065 L12.7475064,45.8402065 L12.7475064,45.5220243 C12.7475064,45.347503 12.7198384,45.1591476 12.6613099,44.9569583 C12.6038455,44.7537048 12.4825319,44.5664136 12.2994974,44.3929564 C12.1153986,44.2173709 11.8600016,44.0694534 11.5311778,43.9438832 C11.2034182,43.818313 10.7596658,43.7544637 10.1999206,43.7544637 C9.6784849,43.7544637 9.25814388,43.818313 8.93996169,43.9438832 C8.62177951,44.0694534 8.37489567,44.2280125 8.20143849,44.4206244 C8.02798131,44.6143005 7.91624509,44.8122333 7.86835814,45.0154868 C7.82047119,45.2176761 7.79599564,45.4060315 7.79599564,45.5794886 L7.79599564,49.4902563 C7.79599564,49.7413968 7.86835814,50.0223335 8.01308315,50.3309383 C8.15780816,50.6395431 8.48131112,50.880042 8.98359203,51.0534992 C9.06021115,51.0939371 9.15704921,51.1322467 9.27304204,51.1705562 C9.38903488,51.2088658 9.50502772,51.2471753 9.62102055,51.2854849 C9.96793491,51.4025419 10.3691211,51.5376895 10.8224509,51.6919919 C11.2757808,51.8473585 11.6961218,52.0005967 12.0813457,52.1559633 C12.4676338,52.2517372 12.7964575,52.36773 13.0667527,52.5028776 C13.4136671,52.6188704 13.7180153,52.788071 13.9787331,53.0094151 C14.2394509,53.2318234 14.4661159,53.4882846 14.659792,53.7777347 C15.0258611,54.3183251 15.2099598,54.9163799 15.2099598,55.5729633 L15.2099598,59.5411953" id="Fill-8" fill="#282828"></path>
                            <polyline id="Fill-9" fill="#282828" points="28.472517 41.8432423 28.472517 62.8443307 26.040924 62.8443307 26.040924 53.4882846 20.5083849 53.4882846 20.5083849 62.8443307 18.0469956 62.8443307 18.0469956 41.8432423 20.5083849 41.8432423 20.5083849 51.1992884 26.040924 51.1992884 26.040924 41.8432423 28.472517 41.8432423"></polyline>
                            <path d="M40.2590919,62.8443307 L34.5828919,62.8443307 C34.0242108,62.8443307 33.5421489,62.7421719 33.1356419,62.5389184 C32.730199,62.3367291 32.3917979,62.0760112 32.1215026,61.757829 C31.8512074,61.4385827 31.6490181,61.0863476 31.5138704,60.7000595 C31.3787228,60.3148356 31.3106169,59.9381249 31.3106169,59.5699274 L31.3106169,45.1155173 C31.3106169,44.7505123 31.3787228,44.3727375 31.5138704,43.9864494 C31.6490181,43.6012255 31.8512074,43.2479262 32.1215026,42.929744 C32.3917979,42.6104977 32.730199,42.3497798 33.1356419,42.1465263 C33.5421489,41.944337 34.0242108,41.8432423 34.5828919,41.8432423 L40.2590919,41.8432423 L40.2590919,43.8704566 L35.3937776,43.8704566 C34.8925609,43.8704566 34.4913746,44.0396571 34.1923472,44.3780582 C33.8933198,44.7153952 33.7432741,45.1261588 33.7432741,45.6082208 L33.7432741,51.1992884 L38.985299,51.1992884 L38.985299,53.4882846 L33.7432741,53.4882846 L33.7432741,59.1070202 C33.7432741,59.5699274 33.8933198,59.9711137 34.1923472,60.3095148 C34.4913746,60.6468518 34.8925609,60.8160523 35.3937776,60.8160523 L40.2590919,60.8160523 L40.2590919,62.8443307" id="Fill-10" fill="#282828"></path>
                            <path d="M51.6700202,60.7873201 L51.6700202,62.8443307 L46.3694668,62.8443307 C45.8097216,62.8443307 45.3276596,62.7421719 44.9222168,62.5389184 C44.5157097,62.3367291 44.1783728,62.0760112 43.9080775,61.757829 C43.6377823,61.4385827 43.4345288,61.0863476 43.2993812,60.7000595 C43.1652977,60.3148356 43.0971918,59.9381249 43.0971918,59.5699274 L43.0971918,41.8432423 L45.529849,41.8432423 L45.529849,59.1070202 C45.529849,59.5699274 45.6798947,59.9657929 45.9789221,60.2946166 C46.2779495,60.6234404 46.6780716,60.7873201 47.1803525,60.7873201 L51.6700202,60.7873201" id="Fill-11" fill="#282828"></path>
                            <path d="M63.0798845,60.7873201 L63.0798845,62.8443307 L57.7803952,62.8443307 C57.22065,62.8443307 56.7375238,62.7421719 56.3331451,62.5389184 C55.9266381,62.3367291 55.588237,62.0760112 55.3179418,61.757829 C55.0476465,61.4385827 54.8454572,61.0863476 54.7103096,60.7000595 C54.5751619,60.3148356 54.5081202,59.9381249 54.5081202,59.5699274 L54.5081202,41.8432423 L56.9407773,41.8432423 L56.9407773,59.1070202 C56.9407773,59.5699274 57.089759,59.9657929 57.3898505,60.2946166 C57.6888779,60.6234404 58.089,60.7873201 58.5912809,60.7873201 L63.0798845,60.7873201" id="Fill-12" fill="#282828"></path>
                        </g>
                    </g>
                </g>
            </g>
        </g>
    </g>
</svg>