<?xml version="1.0" encoding="UTF-8"?>
<svg width="54px" height="54px" viewBox="0 0 54 54" version="1.1" xmlns="http://www.w3.org/2000/svg" xmlns:xlink="http://www.w3.org/1999/xlink">
    <!-- Generator: sketchtool 53.2 (72643) - https://sketchapp.com -->
    <title>38BD0070-28FC-44E5-8FE0-BA5A9296B9B2</title>
    <desc>Created with sketchtool.</desc>
    <g id="Design-2.0" stroke="none" stroke-width="1" fill="none" fill-rule="evenodd">
        <g id="Infoshell-UI-UX-Design-1.0" transform="translate(-937.000000, -3002.000000)" fill="#FFC225" fill-rule="nonzero">
            <g id="Group-29" transform="translate(0.000000, 2846.000000)">
                <g id="Group-27" transform="translate(937.000000, 152.000000)">
                    <g id="icons/uxui/03" transform="translate(0.000000, 4.000000)">
                        <g id="Shape">
                            <path d="M23.4375,1.48438732 C23.4375,0.664962937 22.78125,0 21.9726562,0 L1.46484375,0 C0.65625,0 0,0.664962937 0,1.48438732 L0,11.875 L23.4375,11.875 L23.4375,1.48438732 Z M10.2539062,8.90622536 L7.2265625,8.90622536 C6.41796875,8.90622536 5.76171875,8.24126242 5.76171875,7.42183804 C5.76171875,6.60241365 6.41796875,5.93745071 7.2265625,5.93745071 L10.2539062,5.93745071 C11.0625,5.93745071 11.71875,6.60241365 11.71875,7.42183804 C11.71875,8.24126242 11.0625,8.90622536 10.2539062,8.90622536 Z M16.1132812,8.90622536 C15.3046875,8.90622536 14.6484375,8.24126242 14.6484375,7.42183804 C14.6484375,6.60241365 15.3046875,5.93745071 16.1132812,5.93745071 C16.921875,5.93745071 17.578125,6.60241365 17.578125,7.42183804 C17.578125,8.24126242 16.921875,8.90622536 16.1132812,8.90622536 Z"></path>
                            <path d="M23.4375,25.0781127 L23.4375,14.6875 L0,14.6875 L0,25.0781127 C0,25.8975371 0.65625,26.5625 1.46484375,26.5625 L21.9726562,26.5625 C22.78125,26.5625 23.4375,25.8975371 23.4375,25.0781127 Z M10.2539062,20.6250493 L7.2265625,20.6250493 C6.41796875,20.6250493 5.76171875,19.9600863 5.76171875,19.140662 C5.76171875,18.3212376 6.41796875,17.6562746 7.2265625,17.6562746 L10.2539062,17.6562746 C11.0625,17.6562746 11.71875,18.3212376 11.71875,19.140662 C11.71875,19.9600863 11.0625,20.6250493 10.2539062,20.6250493 Z M16.1132812,20.6250493 C15.3046875,20.6250493 14.6484375,19.9600863 14.6484375,19.140662 C14.6484375,18.3212376 15.3046875,17.6562746 16.1132812,17.6562746 C16.921875,17.6562746 17.578125,18.3212376 17.578125,19.140662 C17.578125,19.9600863 16.921875,20.6250493 16.1132812,20.6250493 Z"></path>
                            <path d="M48.5351562,0 L28.0273438,0 C27.21875,0 26.5625,0.664962937 26.5625,1.48438732 L26.5625,11.875 L50,11.875 L50,1.48438732 C50,0.664962937 49.34375,0 48.5351562,0 Z M36.8164062,8.90622536 L33.8867188,8.90622536 C33.078125,8.90622536 32.421875,8.24126242 32.421875,7.42183804 C32.421875,6.60241365 33.078125,5.93745071 33.8867188,5.93745071 L36.8164062,5.93745071 C37.625,5.93745071 38.28125,6.60241365 38.28125,7.42183804 C38.28125,8.24126242 37.625,8.90622536 36.8164062,8.90622536 Z M42.6757812,8.90622536 C41.8671875,8.90622536 41.2109375,8.24126242 41.2109375,7.42183804 C41.2109375,6.60241365 41.8671875,5.93745071 42.6757812,5.93745071 C43.484375,5.93745071 44.140625,6.60241365 44.140625,7.42183804 C44.140625,8.24126242 43.484375,8.90622536 42.6757812,8.90622536 Z"></path>
                            <path d="M26.5625,25.0781127 C26.5625,25.8975371 27.21875,26.5625 28.0273438,26.5625 L48.5351562,26.5625 C49.34375,26.5625 50,25.8975371 50,25.0781127 L50,14.6875 L26.5625,14.6875 L26.5625,25.0781127 Z M42.6757812,17.6562746 C43.484375,17.6562746 44.140625,18.3212376 44.140625,19.140662 C44.140625,19.9600863 43.484375,20.6250493 42.6757812,20.6250493 C41.8671875,20.6250493 41.2109375,19.9600863 41.2109375,19.140662 C41.2109375,18.3212376 41.8671875,17.6562746 42.6757812,17.6562746 Z M33.8867188,17.6562746 L36.8164062,17.6562746 C37.625,17.6562746 38.28125,18.3212376 38.28125,19.140662 C38.28125,19.9600863 37.625,20.6250493 36.8164062,20.6250493 L33.8867188,20.6250493 C33.078125,20.6250493 32.421875,19.9600863 32.421875,19.140662 C32.421875,18.3212376 33.078125,17.6562746 33.8867188,17.6562746 Z"></path>
                            <path d="M38.3149696,33.5320776 L38.3149696,46.140411 L35.3799392,46.140411 L35.3799392,42.8413242 C35.3799392,42.0378995 34.7224924,41.3858447 33.912424,41.3858447 L32.3470745,41.3858447 L32.3470745,39.9303653 C32.3470745,37.142637 30.7367211,34.7207192 28.3906535,33.5320776 C27.4044833,33.032363 26.2881934,32.75 25.1073328,32.75 C23.9264723,32.75 22.8101824,33.032363 21.8240122,33.5320776 C19.4779445,34.7207192 17.8675912,37.142637 17.8675912,39.9303653 L17.8675912,41.3858447 L16.400076,41.3858447 C15.5900076,41.3858447 14.9325608,42.0378995 14.9325608,42.8413242 L14.9325608,46.140411 L11.9975304,46.140411 L11.9975304,33.5320776 L9.0625,33.5320776 L9.0625,47.5958904 C9.0625,48.3993151 9.71994681,49.0513699 10.5300152,49.0513699 L14.9325608,49.0513699 L14.9325608,52.5445205 C14.9325608,53.3479452 15.5900076,54 16.400076,54 L23.6398176,54 L23.6398176,48.663242 C23.6398176,47.8598174 24.2972644,47.2077626 25.1073328,47.2077626 C25.9174012,47.2077626 26.574848,47.8598174 26.574848,48.663242 L26.574848,54 L33.912424,54 C34.7224924,54 35.3799392,53.3479452 35.3799392,52.5445205 L35.3799392,49.0513699 L39.7824848,49.0513699 C40.5925532,49.0513699 41.25,48.3993151 41.25,47.5958904 L41.25,33.5320776 L38.3149696,33.5320776 Z M29.4120441,41.3858447 L20.8026216,41.3858447 L20.8026216,39.9303653 C20.8026216,37.5763699 22.7338716,35.6609589 25.1073328,35.6609589 C27.4807941,35.6609589 29.4120441,37.5763699 29.4120441,39.9303653 L29.4120441,41.3858447 Z"></path>
                        </g>
                    </g>
                </g>
            </g>
        </g>
    </g>
</svg>