<?xml version="1.0" encoding="UTF-8"?>
<svg width="113px" height="113px" viewBox="0 0 113 113" version="1.1" xmlns="http://www.w3.org/2000/svg" xmlns:xlink="http://www.w3.org/1999/xlink">
    <!-- Generator: sketchtool 53.2 (72643) - https://sketchapp.com -->
    <title>2C268DEB-0372-4E3B-B4B0-D84548B6487E</title>
    <desc>Created with sketchtool.</desc>
    <g id="Design-2.0" stroke="none" stroke-width="1" fill="none" fill-rule="evenodd">
        <g id="Infoshell-UI-UX-Design-1.0" transform="translate(-584.000000, -6351.000000)" fill-rule="nonzero">
            <g id="Group-25" transform="translate(0.000000, 6132.000000)">
                <g id="Group-9" transform="translate(584.000000, 219.000000)">
                    <g id="behance">
                        <circle id="Oval" fill="#4176FA" cx="56.098" cy="56.098" r="56.098"></circle>
                        <path d="M76.209,46.341 C60.006,46.341 59.985,62.483 59.985,62.566 C59.985,62.566 58.875,78.728 76.209,78.728 C76.209,78.728 90.665,79.55 90.665,67.48 L83.242,67.48 C83.242,67.48 83.488,72.024 76.456,72.024 C76.456,72.024 69.033,72.518 69.033,64.683 L90.912,64.683 C90.912,64.683 93.318,46.341 76.209,46.341 Z M68.95,59.028 C68.95,59.028 69.855,52.53 76.374,52.53 C82.913,52.53 82.8100961,59.028 82.8100961,59.028 L68.95,59.028 Z M50.404,54.875 C50.404,54.875 56.84,54.402 56.84,46.835 C56.84,39.289 51.576,35.587 44.893,35.587 L22.91,35.587 L22.91,77.843 L44.891,77.843 C44.891,77.843 58.319,78.255 58.319,65.362 C58.32,65.362 58.896,54.875 50.404,54.875 Z M32.596,43.092 L44.892,43.092 C44.892,43.092 47.874,43.092 47.874,47.492 C47.874,51.892 46.126,52.53 44.131,52.53 L32.596,52.53 L32.596,43.092 Z M44.276,70.338 L32.596,70.338 L32.596,59.0279922 L44.892,59.028 C44.892,59.028 49.355,58.987 49.334,64.847 C49.334,69.783 46.024,70.297 44.276,70.338 Z M67.12,38.075 L67.12,43.278 L84.558,43.278 L84.558,38.075 L67.12,38.075 Z" id="Shape" fill="#FFFFFF"></path>
                    </g>
                </g>
            </g>
        </g>
    </g>
</svg>