<?xml version="1.0" encoding="UTF-8"?>
<svg width="113px" height="113px" viewBox="0 0 113 113" version="1.1" xmlns="http://www.w3.org/2000/svg" xmlns:xlink="http://www.w3.org/1999/xlink">
    <!-- Generator: sketchtool 53.2 (72643) - https://sketchapp.com -->
    <title>760DFE28-7776-467D-AF87-306878DC27CB</title>
    <desc>Created with sketchtool.</desc>
    <g id="Design-2.0" stroke="none" stroke-width="1" fill="none" fill-rule="evenodd">
        <g id="Infoshell-UI-UX-Design-1.0" transform="translate(-743.000000, -6351.000000)" fill-rule="nonzero">
            <g id="Group-25" transform="translate(0.000000, 6132.000000)">
                <g id="Group-9" transform="translate(584.000000, 219.000000)">
                    <g id="dribble" transform="translate(159.000000, 0.000000)">
                        <circle id="Oval" fill="#F26798" cx="56.098" cy="56.098" r="56.098"></circle>
                        <path d="M56.097,20.472 C36.428,20.472 20.426,36.455 20.426,56.099 C20.426,75.743 36.428,91.725 56.097,91.725 C75.767,91.725 91.77,75.744 91.77,56.099 C91.77,36.455 75.767,20.472 56.097,20.472 L56.097,20.472 Z M79.57,37.287 C83.639,42.33 86.112,48.699 86.226,55.639 C84.872,55.361 79.138,54.292 72.286,54.292 C70.075,54.292 67.748,54.403 65.415,54.691 C65.218,54.212 65.021,53.735 64.814,53.253 C64.209,51.83 63.557,50.418 62.882,49.027 C73.428,44.682 78.515,38.652 79.57,37.287 L79.57,37.287 Z M56.097,26.049 C63.698,26.049 70.646,28.873 75.953,33.524 C75.113,34.67 70.557,40.365 60.388,44.207 C55.681,35.603 50.529,28.478 49.303,26.824 C51.488,26.318 53.762,26.049 56.097,26.049 L56.097,26.049 Z M43.152,28.969 C44.191,30.4 49.351,37.601 54.179,46.136 C41.222,49.542 29.716,49.764 26.939,49.764 L26.644,49.764 C28.639,40.57 34.851,32.93 43.152,28.969 L43.152,28.969 Z M25.96,56.146 C25.96,55.898 25.964,55.65 25.972,55.403 C26.152,55.405 26.418,55.405 26.763,55.405 C30.503,55.405 43.485,55.096 56.863,51.126 C57.675,52.714 58.448,54.326 59.167,55.937 C58.829,56.034 58.496,56.131 58.165,56.239 C43.102,61.104 34.823,73.983 33.549,76.088 C28.829,70.77 25.96,63.788 25.96,56.146 L25.96,56.146 Z M56.097,86.241 C49.185,86.241 42.806,83.9 37.716,79.975 C38.577,78.287 44.826,67.036 61.333,61.291 C61.343,61.287 61.354,61.283 61.366,61.28 C65.505,72.056 67.258,81.1 67.739,83.903 C64.157,85.409 60.223,86.241 56.097,86.241 L56.097,86.241 Z M73.167,80.936 C72.763,78.617 71.139,70.141 67.391,59.803 C69.493,59.476 71.538,59.347 73.456,59.347 C79.755,59.347 84.682,60.726 85.827,61.076 C84.466,69.285 79.766,76.389 73.167,80.936 L73.167,80.936 Z" id="Shape" fill="#FFFFFF"></path>
                    </g>
                </g>
            </g>
        </g>
    </g>
</svg>