<?xml version="1.0" encoding="UTF-8"?>
<svg width="30px" height="30px" viewBox="0 0 30 30" version="1.1" xmlns="http://www.w3.org/2000/svg" xmlns:xlink="http://www.w3.org/1999/xlink">
    <!-- Generator: sketchtool 53.2 (72643) - https://sketchapp.com -->
    <title>4B5BF914-F4FF-43A5-9FA1-30EC36F0CE99</title>
    <desc>Created with sketchtool.</desc>
    <g id="Symbols" stroke="none" stroke-width="1" fill="none" fill-rule="evenodd">
        <g id="icons/Help">
            <g>
                <circle id="Oval" fill="#E9E9E9" cx="15" cy="15" r="15"></circle>
                <g id="3603" transform="translate(11.000000, 9.000000)" fill="#2E2E2E" fill-rule="nonzero">
                    <path d="M7.14263333,0.891077778 C6.31915556,0.297122222 5.28493333,0 4.04025556,0 C3.09284444,0 2.29392222,0.2093 1.64421111,0.626888889 C0.613888889,1.28136667 0.0660111111,2.39228889 0,3.95951111 L2.38781111,3.95951111 C2.38781111,3.50335556 2.52098889,3.06352222 2.78734444,2.63972222 C3.05398889,2.21621111 3.50595556,2.00474444 4.14353333,2.00474444 C4.7918,2.00474444 5.23842222,2.17663333 5.48267778,2.52012222 C5.72722222,2.86404444 5.84942222,3.24494444 5.84942222,3.66267778 C5.84942222,4.02566667 5.66713333,4.35832222 5.44772222,4.66078889 C5.32696667,4.83701111 5.16778889,4.99907778 4.97004444,5.14742222 C4.97004444,5.14742222 3.6751,5.97797778 3.10671111,6.64502222 C2.77694444,7.03227778 2.74733333,7.61164444 2.7183,8.44321111 C2.71627778,8.50228889 2.73895556,8.62448889 2.94594444,8.62448889 C3.15293333,8.62448889 4.6189,8.62448889 4.80306667,8.62448889 C4.98723333,8.62448889 5.02565556,8.48712222 5.02825556,8.42775556 C5.04125556,8.12471111 5.07534444,7.9703 5.13037778,7.79552222 C5.23481111,7.46532222 5.51864444,7.17686667 5.83714444,6.92928889 L6.49451111,6.47558889 C7.08774444,6.01351111 7.56123333,5.63405556 7.76995556,5.33693333 C8.12702222,4.84784444 8.37777778,4.24565556 8.37777778,3.53065556 C8.37777778,2.36498889 7.96582222,1.48503333 7.14263333,0.891077778 Z M4.00183333,10.0557889 C3.17893333,10.0312333 2.4999,10.6004889 2.4739,11.4931556 C2.44818889,12.3855333 3.094,12.9748667 3.9169,12.9991333 C4.7762,13.0247 5.43688889,12.4737889 5.4626,11.5815556 C5.48831111,10.6888889 4.86113333,10.0812111 4.00183333,10.0557889 Z" id="Shape"></path>
                </g>
            </g>
        </g>
    </g>
</svg>