<?xml version="1.0" encoding="UTF-8"?>
<svg width="54px" height="54px" viewBox="0 0 54 54" version="1.1" xmlns="http://www.w3.org/2000/svg" xmlns:xlink="http://www.w3.org/1999/xlink">
    <!-- Generator: sketchtool 53.2 (72643) - https://sketchapp.com -->
    <title>694B68A6-C0B4-4803-9D28-2433C581753F</title>
    <desc>Created with sketchtool.</desc>
    <g id="Design-2.0" stroke="none" stroke-width="1" fill="none" fill-rule="evenodd">
        <g id="Infoshell-UI-UX-Design-1.0" transform="translate(-120.000000, -3000.000000)">
            <g id="Group-29" transform="translate(0.000000, 2846.000000)">
                <g id="Group-26" transform="translate(120.000000, 152.000000)">
                    <g id="icons/uxui/01" transform="translate(0.000000, 2.000000)">
                        <g>
                            <rect id="Combined-Shape" fill="#FFC225" x="0" y="0" width="54" height="54" rx="6"></rect>
                            <circle id="Oval" fill="#2E2E2E" cx="6" cy="8" r="2"></circle>
                            <circle id="Oval" fill="#2E2E2E" cx="12" cy="8" r="2"></circle>
                            <circle id="Oval" fill="#2E2E2E" cx="18" cy="8" r="2"></circle>
                            <rect id="Combined-Shape" fill="#2E2E2E" x="25" y="9" width="24" height="42" rx="3"></rect>
                            <rect id="Rectangle" fill="#FFC225" fill-rule="nonzero" x="27" y="39" width="19" height="2" rx="1"></rect>
                            <rect id="Rectangle" fill="#FFC225" fill-rule="nonzero" x="27" y="43" width="14" height="2" rx="1"></rect>
                            <rect id="Rectangle" fill="#FFC225" fill-rule="nonzero" x="27" y="31" width="11" height="5" rx="1"></rect>
                            <rect id="Rectangle" fill="#FFC225" fill-rule="nonzero" x="40" y="31" width="6" height="5" rx="1"></rect>
                            <path d="M27.8547021,26.2689447 L32.1353635,22.2736607 C32.903777,21.5564748 34.096223,21.5564748 34.8646365,22.2736607 L41,28 L28.5370203,28 C27.9847356,28 27.5370203,27.5522847 27.5370203,27 C27.5370203,26.7228184 27.652067,26.4580708 27.8547021,26.2689447 Z" id="Path-7" fill="#FFC225" fill-rule="nonzero"></path>
                            <circle id="Oval" fill="#FFC225" fill-rule="nonzero" cx="40" cy="17" r="3"></circle>
                            <path d="M38.956756,26.2538767 L41.9247193,23.6053963 C42.3093826,23.2621396 42.89196,23.2675781 43.270148,23.6179563 L46.1288415,26.2664366 C46.5339774,26.6417809 46.5581282,27.2744852 46.1827839,27.679621 C45.9935348,27.883891 45.7276831,28 45.4492205,28 L39.6225638,28 C39.070279,28 38.6225638,27.5522847 38.6225638,27 C38.6225638,26.7150362 38.7441379,26.4436078 38.956756,26.2538767 Z" id="Path-7" fill="#FFC225" fill-rule="nonzero"></path>
                        </g>
                    </g>
                </g>
            </g>
        </g>
    </g>
</svg>