<?xml version="1.0" encoding="UTF-8"?>
<svg width="54px" height="54px" viewBox="0 0 54 54" version="1.1" xmlns="http://www.w3.org/2000/svg" xmlns:xlink="http://www.w3.org/1999/xlink">
    <!-- Generator: sketchtool 53.2 (72643) - https://sketchapp.com -->
    <title>E1244F47-D1E3-4121-8670-BF3FFAE1A2E6</title>
    <desc>Created with sketchtool.</desc>
    <g id="Design-2.0" stroke="none" stroke-width="1" fill="none" fill-rule="evenodd">
        <g id="Infoshell-UI-UX-Design-1.0" transform="translate(-121.000000, -752.000000)" fill="#FFC225">
            <g id="Group-10" transform="translate(121.000000, 666.000000)">
                <g id="Group-31" transform="translate(0.000000, 86.000000)">
                    <g id="icons/uiux01">
                        <path d="M2,0 L28,0 C29.1045695,-2.02906125e-16 30,0.8954305 30,2 L30,52 C30,53.1045695 29.1045695,54 28,54 L2,54 C0.8954305,54 1.3527075e-16,53.1045695 0,52 L0,2 C-1.3527075e-16,0.8954305 0.8954305,2.02906125e-16 2,0 Z M6,5 C4.8954305,5 4,5.8954305 4,7 L4,40 C4,41.1045695 4.8954305,42 6,42 L24,42 C25.1045695,42 26,41.1045695 26,40 L26,7 C26,5.8954305 25.1045695,5 24,5 L6,5 Z M15,51 C16.6568542,51 18,49.6568542 18,48 C18,46.3431458 16.6568542,45 15,45 C13.3431458,45 12,46.3431458 12,48 C12,49.6568542 13.3431458,51 15,51 Z M10,19 L20,19 C20.5522847,19 21,19.4477153 21,20 C21,20.5522847 20.5522847,21 20,21 L10,21 C9.44771525,21 9,20.5522847 9,20 C9,19.4477153 9.44771525,19 10,19 Z M10,23 L14,23 C14.5522847,23 15,23.4477153 15,24 C15,24.5522847 14.5522847,25 14,25 L10,25 C9.44771525,25 9,24.5522847 9,24 C9,23.4477153 9.44771525,23 10,23 Z M12,16 C10.3431458,16 9,14.6568542 9,13 C9,11.3431458 10.3431458,10 12,10 C13.6568542,10 15,11.3431458 15,13 C15,14.6568542 13.6568542,16 12,16 Z M44.5,16 L40.3012695,20 L40.3012695,16 L37,16 C35.8954305,16 35,15.1045695 35,14 L35,2 C35,0.8954305 35.8954305,2.02906125e-16 37,0 L52,0 C53.1045695,-2.02906125e-16 54,0.8954305 54,2 L54,14 C54,15.1045695 53.1045695,16 52,16 L44.5,16 Z" id="Combined-Shape"></path>
                    </g>
                </g>
            </g>
        </g>
    </g>
</svg>