<?xml version="1.0" encoding="UTF-8"?>
<svg width="54px" height="54px" viewBox="0 0 54 54" version="1.1" xmlns="http://www.w3.org/2000/svg" xmlns:xlink="http://www.w3.org/1999/xlink">
    <!-- Generator: sketchtool 53.2 (72643) - https://sketchapp.com -->
    <title>3FB50258-3086-4497-88DB-582AFAA2269B</title>
    <desc>Created with sketchtool.</desc>
    <g id="Design-2.0" stroke="none" stroke-width="1" fill="none" fill-rule="evenodd">
        <g id="Infoshell-UI-UX-Design-1.0" transform="translate(-531.000000, -3000.000000)">
            <g id="Group-29" transform="translate(0.000000, 2846.000000)">
                <g id="Group-28" transform="translate(530.000000, 152.000000)">
                    <g id="icons/uxui/02" transform="translate(1.000000, 2.000000)">
                        <path d="M6,2.23820962e-13 L47.8300211,2.23820962e-13 C51.1437296,2.23212243e-13 53.8300211,2.6862915 53.8300211,6 L53.8300211,41.23859 C53.8300211,44.5522985 51.1437296,47.23859 47.8300211,47.23859 L6,47.23859 C2.6862915,47.23859 -5.82239231e-13,44.5522985 -5.82645043e-13,41.23859 L-5.82645043e-13,6 C-5.83050856e-13,2.6862915 2.6862915,2.2442968e-13 6,2.23820962e-13 Z M2,50 L52,50 C53.1045695,50 54,50.8954305 54,52 C54,53.1045695 53.1045695,54 52,54 L2,54 C0.8954305,54 1.43461255e-14,53.1045695 1.42108547e-14,52 C1.4075584e-14,50.8954305 0.8954305,50 2,50 Z" id="Combined-Shape" fill="#FFC225"></path>
                        <path d="M6.92469392,7.0247678 C6.09977519,7.0247678 5.43104643,6.35134677 5.43104643,5.52063983 C5.43104643,4.6899329 6.09977519,4.01651187 6.92469392,4.01651187 C7.74961266,4.01651187 8.41834142,4.6899329 8.41834142,5.52063983 C8.41834142,6.35134677 7.74961266,7.0247678 6.92469392,7.0247678 Z M12.1524602,7.0247678 C11.3275414,7.0247678 10.6588127,6.35134677 10.6588127,5.52063983 C10.6588127,4.6899329 11.3275414,4.01651187 12.1524602,4.01651187 C12.9773789,4.01651187 13.6461076,4.6899329 13.6461076,5.52063983 C13.6461076,6.35134677 12.9773789,7.0247678 12.1524602,7.0247678 Z M17.3802264,7.0247678 C16.5553076,7.0247678 15.8865789,6.35134677 15.8865789,5.52063983 C15.8865789,4.6899329 16.5553076,4.01651187 17.3802264,4.01651187 C18.2051451,4.01651187 18.8738739,4.6899329 18.8738739,5.52063983 C18.8738739,6.35134677 18.2051451,7.0247678 17.3802264,7.0247678 Z" id="Combined-Shape" fill="#2E2E2E"></path>
                        <rect id="Rectangle" fill="#2E2E2E" x="9.16377916" y="13.5789474" width="16.2892123" height="13.5087719" rx="2"></rect>
                        <rect id="Rectangle-Copy-6" fill="#2E2E2E" x="28.3275583" y="13.5789474" width="16.2892123" height="2.89473684" rx="1.44736842"></rect>
                        <rect id="Rectangle-Copy-7" fill="#2E2E2E" x="28.3275583" y="19.3684211" width="8.62370062" height="2.89473684" rx="1.44736842"></rect>
                        <rect id="Rectangle-Copy-8" fill="#2E2E2E" x="9.16377916" y="31.9824561" width="35.4529915" height="2.89473684" rx="1.44736842"></rect>
                        <rect id="Rectangle-Copy-8" fill="#2E2E2E" x="9.16377916" y="38.9824561" width="35.4529915" height="2.89473684" rx="1.44736842"></rect>
                    </g>
                </g>
            </g>
        </g>
    </g>
</svg>