<?xml version="1.0" encoding="UTF-8"?>
<svg width="54px" height="54px" viewBox="0 0 54 54" version="1.1" xmlns="http://www.w3.org/2000/svg" xmlns:xlink="http://www.w3.org/1999/xlink">
    <!-- Generator: sketchtool 53.2 (72643) - https://sketchapp.com -->
    <title>88176711-828C-4726-960E-EE0A7FBA515E</title>
    <desc>Created with sketchtool.</desc>
    <g id="Design-2.0" stroke="none" stroke-width="1" fill="none" fill-rule="evenodd">
        <g id="Infoshell-UI-UX-Design-1.0" transform="translate(-940.000000, -752.000000)" fill="#FFC225">
            <g id="Group-10" transform="translate(121.000000, 666.000000)">
                <g id="Group-34" transform="translate(818.000000, 86.000000)">
                    <g id="icons/uiux03" transform="translate(1.000000, 0.000000)">
                        <g>
                            <g id="822459" transform="translate(-0.000000, 0.000000)" fill-rule="nonzero">
                                <path d="M23.0655463,1.67625408 C22.8597387,0.686417423 21.977706,-0.0192087114 20.9682686,0.000392014519 L8.42380399,0.000392014519 C7.41436661,-0.0192087114 6.53233394,0.686417423 6.33632668,1.67625408 L4.66046461,8.57570962 L24.7904102,8.57570962 L23.0655463,1.67625408 Z" id="Path"></path>
                                <path d="M4.61146279,45.3270708 L6.32652632,52.2265263 C6.53233394,53.216363 7.40456624,53.9219891 8.41400363,53.9023884 L20.9584682,53.9023884 C21.9679056,53.9219891 22.8499383,53.216363 23.0459456,52.2265263 L24.7218076,45.3270708 L4.61146279,45.3270708 Z" id="Path"></path>
                                <path d="M23.0557459,12.3194483 L6.33632668,12.3194483 C2.87679855,12.3194483 0.0640943739,15.1321525 0.0640943739,18.5916806 L0.0640943739,35.3209002 C0.0640943739,38.7804283 2.87679855,41.5931325 6.33632668,41.5931325 L23.0655463,41.5931325 C26.5250744,41.5931325 29.3377786,38.7804283 29.3377786,35.3209002 L29.3377786,18.5916806 C29.3279782,15.1223521 26.5250744,12.3194483 23.0557459,12.3194483 Z M8.42380399,29.0388675 C7.26736116,29.0388675 6.33632668,28.0980327 6.33632668,26.9513902 C6.33632668,25.7949474 7.27716152,24.8639129 8.42380399,24.8639129 C9.58024682,24.8639129 10.5112813,25.8047477 10.5112813,26.9513902 C10.5112813,28.107833 9.58024682,29.0388675 8.42380399,29.0388675 Z M14.6960363,29.0388675 C13.5395935,29.0388675 12.608559,28.0980327 12.608559,26.9513902 C12.608559,25.7949474 13.5493938,24.8639129 14.6960363,24.8639129 C15.8524791,24.8639129 16.7835136,25.8047477 16.7835136,26.9513902 C16.7835136,28.107833 15.8524791,29.0388675 14.6960363,29.0388675 Z M20.9682686,29.0388675 C19.8118258,29.0388675 18.8807913,28.0980327 18.8807913,26.9513902 C18.8807913,25.7949474 19.8216261,24.8639129 20.9682686,24.8639129 C22.1247114,24.8639129 23.0557459,25.8047477 23.0557459,26.9513902 C23.0557459,28.107833 22.1247114,29.0388675 20.9682686,29.0388675 Z" id="Shape"></path>
                            </g>
                            <circle id="Oval" cx="45" cy="14" r="9"></circle>
                            <circle id="Oval-Copy-2" cx="37.5" cy="28.5" r="3.5"></circle>
                        </g>
                    </g>
                </g>
            </g>
        </g>
    </g>
</svg>