<?xml version="1.0" encoding="UTF-8"?>
<svg width="160px" height="160px" viewBox="0 0 160 160" version="1.1" xmlns="http://www.w3.org/2000/svg" xmlns:xlink="http://www.w3.org/1999/xlink">
    <!-- Generator: sketchtool 53.2 (72643) - https://sketchapp.com -->
    <title>05E12CFD-9962-4C31-AE1F-CAA0CEAA3328</title>
    <desc>Created with sketchtool.</desc>
    <g id="Design-2.0" stroke="none" stroke-width="1" fill="none" fill-rule="evenodd">
        <g id="Infoshell-UI-UX-Design-1.0" transform="translate(-367.000000, -2521.000000)">
            <g id="Group-32" transform="translate(0.000000, 2112.000000)">
                <g id="process" transform="translate(122.000000, 249.000000)">
                    <g id="icons/Workprocess02" transform="translate(245.000000, 160.000000)">
                        <circle id="Oval-Copy" fill="#963AE7" cx="80" cy="80" r="80"></circle>
                        <g id="69474" transform="translate(63.000000, 60.000000)" fill="#FFFFFF" fill-rule="nonzero">
                            <rect id="Rectangle" x="8.90416667" y="10.0283333" width="17.1841667" height="2.5"></rect>
                            <rect id="Rectangle" x="8.90416667" y="16.02" width="17.1841667" height="2.5"></rect>
                            <path d="M33.3458333,0 L1.67916667,0 C1.21833333,0 0.845833333,0.3725 0.845833333,0.833333333 L0.845833333,28.6025 C0.836666667,28.6825 0.821666667,28.76 0.821666667,28.8441667 C0.821666667,32.9375 3.88916667,36.3208333 7.845,36.835 L7.82083333,36.8525 L32.5133333,40 C33.4333333,40 34.18,39.2541667 34.18,38.3333333 L34.18,0.833333333 C34.1791667,0.3725 33.805,0 33.3458333,0 Z M30.0125,35.1725 L13.4791667,25.4766667 C13.0908333,25.2291667 12.7758333,25.4016667 12.7758333,25.8633333 L12.7758333,28.715 L12.7758333,28.7025 C12.7725,28.7508333 12.7758333,28.7941667 12.7758333,28.8441667 C12.7758333,30.9941667 11.0366667,32.7433333 8.88666667,32.7433333 C6.73666667,32.7433333 5.0125,31.1358333 5.0125,28.9866667 C5.0125,28.9108333 5.02,28.8033333 5.0125,28.7291667 L5.0125,28.6216667 L5.0125,4.16666667 L30.0125,4.16666667 L30.0125,35.1725 L30.0125,35.1725 Z" id="Shape"></path>
                        </g>
                    </g>
                </g>
            </g>
        </g>
    </g>
</svg>