<?xml version="1.0" encoding="UTF-8"?>
<svg width="160px" height="160px" viewBox="0 0 160 160" version="1.1" xmlns="http://www.w3.org/2000/svg" xmlns:xlink="http://www.w3.org/1999/xlink">
    <!-- Generator: sketchtool 53.2 (72643) - https://sketchapp.com -->
    <title>D5E855E1-0D48-44EC-B755-95168949532A</title>
    <desc>Created with sketchtool.</desc>
    <g id="Design-2.0" stroke="none" stroke-width="1" fill="none" fill-rule="evenodd">
        <g id="Infoshell-UI-UX-Design-1.0" transform="translate(-1126.000000, -2361.000000)">
            <g id="Group-32" transform="translate(0.000000, 2112.000000)">
                <g id="process" transform="translate(122.000000, 249.000000)">
                    <g id="icons/Workprocess05" transform="translate(1004.000000, 0.000000)">
                        <circle id="Oval-Copy-5" fill="#FFC225" cx="80" cy="80" r="80"></circle>
                        <g id="126795" transform="translate(56.000000, 60.000000)">
                            <path d="M24.179446,32.4021012 C24.0364544,32.4506731 23.8875709,32.4747908 23.7385741,32.4747908 C23.5890107,32.4747908 23.4395607,32.4503366 23.2962292,32.4016525 L11.7116428,28.4568959 L5.33333333,30.6213183 L23.7392539,36.8888889 L42.2222222,30.6169435 L35.8423264,28.4444444 L24.179446,32.4021012 Z" id="Path"></path>
                            <path d="M24.1795568,25.2909305 C24.0365661,25.3395031 23.8876835,25.3636211 23.7386876,25.3636211 C23.5891252,25.3636211 23.4396761,25.3391665 23.2963454,25.2904818 L11.7118303,21.3456728 L5.33333333,23.510124 L23.7393674,29.7777778 L42.2222222,23.5057491 L35.842139,21.3333333 L24.1795568,25.2909305 Z" id="Path"></path>
                            <path d="M24.179446,18.179879 C24.0364544,18.2284509 23.8875709,18.2525686 23.7385741,18.2525686 C23.5890107,18.2525686 23.4395607,18.2281144 23.2962292,18.1794303 L11.7116428,14.2346737 L5.33333333,16.3990961 L23.7392539,22.6666667 L42.2222222,16.3947213 L35.8423264,14.2222222 L24.179446,18.179879 Z" id="Path"></path>
                            <path d="M47.9999999,16.3755512 C47.9995465,16.9558389 47.6302608,17.471927 47.0806395,17.6599969 L40.2581486,19.9959806 L47.0819996,22.3405696 C47.6315076,22.5293189 48.0001132,23.0458599 47.9998865,23.6261476 C47.9994332,24.2065486 47.6302608,24.7226368 47.0807528,24.9108198 L40.2582619,27.2468036 L47.082113,29.5913926 C47.631621,29.7800286 48.0002266,30.2965696 47.9999999,30.8769706 C47.9995465,31.4572584 47.6303742,31.9733465 47.0808662,32.1615295 L24.4018732,39.926629 C24.2588289,39.975543 24.1097771,40 23.9608386,40 C23.8112201,40 23.6618283,39.9754298 23.5183306,39.9261761 L0.917773982,32.1610766 C0.368379334,31.9724407 -0.000452971906,31.4558996 4.17529364e-07,30.8754986 C0.000227112247,30.2952109 0.36939946,29.7791228 0.91913415,29.5909397 L7.74173837,27.2549559 L0.917773982,24.9103669 C0.368379334,24.7216177 -0.000452971906,24.2050767 4.17529364e-07,23.6246757 C0.000227112247,23.0443879 0.369512807,22.528413 0.919020803,22.34023 L7.74173837,20.0043594 L0.917773982,17.6597704 C0.368379334,17.4710212 -0.000452971906,16.9544802 4.17529364e-07,16.3740792 C0.000227112247,15.7937914 0.36939946,15.2777033 0.91913415,15.0895202 L7.74173837,12.7536497 L0.917773982,10.4090607 C0.368379334,10.2203115 -0.000452971906,9.70377047 4.17529364e-07,9.12348271 C0.000227112247,8.54308172 0.36939946,8.0269936 0.919020803,7.83881053 L23.5977871,0.0734846365 C23.8839891,-0.0247962954 24.1951276,-0.0243433879 24.4813297,0.073937544 L47.0819996,7.83903698 C47.6315076,8.02778619 48.0001132,8.54432722 47.9998865,9.12461498 C47.9994332,9.70501596 47.6302608,10.2211041 47.0807528,10.4092872 L40.2582619,12.7452709 L47.082113,15.0898599 C47.631621,15.2786091 48.0002266,15.7951502 47.9999999,16.3755512 Z M42.4511933,30.8740267 L36.0690569,28.6811617 L24.4017599,32.6759193 C24.2587155,32.7248333 24.1096637,32.7492903 23.9607253,32.7492903 C23.8111068,32.7492903 23.661715,32.72472 23.5182172,32.6754664 L11.9293565,28.6937299 L5.54869367,30.8784425 L23.9614054,37.204768 L42.4511933,30.8740267 Z M42.4511933,23.623317 L36.0688302,21.4305652 L24.4017599,25.4252095 C24.2587155,25.4741236 24.1096637,25.4985806 23.9607253,25.4985806 C23.8111068,25.4985806 23.661715,25.4740103 23.5182172,25.4247566 L11.9293565,21.4430202 L5.54846698,23.6277328 L23.9614054,29.9540583 L42.4511933,23.623317 Z M23.9614054,22.7033486 L42.4513066,16.3726073 L36.0690569,14.1797423 L24.4017599,18.1744998 C24.2587155,18.2234138 24.1096637,18.2478708 23.9607253,18.2478708 C23.8111068,18.2478708 23.661715,18.2231874 23.5182172,18.1740469 L11.9293565,14.1923104 L5.54869367,16.3770231 L23.9614054,22.7033486 Z" id="Combined-Shape" fill="#FFFFFF" fill-rule="nonzero"></path>
                        </g>
                    </g>
                </g>
            </g>
        </g>
    </g>
</svg>