<?xml version="1.0" encoding="UTF-8"?>
<svg width="160px" height="160px" viewBox="0 0 160 160" version="1.1" xmlns="http://www.w3.org/2000/svg" xmlns:xlink="http://www.w3.org/1999/xlink">
    <!-- Generator: sketchtool 53.2 (72643) - https://sketchapp.com -->
    <title>1D9F314D-CB58-41CF-974A-28118D1B72AE</title>
    <desc>Created with sketchtool.</desc>
    <g id="Design-2.0" stroke="none" stroke-width="1" fill="none" fill-rule="evenodd">
        <g id="Infoshell-UI-UX-Design-1.0" transform="translate(-122.000000, -2361.000000)">
            <g id="Group-32" transform="translate(0.000000, 2112.000000)">
                <g id="process" transform="translate(122.000000, 249.000000)">
                    <g id="icons/Workprocess01">
                        <circle id="Oval" fill="#FD4949" cx="80" cy="80" r="80"></circle>
                        <g id="Group-7" transform="translate(53.000000, 64.000000)">
                            <g id="70376" transform="translate(0.000000, 11.943576)" fill="#FFFFFF" fill-rule="nonzero">
                                <path d="M30.2413228,26.4861755 L23.5067316,19.8073649 C23.4709403,19.7718694 23.4289567,19.7470593 23.3915553,19.7140202 C24.7167016,17.7204976 25.4901163,15.3341904 25.4901163,12.7679491 C25.4901163,5.78711936 19.7839376,0.128099174 12.7450582,0.128099174 C5.70617869,0.128099174 0,5.78711936 0,12.7678263 C0,19.7484104 5.70605484,25.4075534 12.7449343,25.4075534 C15.3326848,25.4075534 17.738754,24.6405305 19.7488894,23.3263359 C19.7822038,23.3633053 19.8070967,23.4049419 19.8428881,23.4404374 L26.5776032,30.1194937 C27.5892966,31.1227032 29.2295056,31.1227032 30.2413228,30.1194937 C31.2528924,29.1161614 31.2528924,27.4895078 30.2413228,26.4861755 Z M12.7450582,21.0257584 C8.14618157,21.0257584 4.4181861,17.3285728 4.4181861,12.7678263 C4.4181861,8.20695692 8.14630541,4.50977134 12.7450582,4.50977134 C17.3436871,4.50977134 21.0718064,8.20707975 21.0718064,12.7678263 C21.0718064,17.3285728 17.3436871,21.0257584 12.7450582,21.0257584 Z" id="Shape"></path>
                            </g>
                            <polyline id="Path-4" stroke="#FFFFFF" stroke-width="4" stroke-linecap="round" points="21.8098958 8.62456597 29.2178819 3.01980663e-14 38.6883681 17.7456597 50.3016493 17.7456597"></polyline>
                        </g>
                    </g>
                </g>
            </g>
        </g>
    </g>
</svg>