<?xml version="1.0" encoding="UTF-8"?>
<svg width="160px" height="160px" viewBox="0 0 160 160" version="1.1" xmlns="http://www.w3.org/2000/svg" xmlns:xlink="http://www.w3.org/1999/xlink">
    <!-- Generator: sketchtool 53.2 (72643) - https://sketchapp.com -->
    <title>5A881C30-C764-4DCE-84F5-C6EB16F88FA8</title>
    <desc>Created with sketchtool.</desc>
    <g id="Design-2.0" stroke="none" stroke-width="1" fill="none" fill-rule="evenodd">
        <g id="Infoshell-UI-UX-Design-1.0" transform="translate(-871.000000, -2521.000000)">
            <g id="Group-32" transform="translate(0.000000, 2112.000000)">
                <g id="process" transform="translate(122.000000, 249.000000)">
                    <g id="icons/Workprocess04" transform="translate(749.000000, 160.000000)">
                        <circle id="Oval-Copy-4" fill="#097AFF" cx="80" cy="80" r="80"></circle>
                        <g id="1587213" transform="translate(80.500000, 80.500000) scale(-1, 1) translate(-80.500000, -80.500000) translate(57.000000, 57.000000)" fill="#FFFFFF" fill-rule="nonzero">
                            <rect id="Rectangle" x="41.125" y="13.7083333" width="5.875" height="2.61111111"></rect>
                            <rect id="Rectangle" x="0" y="13.7083333" width="5.875" height="2.61111111"></rect>
                            <polygon id="Rectangle" transform="translate(42.137707, 4.769908) rotate(45.000000) translate(-42.137707, -4.769908) " points="40.7609049 2.01538517 43.5145093 2.01538517 43.5145093 7.52443 40.7609049 7.52443"></polygon>
                            <polygon id="Rectangle" transform="translate(4.862183, 25.522538) rotate(45.000000) translate(-4.862183, -25.522538) " points="3.4853805 22.7680155 6.23898496 22.7680155 6.23898496 28.2770603 3.4853805 28.2770603"></polygon>
                            <polygon id="Rectangle" transform="translate(4.862081, 4.770330) rotate(-135.000000) translate(-4.862081, -4.770330) " points="2.10755907 3.39352735 7.61660389 3.39352735 7.61660389 6.1471318 2.10755907 6.1471318"></polygon>
                            <polygon id="Rectangle" transform="translate(42.138397, 25.522565) rotate(135.000000) translate(-42.138397, -25.522565) " points="40.7615946 22.7680424 43.515199 22.7680424 43.515199 28.2770872 40.7615946 28.2770872"></polygon>
                            <rect id="Rectangle" x="15.0138889" y="35.9027778" width="16.3194444" height="2.61111111"></rect>
                            <path d="M30.0277778,17.625 C30.0277778,16.9046815 29.4425407,16.3194444 28.7222222,16.3194444 C28.0019037,16.3194444 27.4166667,16.9046815 27.4166667,17.625 C27.4166667,18.3453185 28.0019037,18.9305556 28.7222222,18.9305556 C29.4425407,18.9305556 30.0277778,18.3453185 30.0277778,17.625 Z" id="Path"></path>
                            <path d="M34.8086957,25.595928 C36.5453316,23.1981882 38.5138889,20.4821431 38.5138889,15.2586806 C38.5138889,5.28172292 30.8823174,0 23.3440058,0 C14.8741869,0 8.48611111,6.61607141 8.48611111,15.3074159 C8.48611111,20.4306334 10.475959,23.3065711 12.2312468,25.8438584 C13.7606182,28.0546101 15.0810874,30.0030973 15.2737033,33.2916667 L19.4069821,33.2916667 L19.4069821,21.9389309 C18.9779866,22.0943845 18.5229692,22.1944444 18.0422031,22.1944444 C15.7844946,22.1944444 13.9478659,20.3277067 13.9478659,18.0329861 C13.9478659,15.7382655 15.7844946,13.8715278 18.0422031,13.8715278 C20.2999116,13.8715278 22.1365402,15.7382655 22.1365402,18.0329861 L22.1365402,33.2916667 L24.8660983,33.2916667 L24.8660983,18.0329861 C24.8660983,15.7382655 26.702727,13.8715278 28.9604355,13.8715278 C31.218144,13.8715278 33.0547727,15.7382655 33.0547727,18.0329861 C33.0547727,20.3277067 31.218144,22.1944444 28.9604355,22.1944444 C28.4796693,22.1944444 28.024652,22.0943845 27.5956565,21.9389309 L27.5956565,33.2916667 L31.7242951,33.2916667 C31.8966212,29.658991 33.2445679,27.7528581 34.8086957,25.595928 Z" id="Path"></path>
                            <path d="M27.2861111,47 L27.2861111,44.0625 C27.2861111,42.4953911 28.5163883,41.125 30.0277778,41.125 L16.3194444,41.125 C17.8308339,41.125 19.0611111,42.4953911 19.0611111,44.0625 L19.0611111,47 L27.2861111,47 Z" id="Path"></path>
                            <path d="M16.9722222,17.625 C16.9722222,18.3453185 17.5574593,18.9305556 18.2777778,18.9305556 C18.9980963,18.9305556 19.5833333,18.3453185 19.5833333,17.625 C19.5833333,16.9046815 18.9980963,16.3194444 18.2777778,16.3194444 C17.5574593,16.3194444 16.9722222,16.9046815 16.9722222,17.625 Z" id="Path"></path>
                        </g>
                    </g>
                </g>
            </g>
        </g>
    </g>
</svg>