<?xml version="1.0" encoding="UTF-8"?>
<svg width="24px" height="24px" viewBox="0 0 24 24" version="1.1" xmlns="http://www.w3.org/2000/svg" xmlns:xlink="http://www.w3.org/1999/xlink">
    <!-- Generator: sketchtool 52.5 (67469) - http://www.bohemiancoding.com/sketch -->
    <title>75C88CB1-B1B2-4B49-AD15-A1999AB85A7B</title>
    <desc>Created with sketchtool.</desc>
    <g id="Design-2.0" stroke="none" stroke-width="1" fill="none" fill-rule="evenodd" opacity="0.800000012">
        <g id="Mobile-Menu" transform="translate(-220.000000, -548.000000)" fill="#FFFFFF">
            <g id="Group" transform="translate(76.000000, 548.000000)">
                <g id="Social/Navigationbar/Bh(Normal)" transform="translate(144.000000, 0.000000)">
                    <path d="M12,24 C18.627417,24 24,18.627417 24,12 C24,5.372583 18.627417,0 12,0 C5.372583,0 0,5.372583 0,12 C0,18.627417 5.372583,24 12,24 Z M14.2268211,7.92004211 L17.9662737,7.92004211 L17.9662737,8.85023158 L14.2268211,8.85023158 L14.2268211,7.92004211 Z M10.6641263,16.1616842 C10.1488,16.4158316 9.50286316,16.4954526 8.89671579,16.4954526 L4.53406316,16.4954526 L4.53406316,7.32471579 C4.53406316,7.32471579 8.73861053,7.32471579 9.33393684,7.32471579 C9.92926316,7.32471579 11.7681263,7.67818947 11.7785263,9.4456 C11.7856,10.6675368 11.0938947,11.2260211 10.5160421,11.4935579 C10.5160421,11.4935579 12.0408421,11.9478737 12.1617684,13.2966737 C12.2826947,14.6454316 12.0408421,15.4826105 10.6641263,16.1616842 Z M19.4344842,13.6314947 L14.6361263,13.6314947 L14.6249684,13.6314947 C14.5803368,14.6919158 15.3542737,15.3229895 16.2342316,15.3229895 C16.8578526,15.3229895 17.4059368,14.9922105 17.7218105,14.4314947 L19.2960842,14.4314947 C18.8640842,16.008 17.5949053,16.664 16.0965474,16.664 C14.1338105,16.664 12.7385263,15.0897263 12.7385263,13.1478316 C12.7385263,11.2059368 14.2421053,9.63166316 16.0965474,9.63166316 C17.9509895,9.63166316 19.4546105,11.2059368 19.4546105,13.1478316 C19.4546105,13.3156211 19.4479158,13.4770947 19.4344842,13.6314947 Z M9.83625263,9.95717895 C9.83625263,11.0362105 8.61768421,11.0083368 8.61768421,11.0083368 L6.55263158,11.0083368 L6.55263158,8.90606316 L8.61768421,8.90606316 C8.61768421,8.90606316 9.83625263,8.87814737 9.83625263,9.95717895 Z M16.104,11.0269053 C16.8481684,11.0269053 17.4654316,11.5839158 17.5830316,12.4575579 L14.6249684,12.4575579 C14.7425684,11.5839158 15.3598316,11.0269053 16.104,11.0269053 Z M8.74345263,12.4311579 C8.74345263,12.4311579 10.1968,12.3976842 10.1968,13.6847158 C10.1968,14.9717474 8.74345263,14.9382737 8.74345263,14.9382737 L6.55263158,14.9382737 L6.55263158,12.4311579 L8.74345263,12.4311579 Z" id="Combined-Shape"></path>
                </g>
            </g>
        </g>
    </g>
</svg>