<?xml version="1.0" encoding="UTF-8"?>
<svg width="24px" height="24px" viewBox="0 0 24 24" version="1.1" xmlns="http://www.w3.org/2000/svg" xmlns:xlink="http://www.w3.org/1999/xlink">
    <!-- Generator: sketchtool 52.5 (67469) - http://www.bohemiancoding.com/sketch -->
    <title>560C79D2-DC39-4900-A413-82D0BEB42F61</title>
    <desc>Created with sketchtool.</desc>
    <g id="Design-2.0" stroke="none" stroke-width="1" fill="none" fill-rule="evenodd" opacity="0.800000012">
        <g id="Mobile-Menu" transform="translate(-172.000000, -548.000000)" fill="#FFFFFF">
            <g id="Group" transform="translate(76.000000, 548.000000)">
                <g id="Social/Navigationbar/Dr(Normal)" transform="translate(96.000000, 0.000000)">
                    <path d="M12,24 C5.372583,24 0,18.627417 0,12 C0,5.372583 5.372583,0 12,0 C18.627417,0 24,5.372583 24,12 C24,18.627417 18.627417,24 12,24 Z M8.03322929,17.7535333 C9.34159026,15.9001936 11.152121,14.5485891 13.1964003,13.8193536 C13.6830569,15.3770357 14.004322,16.9950346 14.1249663,18.6343945 C13.4474543,18.8483743 12.7485575,19 12.0029358,19 C10.5272055,19 9.15852232,18.537159 8.03322929,17.7535333 Z M12.6726603,12.3608209 C10.3831368,13.1737098 8.36030408,14.6691611 6.86318908,16.7208613 C5.71453357,15.4742712 5,13.8270707 5,11.9951537 C5.72232106,12.0944265 6.45236781,12.1857353 7.17468888,12.1857353 C8.89955721,12.1857353 10.5817179,11.8066094 12.1333454,11.1220096 C12.3299487,11.5323126 12.5051674,11.9349602 12.6726603,12.3608209 Z M15.8810465,6.16880173 C15.0302317,7.33957904 13.988747,8.29631475 12.8088797,9.02555023 C12.0632579,7.68758957 11.1735057,6.43525791 10.1708349,5.27225944 C10.7627463,5.11279319 11.3642994,5 12.0029358,5 C13.4416446,5 14.7713284,5.43178741 15.8810465,6.16880173 Z M11.4169577,9.73157266 C9.4933846,10.5599575 7.33433252,10.810856 5.19666515,10.4161107 C5.65414958,8.45578099 6.93908625,6.83006496 8.6562907,5.88876346 C9.72119973,7.06528229 10.6421019,8.35663164 11.4169577,9.73157266 Z M14.6954312,13.3934312 C16.0484776,13.1191962 17.4638857,13.126975 18.8715063,13.4011483 C18.4743441,15.3380797 17.2575789,16.9716363 15.6163334,17.967328 C15.4644773,16.4096459 15.1587872,14.8830793 14.6954312,13.3934312 Z M13.5176035,10.4082701 C14.8784374,9.5953812 16.0874769,8.50831904 17.0764887,7.18782991 C18.230954,8.40910795 18.9610007,10.0426646 19,11.8434663 C17.3645642,11.5557109 15.7291903,11.563428 14.1639656,11.911562 C13.9653227,11.4039617 13.7532062,10.9022882 13.5176035,10.4082701 Z" id="Combined-Shape"></path>
                </g>
            </g>
        </g>
    </g>
</svg>