<?xml version="1.0" encoding="UTF-8"?>
<svg width="24px" height="24px" viewBox="0 0 24 24" version="1.1" xmlns="http://www.w3.org/2000/svg" xmlns:xlink="http://www.w3.org/1999/xlink">
    <!-- Generator: sketchtool 52.5 (67469) - http://www.bohemiancoding.com/sketch -->
    <title>E9AC7437-F302-4805-94E4-D3D20605C2EB</title>
    <desc>Created with sketchtool.</desc>
    <g id="Symbols" stroke="none" stroke-width="1" fill="none" fill-rule="evenodd">
        <g id="icons/menuClose" fill="#FFFFFF" fill-rule="nonzero">
            <g id="icons/menu" transform="translate(-5.000000, -5.000000)">
                <path d="M15.5,15.5 L15.5,6.5 C15.5,5.67157288 16.1715729,5 17,5 C17.8284271,5 18.5,5.67157288 18.5,6.5 L18.5,15.5 L27.5,15.5 C28.3284271,15.5 29,16.1715729 29,17 C29,17.8284271 28.3284271,18.5 27.5,18.5 L18.5,18.5 L18.5,27.5 C18.5,28.3284271 17.8284271,29 17,29 C16.1715729,29 15.5,28.3284271 15.5,27.5 L15.5,18.5 L6.5,18.5 C5.67157288,18.5 5,17.8284271 5,17 C5,16.1715729 5.67157288,15.5 6.5,15.5 L15.5,15.5 Z" transform="translate(17.000000, 17.000000) rotate(-315.000000) translate(-17.000000, -17.000000) "></path>
            </g>
        </g>
    </g>
</svg>