<?xml version="1.0" encoding="UTF-8"?>
<svg width="46px" height="46px" viewBox="0 0 46 46" version="1.1" xmlns="http://www.w3.org/2000/svg" xmlns:xlink="http://www.w3.org/1999/xlink">
    <!-- Generator: sketchtool 52.5 (67469) - http://www.bohemiancoding.com/sketch -->
    <title>A1FE7359-3267-4631-9713-C244BE914856</title>
    <desc>Created with sketchtool.</desc>
    <g id="Symbols" stroke="none" stroke-width="1" fill="none" fill-rule="evenodd">
        <g id="icons/attachFile">
            <g>
                <rect id="Rectangle" fill="#01C56B" fill-rule="nonzero" x="0" y="0" width="46" height="46" rx="2"></rect>
                <g id="177" transform="translate(8.000000, 9.000000)" fill="#FFFFFF">
                    <path d="M22.5621729,11.3133614 C22.5621729,11.3133614 23.7891729,10.3803614 22.8551729,9.44736142 C21.9211729,8.51436142 21.0131729,9.71836142 21.0131729,9.71836142 L11.6241729,19.1093614 C11.6241729,19.1093614 9.42517286,21.9473614 7.75317286,20.2313614 C6.08317286,18.5133614 8.87417286,16.3593614 8.87417286,16.3593614 L21.1851729,4.04936142 C21.1851729,4.04936142 24.0581729,0.884361416 26.7591729,3.58336142 C29.4561729,6.28336142 26.2821729,9.16236142 26.2821729,9.16236142 L12.4491729,22.9953614 C12.4491729,22.9953614 8.02317286,28.1083614 3.92617286,24.0103614 C-0.170827136,19.9123614 4.99217286,15.5363614 4.99217286,15.5363614 L15.4941729,5.03136142 C15.4941729,5.03136142 16.6701729,4.04936142 15.7891729,3.16536142 C14.9041729,2.28236142 13.9241729,3.46036142 13.9241729,3.46036142 L1.87317286,15.5113614 C1.87317286,15.5113614 -2.67582714,20.5003614 2.40417286,25.5793614 C7.48417286,30.6613614 12.4761729,26.1123614 12.4761729,26.1123614 L29.0391729,9.54736142 C29.0391729,9.54736142 32.3531729,5.89236142 28.4021729,1.93936142 C24.4511729,-2.01363858 20.7951729,1.30036142 20.7951729,1.30036142 L6.54317286,15.5503614 C6.54317286,15.5503614 2.89317286,18.5193614 6.20517286,21.8293614 C9.51717286,25.1433614 12.4321729,21.4393614 12.4321729,21.4393614 L22.5621729,11.3133614 Z" id="Path"></path>
                </g>
            </g>
        </g>
    </g>
</svg>