<?xml version="1.0" encoding="UTF-8"?>
<svg width="54px" height="54px" viewBox="0 0 54 54" version="1.1" xmlns="http://www.w3.org/2000/svg" xmlns:xlink="http://www.w3.org/1999/xlink">
    <!-- Generator: sketchtool 52.5 (67469) - http://www.bohemiancoding.com/sketch -->
    <title>11C86F6D-ABDF-4EC2-8605-E81D1D3B0FCC</title>
    <desc>Created with sketchtool.</desc>
    <g id="Symbols" stroke="none" stroke-width="1" fill="none" fill-rule="evenodd">
        <g id="icons/Order/01">
            <g id="icons/Services/01"></g>
            <g id="709835" transform="translate(1.000000, 2.000000)">
                <g id="Group"></g>
            </g>
            <path d="M17.0853511,24.5420526 C17.0781085,24.1641804 17.0744502,23.784236 17.0744502,23.4023846 C17.0744502,8.92569467 22.3325366,-2.80998125 28.8187147,-2.80998125 C35.3048929,-2.80998125 40.5629792,8.92569467 40.5629792,23.4023846 C40.5629792,23.784236 40.559321,24.1641804 40.5520783,24.5420526 L40.5629792,24.5420526 C41.3972991,25.0820928 42.0637031,25.5145957 42.5621912,25.8395612 C42.9396852,26.0856503 43.6790725,26.5687638 44.7803529,27.2889016 C45.5223358,27.7740913 46.0117272,28.5626123 46.1171918,29.4428536 L48.0011455,45.1669761 C48.0208844,45.3317234 47.99932,45.4987934 47.9383958,45.6531293 C47.7356036,46.1668505 47.1547547,46.4189084 46.6410334,46.2161162 L46.6410429,46.2160922 C41.642198,44.2427916 38.5127148,42.7164521 37.2525934,41.6370738 C36.5553584,41.0398454 36.0881644,40.5254593 35.8510116,40.0939154 C35.4996128,39.4544798 34.8278807,39.0571456 34.0982513,39.0571456 L23.8656156,39.0571364 C23.2171464,39.0571364 22.6089254,39.3715352 22.233928,39.9005809 L22.2339402,39.9005895 C21.9006224,40.3708337 21.2857358,40.9496618 20.3892804,41.6370738 C18.9828434,42.7155454 15.6181248,44.2390809 10.2951244,46.2076805 C10.1427689,46.2640259 9.97898099,46.2824095 9.81792536,46.2612414 C9.270329,46.1892687 8.88475981,45.6870088 8.95673246,45.1394124 L10.9971536,29.6153774 C11.124763,28.6444754 11.7182019,27.796963 12.5869096,27.3449875 L12.586903,27.3449747 C13.990595,26.6146549 14.8752005,26.1128504 15.2407197,25.8395612 C15.714551,25.4852897 16.3257945,25.0527868 17.0744502,24.5420526 L17.0853511,24.5420526 Z M28.8187147,18.8437122 C32.0618038,18.8437122 34.690847,16.2924783 34.690847,13.1453718 C34.690847,9.99826535 32.0618038,7.44703146 28.8187147,7.44703146 C25.5756256,7.44703146 22.9465825,9.99826535 22.9465825,13.1453718 C22.9465825,16.2924783 25.5756256,18.8437122 28.8187147,18.8437122 Z M29.056817,42.1900188 C29.5659439,42.1900188 30.0692001,42.2987494 30.5329152,42.5089361 C32.3314727,43.3241626 33.1286199,45.4430532 32.313401,47.2416141 C32.150546,47.6009059 31.979491,47.9713232 31.8002361,48.3528661 C30.0017624,52.1809059 29.8719662,56.5043254 28.4480918,56.319848 C27.0242174,56.1353706 23.0374469,50.9477427 22.9547469,48.3528661 C22.9285137,47.5297459 22.9798348,46.6331898 23.1087103,45.6631976 C23.3728472,43.6751489 25.0683555,42.1900105 27.0738743,42.1900105 L29.056817,42.1900188 Z" id="Combined-Shape" fill="#2e2e2e" fill-rule="nonzero" transform="translate(28.478169, 26.757786) rotate(-330.000000) translate(-28.478169, -26.757786) "></path>
        </g>
    </g>
</svg>