<?xml version="1.0" encoding="UTF-8"?>
<svg width="54px" height="54px" viewBox="0 0 54 54" version="1.1" xmlns="http://www.w3.org/2000/svg" xmlns:xlink="http://www.w3.org/1999/xlink">
    <!-- Generator: sketchtool 52.5 (67469) - http://www.bohemiancoding.com/sketch -->
    <title>AC0AD37B-BB7E-4E22-A9B4-CD3DA021F6EB</title>
    <desc>Created with sketchtool.</desc>
    <g id="Symbols" stroke="none" stroke-width="1" fill="none" fill-rule="evenodd">
        <g id="icons/Order/05">
            <g id="icons/Services/01"></g>
            <g id="48641" transform="translate(3.000000, 4.000000)" fill="#2e2e2e" fill-rule="nonzero">
                <path d="M30.2004706,12.4143134 C29.0936471,11.7857761 27.9854118,11.1579403 26.8785882,10.528 C28.6171765,10.056597 30.3571765,9.74232836 31.9383529,9.42876119 C32.5708235,10.999403 33.0451765,12.5714478 33.3621176,14.4570597 C32.4148235,13.6720896 31.3065882,13.0428507 30.2004706,12.4143134 Z M7.27341176,23.5701493 C8.38023529,22.3130746 9.48635294,21.056 10.752,19.7989254 C10.5938824,21.056 10.5938824,22.3130746 10.5938824,23.5701493 C10.5938824,24.8265224 10.5938824,26.0842985 10.752,27.3406716 C9.48705882,26.0842985 8.22211765,24.8272239 7.27341176,23.5701493 Z M34.4696471,9.27162687 C34.7851765,9.11519403 35.1028235,9.11519403 35.4183529,9.27232836 C39.3691765,9.27232836 42.0592941,10.3715672 43.3235294,12.4143134 C44.748,14.7727313 44.1148235,18.0725522 41.7437647,21.6859403 C40.3214118,19.9567612 38.4225882,18.2289851 36.3670588,16.499806 C35.8927059,13.8278209 35.2595294,11.4715075 34.4696471,9.27162687 Z M40.1618824,23.5701493 C39.0557647,24.8272239 37.9482353,26.085 36.6825882,27.3406716 C36.8407059,26.0842985 36.8407059,24.8272239 36.8407059,23.5701493 C36.8407059,22.3130746 36.8407059,21.056 36.6825882,19.7989254 C37.9475294,21.056 39.2124706,22.3130746 40.1618824,23.5701493 Z M23.7176471,35.3545224 C21.9783529,34.5702537 20.0816471,33.7852836 18.3416471,32.6832388 C16.6030588,31.584 15.0225882,30.4819552 13.4414118,29.3834179 C13.1251765,27.496403 12.9670588,25.4536567 12.9670588,23.4109104 C12.9670588,21.3695672 13.1251765,19.3254179 13.4414118,17.439806 C14.8630588,16.1834328 16.6023529,15.084194 18.3416471,14.1406866 C20.0823529,13.0400448 21.9783529,12.2543731 23.7176471,11.4687015 C25.6143529,12.2550746 27.3543529,13.1978806 29.0936471,14.1406866 C30.8329412,15.2399254 32.4141176,16.3405672 33.9952941,17.439806 C34.3094118,19.4825522 34.4696471,21.3695672 34.4696471,23.4109104 C34.4696471,25.4536567 34.3094118,27.497806 33.9952941,29.3834179 C32.5729412,30.641194 30.8329412,31.7397313 29.0936471,32.6832388 C27.3543529,33.7852836 25.4569412,34.5702537 23.7176471,35.3545224 Z M23.7176471,37.8686716 C26.0887059,38.8135821 28.6185882,39.5985522 30.8329412,39.9114179 C28.9369412,43.5276119 26.4070588,45.8846269 23.7176471,45.8846269 C21.0296471,45.8846269 18.4997647,43.6833433 16.6023529,39.9114179 C18.8174118,39.4400149 21.3472941,38.8135821 23.7176471,37.8686716 Z M12.9663529,37.8686716 C12.6494118,38.0265075 12.3331765,38.0265075 12.0176471,37.8679701 C8.06611765,37.8679701 5.37811765,36.7680299 4.11317647,34.7259851 C2.68870588,32.3668657 3.32258824,29.0677463 5.69294118,25.4536567 C7.27411765,27.1828358 9.01341176,29.0698507 11.0689412,30.641194 C11.5418824,33.3138806 12.1757647,35.6694925 12.9663529,37.8686716 Z M11.2270588,16.3419701 C9.17152941,18.0711493 7.43223529,19.7989254 5.85105882,21.527403 C3.47929412,17.7561791 3.00494118,14.4570597 4.26988235,12.2564776 C5.53482353,10.2130299 8.38094118,9.11449254 12.1757647,9.11449254 C12.492,9.11449254 12.8082353,9.11449254 13.1244706,9.11449254 C12.1757647,11.3136716 11.7014118,13.6713881 11.2270588,16.3419701 Z M23.7176471,9.27162687 C21.3465882,8.3288209 18.8167059,7.54174627 16.6023529,7.2288806 C18.4997647,3.61479104 21.0296471,1.25707463 23.7176471,1.25707463 C26.4063529,1.25707463 28.9355294,3.45765672 30.8329412,7.2288806 C28.6185882,7.70028358 26.0887059,8.3281194 23.7176471,9.27162687 Z M17.2348235,34.7273881 C18.3409412,35.3545224 19.4484706,35.9837612 20.5567059,36.4558657 C18.8174118,36.9265672 17.0767059,37.2415373 15.4969412,37.5551045 C15.0225882,36.141597 14.3887059,34.4138209 14.0724706,32.6846418 C15.0211765,33.4696119 16.128,34.0988507 17.2348235,34.7273881 Z M14.0724706,40.2270896 C15.3374118,43.054806 17.076,45.2553881 19.1308235,46.669597 C14.0710588,45.7288955 9.48564706,43.056209 6.16658824,39.2856866 C7.74776471,40.0706567 9.80329412,40.3849254 12.1750588,40.3849254 C12.8075294,40.3849254 13.44,40.2270896 14.0724706,40.2270896 Z M12.0162353,6.75747761 C9.80329412,6.75747761 7.74776471,7.2281791 5.85035294,7.85741791 C9.17082353,4.24332836 13.7562353,1.57274627 18.8152941,0.472104478 C16.9178824,1.88631343 15.3367059,4.08689552 13.9136471,6.91461194 C13.2811765,6.75747761 12.6487059,6.75747761 12.0162353,6.75747761 Z M3.95294118,24.0415522 C2.37105882,26.5557015 1.42305882,28.9134179 1.26494118,30.9540597 C0.474352941,28.5984478 -2.1360691e-13,26.2414328 -2.1360691e-13,23.5701493 C-2.1360691e-13,20.8988657 0.474352941,18.5418507 1.10682353,16.1862388 C1.42305882,18.2275821 2.37176471,20.584597 3.95294118,23.0987463 C4.11105882,23.2558806 4.11105882,23.4116119 4.26917647,23.5701493 C4.11247059,23.7286866 4.11247059,23.8837164 3.95294118,24.0415522 Z M35.4183529,40.3828209 C37.632,40.3828209 39.6882353,39.9121194 41.5849412,39.2849851 C38.2637647,42.8969701 33.6783529,45.5696567 28.6185882,46.6688955 C30.5152941,45.2546866 32.0964706,43.0527015 33.5209412,40.2256866 C34.1534118,40.3828209 34.7858824,40.3828209 35.4183529,40.3828209 Z M43.1647059,34.7273881 C42.0592941,36.7701343 39.2131765,38.0265075 35.1028235,37.8707761 C34.7865882,37.8707761 34.4703529,37.8707761 34.1541176,37.8707761 C34.9447059,35.670194 35.5750588,33.3145821 36.0515294,30.6418955 C38.1049412,29.0698507 39.8456471,27.1849403 41.4261176,25.4557612 C43.7971765,29.0705522 44.5898824,32.3710746 43.1647059,34.7273881 Z M30.2004706,34.7273881 C31.3072941,34.0981493 32.4141176,33.4696119 33.3628235,32.6846418 C33.0451765,34.4131194 32.5722353,36.1394925 31.9397647,37.5551045 C30.3585882,37.3993731 28.6185882,36.9279701 26.88,36.4558657 C27.9854118,35.9837612 29.0936471,35.3552239 30.2004706,34.7273881 Z M17.2348235,12.4143134 C16.128,13.0428507 15.0218824,13.6720896 14.0710588,14.4570597 C14.3887059,12.7285821 14.8630588,11.000806 15.4955294,9.58659701 C17.0752941,9.74232836 18.816,10.2137313 20.5552941,10.6851343 C19.4484706,11.1579403 18.3402353,11.7857761 17.2348235,12.4143134 Z M33.3628235,6.91461194 C32.0985882,4.08689552 30.3585882,1.88561194 28.3044706,0.470701493 C33.3642353,1.41350746 37.9496471,4.08549254 41.2687059,7.85531343 C39.6868235,7.07034328 37.6305882,6.75677612 35.2602353,6.75677612 C34.6284706,6.75677612 33.9952941,6.91461194 33.3628235,6.91461194 Z M46.1710588,16.1862388 C46.9602353,18.5418507 47.4345882,20.8988657 47.4345882,23.5701493 C47.4345882,26.085 46.9602353,28.5991493 46.1710588,30.9540597 C45.8541176,28.7569851 44.748,26.0842985 43.0094118,23.5701493 C43.1661176,23.4116119 43.1661176,23.2558806 43.3242353,23.0987463 C45.0642353,20.7417313 46.0115294,18.3854179 46.1710588,16.1862388 Z" id="Combined-Shape"></path>
            </g>
        </g>
    </g>
</svg>