<?xml version="1.0" encoding="UTF-8"?>
<svg width="144px" height="95px" viewBox="0 0 144 95" version="1.1" xmlns="http://www.w3.org/2000/svg" xmlns:xlink="http://www.w3.org/1999/xlink">
    <!-- Generator: sketchtool 52.5 (67469) - http://www.bohemiancoding.com/sketch -->
    <title>C462C5AE-6CA3-4D5E-BE22-2BD21EC358EA</title>
    <desc>Created with sketchtool.</desc>
    <g id="Design-2.0" stroke="none" stroke-width="1" fill="none" fill-rule="evenodd">
        <g id="0-Infoshell-Home-page-1.0" transform="translate(-720.000000, -600.000000)" fill-rule="nonzero">
            <g id="Group-8" transform="translate(0.000000, 599.000000)">
                <g id="06" transform="translate(719.193929, 0.586207)">
                    <g id="Group-29" transform="translate(11.000000, 35.000000)">
                        <path d="M30.9034151,18.2753988 L28.8537645,18.2753988 L28.5029234,15.9533268 L26.010105,15.9533268 L25.6592639,18.2753988 L23.7942664,18.2753988 L25.8623824,5.47657691 L28.8352991,5.47657691 L30.9034151,18.2753988 Z M26.2686195,14.2163439 L28.2259435,14.2163439 L27.2472815,7.74379679 L26.2686195,14.2163439 Z M34.7688223,18.2753988 L32.737637,18.2753988 L32.737637,5.47657691 L34.7688223,5.47657691 L34.7688223,10.9617863 L37.0769875,10.9617863 L37.0769875,5.47657691 L39.1451034,5.47657691 L39.1451034,18.2753988 L37.0769875,18.2753988 L37.0769875,12.7901894 L34.7688223,12.7901894 L34.7688223,18.2753988 Z M47.3867918,19.9940978 L47.3867918,18.2753988 L43.0474413,18.2753988 L43.0474413,19.9940978 L41.0716519,19.9940978 L41.0716519,16.4835638 L41.8656607,16.4835638 C42.0380046,16.2641543 42.158028,16.0264643 42.2257345,15.7704865 C42.293441,15.5145088 42.3396038,15.1975888 42.3642244,14.8197169 L42.8258574,5.47657691 L48.5131764,5.47657691 L48.5131764,16.4835638 L49.3995118,16.4835638 L49.3995118,19.9940978 L47.3867918,19.9940978 Z M44.3584791,14.7831488 C44.3338585,15.2707255 44.2753856,15.6364024 44.1830585,15.8801907 C44.0907315,16.123979 43.958398,16.3251014 43.7860541,16.4835638 L46.4450604,16.4835638 L46.4450604,7.30498004 L44.7277855,7.30498004 L44.3584791,14.7831488 Z M57.2041874,18.2753988 L55.1730021,18.2753988 L55.1730021,5.47657691 L61.5804686,5.47657691 L61.5804686,18.2753988 L59.5123526,18.2753988 L59.5123526,7.30498004 L57.2041874,7.30498004 L57.2041874,18.2753988 Z M66.9415668,5.47657691 C67.9633196,5.47657691 68.7234678,5.74474002 69.2220339,6.28107429 C69.7206001,6.81740856 69.9698794,7.60361404 69.9698794,8.63971433 L69.9698794,10.3035612 C69.9698794,11.3396615 69.7206001,12.1258669 69.2220339,12.6622012 C68.7234678,13.1985355 67.9633196,13.4666986 66.9415668,13.4666986 L65.9813701,13.4666986 L65.9813701,18.2753988 L63.9501847,18.2753988 L63.9501847,5.47657691 L66.9415668,5.47657691 Z M65.9813701,7.30498004 L65.9813701,11.6382955 L66.9415668,11.6382955 C67.2616339,11.6382955 67.5078358,11.5529708 67.6801796,11.382319 C67.8525235,11.2116672 67.9386941,10.8947472 67.9386941,10.4315494 L67.9386941,8.51172611 C67.9386941,8.04852833 67.8525235,7.73160829 67.6801796,7.56095648 C67.5078358,7.39030467 67.2616339,7.30498004 66.9415668,7.30498004 L65.9813701,7.30498004 Z M73.6690987,15.3316698 C73.6690987,15.7948676 73.7645019,16.1209295 73.9553112,16.3098655 C74.1461205,16.4988014 74.4015549,16.5932679 74.721622,16.5932679 C75.0416892,16.5932679 75.2971236,16.4988014 75.4879329,16.3098655 C75.6787422,16.1209295 75.7741454,15.7948676 75.7741454,15.3316698 L75.7741454,8.42030595 C75.7741454,7.95710818 75.6787422,7.63104621 75.4879329,7.44211028 C75.2971236,7.25317434 75.0416892,7.15870779 74.721622,7.15870779 C74.4015549,7.15870779 74.1461205,7.25317434 73.9553112,7.44211028 C73.7645019,7.63104621 73.6690987,7.95710818 73.6690987,8.42030595 L73.6690987,15.3316698 Z M71.6379134,8.54829417 C71.6379134,7.51219388 71.9025804,6.71684648 72.4319222,6.16222809 C72.9612641,5.6076097 73.7244897,5.33030466 74.721622,5.33030466 C75.7187544,5.33030466 76.48198,5.6076097 77.0113219,6.16222809 C77.5406637,6.71684648 77.8053307,7.51219388 77.8053307,8.54829417 L77.8053307,15.2036816 C77.8053307,16.2397819 77.5406637,17.0351293 77.0113219,17.5897477 C76.48198,18.144366 75.7187544,18.4216711 74.721622,18.4216711 C73.7244897,18.4216711 72.9612641,18.144366 72.4319222,17.5897477 C71.9025804,17.0351293 71.6379134,16.2397819 71.6379134,15.2036816 L71.6379134,8.54829417 Z M85.8808311,19.9940978 L85.8808311,18.2753988 L81.5414806,18.2753988 L81.5414806,19.9940978 L79.5656913,19.9940978 L79.5656913,16.4835638 L80.3597001,16.4835638 C80.5320439,16.2641543 80.6520673,16.0264643 80.7197738,15.7704865 C80.7874804,15.5145088 80.8336432,15.1975888 80.8582637,14.8197169 L81.3198968,5.47657691 L87.0072157,5.47657691 L87.0072157,16.4835638 L87.8935511,16.4835638 L87.8935511,19.9940978 L85.8808311,19.9940978 Z M82.8525184,14.7831488 C82.8278979,15.2707255 82.769425,15.6364024 82.6770979,15.8801907 C82.5847708,16.123979 82.4524373,16.3251014 82.2800935,16.4835638 L84.9390997,16.4835638 L84.9390997,7.30498004 L83.2218249,7.30498004 L82.8525184,14.7831488 Z M95.765933,10.6509578 L98.1664248,5.47657691 L100.19761,5.47657691 L97.7047918,10.6692418 L100.19761,18.2753988 L98.1110288,18.2753988 L96.2644967,12.6073491 L95.765933,13.5764028 L95.765933,18.2753988 L93.753213,18.2753988 L93.753213,13.5764028 L93.2546493,12.5890651 L91.4081172,18.2753988 L89.3215359,18.2753988 L91.8328196,10.7240939 L89.3215359,5.47657691 L91.3527213,5.47657691 L93.753213,10.6509578 L93.753213,5.47657691 L95.765933,5.47657691 L95.765933,10.6509578 Z M103.989156,10.8703661 L106.77742,10.8703661 L106.77742,12.6987693 L103.989156,12.6987693 L103.989156,16.4469957 L107.497567,16.4469957 L107.497567,18.2753988 L101.957971,18.2753988 L101.957971,5.47657691 L107.497567,5.47657691 L107.497567,7.30498004 L103.989156,7.30498004 L103.989156,10.8703661 Z M112.304706,13.1741541 L111.676885,14.3443321 L111.676885,18.2753988 L109.645699,18.2753988 L109.645699,5.47657691 L111.676885,5.47657691 L111.676885,11.0532065 L114.335891,5.47657691 L116.367076,5.47657691 L113.541882,11.1811947 L116.367076,18.2753988 L114.280495,18.2753988 L112.304706,13.1741541 Z M117.591943,5.47657691 L123.870152,5.47657691 L123.870152,7.30498004 L121.74664,7.30498004 L121.74664,18.2753988 L119.715454,18.2753988 L119.715454,7.30498004 L117.591943,7.30498004 L117.591943,5.47657691 Z" id="АНД-ПРОДЖЕКТ" fill="#2E2E2E"></path>
                        <rect id="Rectangle" fill="#282828" x="0" y="0" width="18.1956155" height="21.6465517"></rect>
                        <path d="M2.79932546,3.23547708 L6.88026981,3.23547708 L6.88026981,7.35700777 L2.79932546,7.35700777 L2.79932546,3.23547708 Z M8.54974705,3.23547708 L12.6306914,3.23547708 L12.6306914,7.35700777 L8.54974705,7.35700777 L8.54974705,3.23547708 Z M14.1146712,3.23547708 L18.1956155,3.23547708 L18.1956155,7.35700777 L14.1146712,7.35700777 L14.1146712,3.23547708 Z M2.79932546,8.85574621 L6.88026981,8.85574621 L6.88026981,12.9772769 L2.79932546,12.9772769 L2.79932546,8.85574621 Z M8.54974705,8.85574621 L12.6306914,8.85574621 L12.6306914,12.9772769 L8.54974705,12.9772769 L8.54974705,8.85574621 Z M14.1146712,8.85574621 L18.1956155,8.85574621 L18.1956155,12.9772769 L14.1146712,12.9772769 L14.1146712,8.85574621 Z M2.79932546,14.4760153 L6.88026981,14.4760153 L6.88026981,18.597546 L2.79932546,18.597546 L2.79932546,14.4760153 Z M8.54974705,14.4760153 L12.6306914,14.4760153 L12.6306914,18.597546 L8.54974705,18.597546 L8.54974705,14.4760153 Z M14.1146712,14.4760153 L18.1956155,14.4760153 L18.1956155,18.597546 L14.1146712,18.597546 L14.1146712,14.4760153 Z" id="Combined-Shape" fill="#FFFFFF"></path>
                    </g>
                </g>
            </g>
        </g>
    </g>
</svg>