<?xml version="1.0" encoding="UTF-8"?>
<svg width="107px" height="107px" viewBox="0 0 107 107" version="1.1" xmlns="http://www.w3.org/2000/svg" xmlns:xlink="http://www.w3.org/1999/xlink">
    <!-- Generator: sketchtool 52.5 (67469) - http://www.bohemiancoding.com/sketch -->
    <title>DC0E621D-78BF-4A58-9303-9AFCEE989881</title>
    <desc>Created with sketchtool.</desc>
    <g id="Symbols" stroke="none" stroke-width="1" fill="none" fill-rule="evenodd">
        <g id="Разделы/Услуги" transform="translate(-514.000000, -168.000000)" fill="#FFFFFF" fill-rule="nonzero">
            <g transform="translate(-1.000000, -1.000000)" id="Разработка-Android-приложений">
                <g transform="translate(427.000000, 122.000000)">
                    <g id="icons/Platforms/Ios" transform="translate(88.000000, 47.000000)">
                        <path d="M32.7430613,74.3116723 C32.7430613,76.394394 34.1340341,77.7828751 36.2204933,77.7828751 L39.6979252,77.7828751 L39.6979252,89.9320848 C39.6979252,92.709047 42.1321276,95.1388889 44.9140732,95.1388889 C47.6960188,95.1388889 50.1302212,92.709047 50.1302212,89.9320848 L50.1302212,77.7828751 L57.0850852,77.7828751 L57.0850852,89.9320848 C57.0850852,92.709047 59.5192876,95.1388889 62.3012332,95.1388889 C65.0831787,95.1388889 67.5173811,92.709047 67.5173811,89.9320848 L67.5173811,77.7828751 L70.9948131,77.7828751 C73.0812723,77.7828751 74.4722451,76.394394 74.4722451,74.3116723 L74.4722451,39.5996448 L32.7430613,39.5996448 L32.7430613,74.3116723 Z M24.0494813,39.5996448 C21.2675357,39.5996448 18.8333333,42.0296228 18.8333333,44.8064489 L18.8333333,69.1048682 C18.8333333,71.8818304 21.2675357,74.3116723 24.0494813,74.3116723 C26.8314269,74.3116723 29.2656293,71.8818304 29.2656293,69.1048682 L29.2656293,44.8064489 C29.2656293,42.0294867 26.8314269,39.5996448 24.0494813,39.5996448 Z M83.1658251,39.5996448 C80.3838795,39.5996448 77.9496771,42.0296228 77.9496771,44.8064489 L77.9496771,69.1048682 C77.9496771,71.8818304 80.3838795,74.3116723 83.1658251,74.3116723 C85.9477707,74.3116723 88.381973,71.8818304 88.381973,69.1048682 L88.381973,44.8064489 C88.381973,42.0294867 85.9477707,39.5996448 83.1658251,39.5996448 Z M65.7786651,19.4666688 L70.2993267,14.9541052 C70.9948131,14.2598647 70.9948131,13.2185038 70.2993267,12.5242633 C69.603704,11.8298866 68.5606107,11.8298866 67.864988,12.5242633 L62.64884,17.7310674 C60.2146376,15.995466 57.0849488,15.3010894 53.6075168,15.3010894 C50.1300848,15.3010894 47.000396,15.995466 44.2184505,17.383811 L39.3500457,12.1770069 C38.6545593,11.8298866 37.2635865,11.8298866 36.5681001,12.1770069 C36.2203569,12.8713836 36.2203569,14.2598647 36.5681001,14.9539691 L41.0887617,19.4665327 C36.2203569,23.2848557 32.7429249,29.1857643 32.7429249,36.1281698 L74.4721087,36.1281698 C74.4722451,29.1860365 70.9948131,22.9378715 65.7786651,19.4666688 Z M46.6527892,29.1860365 L43.1753572,29.1860365 L43.1753572,25.7148338 L46.6527892,25.7148338 L46.6527892,29.1860365 Z M64.0399491,29.1860365 L60.5625172,29.1860365 L60.5625172,25.7148338 L64.0399491,25.7148338 L64.0399491,29.1860365 Z" id="Shape"></path>
                    </g>
                </g>
            </g>
        </g>
    </g>
</svg>