<?xml version="1.0" encoding="UTF-8"?>
<svg width="100px" height="100px" viewBox="0 0 100 100" version="1.1" xmlns="http://www.w3.org/2000/svg" xmlns:xlink="http://www.w3.org/1999/xlink">
    <!-- Generator: sketchtool 52.5 (67469) - http://www.bohemiancoding.com/sketch -->
    <title>5EDAF047-022F-4088-9705-DD38A71BB07F</title>
    <desc>Created with sketchtool.</desc>
    <g id="Symbols" stroke="none" stroke-width="1" fill="none" fill-rule="evenodd">
        <g id="icons/Questions/9" fill="#FFC225" fill-rule="nonzero">
            <g id="icons/Questions/1">
                <g id="655628" transform="translate(20.000000, 22.000000)">
                    <path d="M29.9065421,10.5777778 C26.9816695,10.5777778 24.6105919,8.20986157 24.6105919,5.28888889 C24.6105919,2.36791621 26.9816695,1.77635684e-15 29.9065421,1.77635684e-15 C32.8314146,1.77635684e-15 35.2024922,2.36791621 35.2024922,5.28888889 C35.2024922,8.20986157 32.8314146,10.5777778 29.9065421,10.5777778 Z M38.4379918,7.15555556 C41.5716578,7.85689891 43.9251169,10.6612173 43.9252336,14.0175374 L43.9252336,21.0576976 C43.9252336,22.998202 42.3525651,24.5777778 40.4205462,24.5777778 C38.4885272,24.5777778 36.9158587,22.998202 36.9158587,21.0576976 L36.9158587,17.5376175 L22.8972254,17.5376175 L22.8972254,21.0576976 C22.8972254,22.998202 21.3245569,24.5777778 19.392538,24.5777778 C17.460519,24.5777778 15.8878505,22.998202 15.8878505,21.0576976 L15.8878505,14.0175374 C15.8878505,10.6612173 18.2411929,7.85689891 21.3749757,7.15555556 C22.2585878,11.0754823 25.7404001,14.0175374 29.9064837,14.0175374 C34.0725673,14.0175374 37.5543796,11.0754823 38.4379918,7.15555556 Z M57.0987395,42.7094421 C59.6101888,44.1696607 60.5874659,47.4036728 59.1373467,49.9329339 C57.6874606,52.4620777 54.3591461,53.328723 51.8476968,51.8683869 C49.3360143,50.4082857 48.4755488,47.1740388 49.9255515,44.6448951 C51.3756707,42.1155165 54.587057,41.249106 57.0987395,42.7094421 Z M53.840417,31.0051195 C56.7230707,32.6612674 57.9594569,36.0654171 57.0010135,39.1013412 C53.1944413,37.9257492 48.9338145,39.4626258 46.8590664,43.0390307 C44.7843183,46.6154355 45.577112,51.0560081 48.5034739,53.7486945 C46.3407281,56.092706 42.7603694,56.7292054 39.8777157,55.0730575 L33.8317919,51.5991497 C32.1651814,50.6416241 31.5918591,48.5123241 32.5540223,46.8537469 C33.5161856,45.1951696 35.6557986,44.6246107 37.3224091,45.5821362 L40.3454872,47.3190323 L47.3269541,35.2851211 L44.303876,33.548225 C42.6372655,32.5906995 42.0639432,30.4613995 43.0261064,28.8028222 C43.9882697,27.1442449 46.1278827,26.573686 47.7944932,27.5312116 L53.840417,31.0051195 Z M9.88753609,44.6449048 C11.3375316,47.174008 10.4770704,50.4080857 7.96540015,51.8683983 C5.45396307,53.3287109 2.12566486,52.4620796 0.675785874,49.9329763 C-0.774442842,47.4036383 0.202946029,44.1696781 2.7143831,42.7094829 C5.22605334,41.2490528 8.43742395,42.1155668 9.88753609,44.6449048 Z M27.2590567,46.8536727 C28.2212219,48.5121324 27.6478984,50.6415456 25.9814009,51.5990701 L19.9354651,55.0730896 C17.0528056,56.7292356 13.4724399,56.0926212 11.3096897,53.7487281 C14.2360575,51.0559291 15.0288528,46.6154774 12.9541006,43.0390766 C10.8793484,39.4626758 6.61859686,37.9256853 2.81213333,39.1013917 C1.85357177,36.0653554 3.08996041,32.6612095 5.97261983,31.0050635 L12.0185556,27.5311597 C13.6850532,26.5737509 15.8247867,27.1441934 16.7869519,28.8027688 C17.7490008,30.4612285 17.1757935,32.5906417 15.5091798,33.5481662 L12.4860956,35.2850603 L19.4675763,47.3189576 L22.4906605,45.5820635 C24.157158,44.6246548 26.2968915,45.1950973 27.2590567,46.8536727 Z" id="Combined-Shape"></path>
                </g>
            </g>
        </g>
    </g>
</svg>