<?xml version="1.0" encoding="UTF-8"?>
<svg width="100px" height="100px" viewBox="0 0 100 100" version="1.1" xmlns="http://www.w3.org/2000/svg" xmlns:xlink="http://www.w3.org/1999/xlink">
    <!-- Generator: sketchtool 52.5 (67469) - http://www.bohemiancoding.com/sketch -->
    <title>D5ADC008-9453-4D32-A61F-F0C98B6D33F1</title>
    <desc>Created with sketchtool.</desc>
    <g id="Symbols" stroke="none" stroke-width="1" fill="none" fill-rule="evenodd">
        <g id="icons/Questions/6" fill="#FFC225" fill-rule="nonzero">
            <g id="icons/Questions/1">
                <g id="Group-7" transform="translate(20.000000, 20.000000)">
                    <path d="M31.5,46.6672623 C34.505983,47.3493561 36.75,50.0376189 36.75,53.25 C36.75,56.9779221 33.7279221,60 30,60 C26.2720779,60 23.25,56.9779221 23.25,53.25 C23.25,50.0376189 25.494017,47.3493561 28.5,46.6672623 L28.5,39 L27,39 C25.7573593,39 24.75,37.9926407 24.75,36.75 L24.75,34.353795 C24.22309,34.1675591 23.7090489,33.9540807 23.2095689,33.7150523 L21.5147186,35.4099026 C20.636039,36.2885822 19.2114178,36.2885822 18.3327381,35.4099026 L17.2369213,34.3140858 L12.5457772,38.5380109 C13.1517195,39.5502496 13.5,40.7344522 13.5,42 C13.5,45.7279221 10.4779221,48.75 6.75,48.75 C3.02207794,48.75 0,45.7279221 0,42 C0,38.2720779 3.02207794,35.25 6.75,35.25 C8.12564726,35.25 9.40517992,35.6615155 10.4722113,36.3681598 L15.1126898,32.1898542 L14.0900974,31.1672619 C13.2114178,30.2885822 13.2114178,28.863961 14.0900974,27.9852814 L15.7849477,26.2904311 C15.5459193,25.7909511 15.3324409,25.27691 15.146205,24.75 L12.75,24.75 C11.5073593,24.75 10.5,23.7426407 10.5,22.5 L10.5,16.5 C10.5,15.2573593 11.5073593,14.25 12.75,14.25 L15.146205,14.25 C15.3324409,13.72309 15.5459193,13.2090489 15.7849477,12.7095689 L14.0900974,11.0147186 C13.2114178,10.136039 13.2114178,8.71141777 14.0900974,7.83273811 L18.3327381,3.59009742 C19.2114178,2.71141777 20.636039,2.71141777 21.5147186,3.59009742 L23.2095689,5.28494768 C23.7090489,5.04591927 24.22309,4.83244091 24.75,4.64620497 L24.75,2.25 C24.75,1.00735931 25.7573593,-1.54808745e-15 27,-1.77635684e-15 L33,-8.8817842e-16 C34.2426407,-1.11644781e-15 35.25,1.00735931 35.25,2.25 L35.25,4.64620497 C35.77691,4.83244091 36.2909511,5.04591927 36.7904311,5.28494768 L38.4852814,3.59009742 C39.363961,2.71141777 40.7885822,2.71141777 41.6672619,3.59009742 L45.9099026,7.83273811 C46.7885822,8.71141777 46.7885822,10.136039 45.9099026,11.0147186 L44.2150523,12.7095689 C44.4540807,13.2090489 44.6675591,13.72309 44.853795,14.25 L47.25,14.25 C48.4926407,14.25 49.5,15.2573593 49.5,16.5 L49.5,22.5 C49.5,23.7426407 48.4926407,24.75 47.25,24.75 L44.853795,24.75 C44.6675591,25.27691 44.4540807,25.7909511 44.2150523,26.2904311 L45.9099026,27.9852814 C46.7885822,28.863961 46.7885822,30.2885822 45.9099026,31.1672619 L44.8492424,32.2279221 L49.6563922,37.0350719 C50.696979,36.3793627 51.9291871,36 53.25,36 C56.9779221,36 60,39.0220779 60,42.75 C60,46.4779221 56.9779221,49.5 53.25,49.5 C49.5220779,49.5 46.5,46.4779221 46.5,42.75 C46.5,41.4291871 46.8793627,40.196979 47.5350719,39.1563922 L42.7279221,34.3492424 L41.6672619,35.4099026 C40.7885822,36.2885822 39.363961,36.2885822 38.4852814,35.4099026 L36.7904311,33.7150523 C36.2909511,33.9540807 35.77691,34.1675591 35.25,34.353795 L35.25,36.75 C35.25,37.9926407 34.2426407,39 33,39 L31.5,39 L31.5,46.6672623 Z M30,24.75 C27.1005051,24.75 24.75,22.3994949 24.75,19.5 C24.75,16.6005051 27.1005051,14.25 30,14.25 C32.8994949,14.25 35.25,16.6005051 35.25,19.5 C35.25,22.3994949 32.8994949,24.75 30,24.75 Z M30,28.5 C34.9705627,28.5 39,24.4705627 39,19.5 C39,14.5294373 34.9705627,10.5 30,10.5 C25.0294373,10.5 21,14.5294373 21,19.5 C21,24.4705627 25.0294373,28.5 30,28.5 Z" id="Combined-Shape"></path>
                </g>
            </g>
        </g>
    </g>
</svg>