<?xml version="1.0" encoding="UTF-8"?>
<svg width="107px" height="107px" viewBox="0 0 107 107" version="1.1" xmlns="http://www.w3.org/2000/svg" xmlns:xlink="http://www.w3.org/1999/xlink">
    <!-- Generator: sketchtool 52.5 (67469) - http://www.bohemiancoding.com/sketch -->
    <title>33FD657C-4060-46E6-BED2-BE8B4E759471</title>
    <desc>Created with sketchtool.</desc>
    <g id="Symbols" stroke="none" stroke-width="1" fill="none" fill-rule="evenodd">
        <g id="Разделы/Услуги" transform="translate(-820.000000, -168.000000)">
            <g transform="translate(-1.000000, -1.000000)" id="Создание-сложных-веб-сервисов">
                <g transform="translate(733.000000, 122.000000)">
                    <g id="icons/Services/03" transform="translate(88.000000, 47.000000)">
                        <g id="icons/Platforms/Ios"></g>
                        <path d="M95.9342903,81.65978 C96.0311304,81.9827552 96.0831442,82.3254381 96.0833333,82.6801752 C96.0833333,84.6207054 94.5284055,86.1944444 92.6093813,86.1944444 C92.6086247,86.1944444 92.6073007,86.1944444 92.6061659,86.1944444 L16.3352614,86.1944444 C15.2652909,86.1944444 14.2552782,85.6958227 13.5970676,84.8428466 C12.9386679,83.9902531 12.7054571,82.8778253 12.9647694,81.8281557 L18.1756029,60.743688 C18.2559878,60.41746 18.3829014,60.1132357 18.5434821,59.8331197 C18.2472874,59.0038693 18.0851936,58.1103299 18.0851936,57.1792887 L18.0851936,22.7018712 C18.0851936,18.3784418 21.5619827,14.8611111 25.8363794,14.8611111 L83.105237,14.8611111 C87.3792553,14.8611111 90.8560445,18.3786331 90.8560445,22.7018712 L90.8560445,57.1796713 C90.8560445,58.1105212 90.6937616,59.0040606 90.3983234,59.8333111 C90.5585258,60.1132357 90.6848719,60.4178427 90.7652569,60.7440707 L95.9342903,81.65978 Z M63.2741852,80.700421 C63.6528454,80.700421 63.9600103,80.3900739 63.9594429,80.0066365 C63.9594429,79.9427302 63.9507424,79.8809287 63.9346654,79.8218059 L62.5743636,72.1830966 C62.5159191,71.8528506 62.2316402,71.6125325 61.899887,71.6125325 L47.041162,71.6125325 C46.7094087,71.6125325 46.4251299,71.8524679 46.366307,72.1830966 L44.9946568,79.8834161 C44.9585308,80.0860409 45.0131926,80.2942146 45.1435107,80.4514928 C45.2734505,80.6091537 45.4663743,80.700421 45.6695117,80.700421 L63.2711589,80.700421 C63.2724829,80.7008037 63.2734286,80.700421 63.2741852,80.700421 Z M84.0859329,57.1796713 L84.086122,22.7018712 C84.086122,22.1544588 83.6456127,21.7092198 83.1048587,21.7092198 L25.8361902,21.7092198 C25.2948688,21.7092198 24.8543595,22.1544588 24.8543595,22.7018712 L24.8543595,57.1796713 C24.8543595,57.580329 25.0909749,57.9256906 25.4299155,58.0822035 L83.5109443,58.0822035 C83.8495067,57.9253079 84.0859329,57.580329 84.0859329,57.1796713 Z M57.8910142,39.2624222 L63.0801851,44.4513016 C63.4917902,44.8631082 63.4917902,45.530452 63.0801851,45.9422586 L61.7755734,47.2467006 C61.3637745,47.6585072 60.6966369,47.6585072 60.2850318,47.2467006 L55.095667,42.0578212 L54.4890197,44.2820421 C54.3690086,44.7225433 53.9791179,45.0356637 53.5227268,45.0575724 C53.0667235,45.079675 52.6483326,44.8053312 52.4862498,44.3784018 L48.5962619,34.1224012 C48.4493016,33.7344422 48.5431391,33.2964614 48.8366719,33.0031171 C49.1300108,32.7099666 49.5681772,32.6159336 49.9559352,32.7628966 L60.2117456,36.6529566 C60.6382793,36.8148486 60.912812,37.2332472 60.8907097,37.6894529 C60.8691892,38.1456586 60.555493,38.5357503 60.1151938,38.6557636 L57.8910142,39.2624222 Z" id="Combined-Shape" fill="#FFFFFF" fill-rule="nonzero"></path>
                    </g>
                </g>
            </g>
        </g>
    </g>
</svg>