<?xml version="1.0" encoding="UTF-8"?>
<svg width="107px" height="107px" viewBox="0 0 107 107" version="1.1" xmlns="http://www.w3.org/2000/svg" xmlns:xlink="http://www.w3.org/1999/xlink">
    <!-- Generator: sketchtool 52.5 (67469) - http://www.bohemiancoding.com/sketch -->
    <title>6862D181-8138-43BD-B0CC-E83F2B3405E0</title>
    <desc>Created with sketchtool.</desc>
    <g id="Symbols" stroke="none" stroke-width="1" fill="none" fill-rule="evenodd">
        <g id="Разделы/Услуги" transform="translate(-1126.000000, -168.000000)">
            <g transform="translate(-1.000000, -1.000000)" id="Создание-мобильных-и-веб-игр">
                <g transform="translate(1039.000000, 122.000000)">
                    <g id="icons/Services/04" transform="translate(88.000000, 47.000000)">
                        <g id="icons/Platforms/Ios"></g>
                        <g id="566122" transform="translate(13.861111, 26.750000)" fill="#FFFFFF" fill-rule="nonzero">
                            <path d="M72.8992567,0 L7.28997693,0 C3.26218224,0 0,3.31217737 0,7.40152724 L0,48.8970455 C0,52.9863954 3.26218224,56.2987462 7.28997693,56.2987462 L72.8992567,56.2987462 C76.9268806,56.2987462 80.1892336,52.9865688 80.1892336,48.8970455 L80.1892336,7.40152724 C80.1890628,3.31217737 76.9268806,0 72.8992567,0 Z M36.4495429,31.8501367 L25.514663,31.8501367 L25.514663,42.9526011 L18.224686,42.9526011 L18.224686,31.8501367 L7.28980607,31.8501367 L7.28980607,24.448436 L18.224686,24.448436 L18.224686,13.3459717 L25.514663,13.3459717 L25.514663,24.448436 L36.4495429,24.448436 L36.4495429,31.8501367 Z M52.8518629,39.2518374 C49.8264891,39.2518374 47.3844229,36.7723449 47.3844229,33.7006053 C47.3844229,30.6288657 49.8264891,28.1493731 52.8518629,28.1493731 C55.8772366,28.1493731 58.3193029,30.6288657 58.3193029,33.7006053 C58.3193029,36.7723449 55.8772366,39.2518374 52.8518629,39.2518374 Z M67.4318167,28.1493731 C64.406443,28.1493731 61.9643768,25.6698806 61.9643768,22.5981409 C61.9643768,19.5264013 64.406443,17.0469088 67.4318167,17.0469088 C70.4571905,17.0469088 72.8992567,19.5264013 72.8992567,22.5981409 C72.8992567,25.6698806 70.4570196,28.1493731 67.4318167,28.1493731 Z" id="Shape"></path>
                        </g>
                    </g>
                </g>
            </g>
        </g>
    </g>
</svg>