<?xml version="1.0" encoding="UTF-8"?>
<svg width="107px" height="107px" viewBox="0 0 107 107" version="1.1" xmlns="http://www.w3.org/2000/svg" xmlns:xlink="http://www.w3.org/1999/xlink">
    <!-- Generator: sketchtool 52.5 (67469) - http://www.bohemiancoding.com/sketch -->
    <title>E915ECAF-EAC7-4819-AA6F-815FDC11E7A8</title>
    <desc>Created with sketchtool.</desc>
    <g id="Symbols" stroke="none" stroke-width="1" fill="none" fill-rule="evenodd">
        <g id="Разделы/Услуги" transform="translate(-208.000000, -168.000000)" fill="#FFFFFF" fill-rule="nonzero">
            <g transform="translate(-1.000000, -1.000000)" id="Разработка-iOS-приложений">
                <g transform="translate(121.000000, 122.000000)">
                    <g id="icons/Platforms/Ios" transform="translate(88.000000, 47.000000)">
                        <g transform="translate(19.833333, 10.916667)" id="Shape">
                            <g>
                                <path d="M56.9574508,44.21924 C56.8517803,33.6797733 65.6073865,28.625166 65.9984983,28.3740367 C61.0789292,21.2205084 53.415361,20.2405352 50.6844481,20.1272426 C44.1624817,19.4710555 37.9585084,23.9427827 34.648534,23.9427827 C31.3469019,23.9427827 26.2392196,20.2242809 20.830229,20.3219694 C13.721513,20.4269723 7.16683127,24.4292747 3.50647556,30.7556203 C-3.87933938,43.4908837 1.61503823,62.3572783 8.81372144,72.6857638 C12.3312747,77.7415089 16.5257083,83.4197947 22.0328449,83.2169407 C27.3361649,83.0066097 29.3416152,79.8069459 35.753331,79.8069459 C42.1648831,79.8069459 43.9673347,83.2169407 49.5794875,83.1122629 C55.2863513,83.0069348 58.901887,77.9598045 62.3952309,72.8886177 C66.4345938,67.0234072 68.0978416,61.3449589 68.1959877,61.0535189 C68.0692157,60.9959786 57.0677015,56.8080519 56.9574508,44.21924 Z M46.4119884,13.2896984 C49.3349404,9.76592332 51.3078389,4.8771101 50.7696716,0 C46.559371,0.170345322 41.4559417,2.78680396 38.4351709,6.30261437 C35.724705,9.42149418 33.3520251,14.3993811 33.9878477,19.1789653 C38.6880604,19.5433872 43.4859285,16.8055088 46.4119884,13.2896984 Z"></path>
                            </g>
                        </g>
                    </g>
                </g>
            </g>
        </g>
    </g>
</svg>