<?xml version="1.0" encoding="UTF-8"?>
<svg width="100px" height="100px" viewBox="0 0 100 100" version="1.1" xmlns="http://www.w3.org/2000/svg" xmlns:xlink="http://www.w3.org/1999/xlink">
    <!-- Generator: sketchtool 52.5 (67469) - http://www.bohemiancoding.com/sketch -->
    <title>C8467419-5D75-4727-93E2-F3B3B3E32438</title>
    <desc>Created with sketchtool.</desc>
    <g id="Symbols" stroke="none" stroke-width="1" fill="none" fill-rule="evenodd">
        <g id="icons/Questions/7" fill="#FFC225" fill-rule="nonzero">
            <g id="icons/Questions/1">
                <g id="1479988" transform="translate(20.000000, 20.000000)">
                    <path d="M0,45.9375 L0,42.421875 L60,42.421875 L60,45.9375 L31.7578125,45.9375 L31.7578125,49.7554687 C33.8037891,50.4810937 35.2734375,52.4349609 35.2734375,54.7265625 C35.2734375,57.6343359 32.9077734,60 30,60 C27.0922266,60 24.7265625,57.6343359 24.7265625,54.7265625 C24.7265625,52.4349609 26.1962109,50.4810937 28.2421875,49.7554687 L28.2421875,45.9375 L0,45.9375 Z M30,52.96875 C29.0307422,52.96875 28.2421875,53.7573047 28.2421875,54.7265625 C28.2421875,55.6958203 29.0307422,56.484375 30,56.484375 C30.9692578,56.484375 31.7578125,55.6958203 31.7578125,54.7265625 C31.7578125,53.7573047 30.9692578,52.96875 30,52.96875 Z M3.515625,12.3046875 L56.484375,12.3046875 L56.484375,38.90625 L3.515625,38.90625 L3.515625,12.3046875 Z M14,32 L14,35 L18,35 L18,32 L14,32 Z M21,28 L21,35 L25,35 L25,28 L21,28 Z M28,24 L28,35 L32,35 L32,24 L28,24 Z M35,21 L35,35 L39,35 L39,21 L35,21 Z M42,17 L42,35 L46,35 L46,17 L42,17 Z M19.8155,23.335 C19.8155,21.502 18.2295,21.021 16.7865,20.683 L16.7865,18.473 C17.4365,18.551 18.1125,18.772 18.7755,19.149 L19.4255,17.55 C18.7105,17.095 17.7615,16.835 16.7865,16.757 L16.7865,15.34 L15.4865,15.34 L15.4865,16.783 C13.4325,17.017 12.4315,18.2 12.4315,19.578 C12.4315,21.437 14.0435,21.918 15.4865,22.269 L15.4865,24.44 C14.5505,24.349 13.6145,23.998 12.9645,23.517 L12.2495,25.103 C12.9645,25.662 14.1995,26.065 15.4865,26.143 L15.4865,27.56 L16.7865,27.56 L16.7865,26.104 C18.8275,25.857 19.8155,24.687 19.8155,23.335 Z M14.5245,19.474 C14.5245,19.045 14.7975,18.668 15.4865,18.512 L15.4865,20.358 C14.9145,20.176 14.5245,19.929 14.5245,19.474 Z M16.7865,24.388 L16.7865,22.594 C17.3455,22.789 17.7225,23.036 17.7225,23.491 C17.7225,23.907 17.4365,24.245 16.7865,24.388 Z M0,0 L60,0 L60,8.7890625 L0,8.7890625 L0,0 Z" id="Combined-Shape"></path>
                </g>
            </g>
        </g>
    </g>
</svg>