<?xml version="1.0" encoding="UTF-8"?>
<svg width="54px" height="54px" viewBox="0 0 54 54" version="1.1" xmlns="http://www.w3.org/2000/svg" xmlns:xlink="http://www.w3.org/1999/xlink">
    <!-- Generator: sketchtool 52.5 (67469) - http://www.bohemiancoding.com/sketch -->
    <title>A90CFA2C-9A9D-46BA-A5F8-2190CBB9C64C</title>
    <desc>Created with sketchtool.</desc>
    <g id="Symbols" stroke="none" stroke-width="1" fill="none" fill-rule="evenodd">
        <g id="icons/Benefits/06" fill="#2E2E2E" fill-rule="nonzero">
            <g>
                <path d="M40.2562944,28.5087172 C40.1937225,21.9521322 45.3782822,18.8076692 45.6098758,18.651442 C42.6967937,14.2012437 38.1588753,13.591604 36.5417879,13.5211248 C32.6798595,13.1129119 29.0062281,15.8947662 27.0462541,15.8947662 C25.0912201,15.8947662 22.0667483,13.5814922 18.8638593,13.6422641 C14.654492,13.7075862 10.7731915,16.197412 8.60574222,20.1330213 C4.23229308,28.0556079 7.48574328,39.7923613 11.7483839,46.2176953 C13.8312739,49.3628661 16.314973,52.8953185 19.5759784,52.7691233 C22.7162954,52.6382768 23.9038062,50.6477711 27.7004505,50.6477711 C31.496998,50.6477711 32.5643048,52.7691233 35.8874946,52.7040034 C39.2667667,52.638479 41.4076762,49.4986675 43.4762309,46.3438904 C45.8681062,42.6951525 46.8529846,39.1625991 46.9111009,38.9812947 C46.836034,38.945499 40.3215785,36.3401966 40.2562944,28.5087172 Z M34.0118862,9.26749971 C35.742688,7.075365 36.9109236,4.03404226 36.5922522,1 C34.0991576,1.10597155 31.0772042,2.7336662 29.2884798,4.92084614 C27.6834999,6.86109619 26.2785371,9.95783154 26.6550342,12.9312031 C29.4382263,13.1579094 32.2792441,11.4546797 34.0118862,9.26749971 Z"></path>
            </g>
        </g>
    </g>
</svg>