<?xml version="1.0" encoding="UTF-8"?>
<svg width="54px" height="54px" viewBox="0 0 54 54" version="1.1" xmlns="http://www.w3.org/2000/svg" xmlns:xlink="http://www.w3.org/1999/xlink">
    <!-- Generator: sketchtool 52.5 (67469) - http://www.bohemiancoding.com/sketch -->
    <title>94F5D99D-8B5C-4CA0-AA4F-00B33D74437B</title>
    <desc>Created with sketchtool.</desc>
    <g id="Symbols" stroke="none" stroke-width="1" fill="none" fill-rule="evenodd">
        <g id="icons/Order/03">
            <g id="icons/Services/01"></g>
            <g id="1342" transform="translate(1.000000, 10.000000)" fill="#FFC225" fill-rule="nonzero">
                <path d="M51.960371,4.77265181 L51.960371,20.6532646 C51.960371,20.6532646 48.594,21.3228691 47.9004919,21.4109359 C47.2091855,21.4987911 45.0367177,22.2070306 43.46225,20.6790919 C41.0341855,18.3295487 32.4073226,9.66755989 32.4073226,9.66755989 C32.4073226,9.66755989 30.919871,8.19392201 28.5315403,9.46750418 C26.3391532,10.6341783 23.0892581,12.3439666 21.7318065,13.0097604 C19.1656694,14.3887688 17.0388065,12.2008579 17.0388065,10.5342563 C17.0388065,9.24151532 17.8377823,8.36412813 18.9798952,7.71886908 C22.0751532,5.82437326 28.5990565,2.1271532 31.3162661,0.669498607 C32.9678952,-0.217415042 34.1579194,-0.293415042 36.4254758,1.63527019 C39.2181694,4.00661838 41.7034758,6.1681727 41.7034758,6.1681727 C41.7034758,6.1681727 42.5140887,6.85122006 43.8068548,6.57611699 C46.981371,5.89846797 51.960371,4.77265181 51.960371,4.77265181 Z M17.6231774,31.6807799 C18.0409597,30.5970919 17.9013145,29.3850084 17.1003468,28.553454 C16.380629,27.809649 15.3298306,27.6136156 14.3278871,27.8454262 C14.608121,26.842078 14.453379,25.7741616 13.7297823,25.0205125 C13.0078629,24.2786128 11.9590565,24.078663 10.9572177,24.3125905 C11.2353548,23.3107242 11.0810323,22.2429136 10.3570161,21.4914875 C9.22329032,20.3174039 7.26228226,20.3677883 5.97402419,21.6076045 C4.69258065,22.8491142 3.87169355,25.0984178 5.01537903,26.4223844 C6.15717742,27.7396825 7.46912903,26.9381894 8.46929032,26.7080724 C8.19104839,27.7099387 7.35737097,28.6418384 8.38405645,29.9532089 C9.40979839,31.2652145 10.8377016,30.4692256 11.8389113,30.2412256 C11.5597258,31.2392813 10.7624274,32.2647521 11.7496935,33.4806462 C12.745871,34.7002451 14.3774758,34.0504345 15.4551129,33.7124568 C15.0392177,34.7920167 14.1490323,35.955727 15.2927177,37.2597939 C16.434621,38.5732813 19.0735161,37.9655989 20.3625081,36.7238774 C21.6480403,35.4823677 21.7714355,33.5147298 20.64075,32.3369415 C19.860121,31.5288858 18.6964113,31.3408969 17.6231774,31.6807799 Z M41.1431129,23.4187967 C31.8250484,14.0107799 36.2078306,18.437727 31.1932903,13.3639331 C31.1932903,13.3639331 29.6862339,11.8491198 27.6999597,12.7290474 C26.3056048,13.3459387 24.5104516,14.1867019 23.1597097,14.8285738 C21.6754032,15.6144011 20.6072016,15.8576435 20.1056532,15.8542563 C17.2362177,15.8353092 14.9081694,13.5067242 14.9081694,10.6124791 C14.9081694,8.73491922 15.8954355,7.10028412 17.3678952,6.17240669 C19.4384597,4.72576045 24.2044274,2.16631755 24.2044274,2.16631755 C24.2044274,2.16631755 22.7525161,0.308763231 19.5719194,0.308763231 C16.3922661,0.308763231 9.74905645,4.70279109 9.74905645,4.70279109 C9.74905645,4.70279109 7.86447581,5.92154318 5.17798387,4.82377716 L0,3.00327019 L0,21.1752089 C0,21.1752089 1.47854032,21.6072869 2.80705645,22.1551643 C3.10710484,21.2912201 3.59125,20.4934318 4.26284677,19.8345181 C6.46687097,17.7149861 10.1200806,17.6929694 12.1253306,19.7776769 C12.7294113,20.4113983 13.1509677,21.167376 13.3660968,22.0030585 C14.1740887,22.2548747 14.9059677,22.7009248 15.4941129,23.3127354 C16.0999758,23.9422228 16.5199597,24.7024345 16.736871,25.533883 C17.5439194,25.7859109 18.27475,26.2336546 18.8648871,26.8458886 C19.5294597,27.5378273 19.9721935,28.3736156 20.1789355,29.2791588 C21.0225726,29.5272702 21.7849597,29.9888802 22.399,30.6227075 C23.604121,31.8724735 24.0318629,33.568078 23.7727016,35.2036657 C23.7747984,35.2036657 23.7787823,35.2036657 23.7806694,35.2073705 C23.800379,35.2334095 24.5273306,36.0516267 24.9806532,36.5131309 C25.8690565,37.4109471 27.3197097,37.4109471 28.2108387,36.5131309 C29.0960968,35.6156323 29.0999758,34.1538496 28.2108387,33.2517994 C28.1789677,33.219727 25.0057097,29.8685292 25.2610968,29.6086685 C25.5145968,29.3506072 29.5574919,33.5979276 29.6327661,33.6756212 C30.5200161,34.5716379 31.9697258,34.5716379 32.8609597,33.6756212 C33.7500968,32.7781226 33.7482097,31.3163398 32.8609597,30.4164067 C32.8173468,30.3744903 32.6353468,30.1984624 32.5678306,30.12839 C32.5678306,30.12839 28.5594274,26.5231532 28.8645081,26.2151309 C29.1733629,25.9052033 34.1523629,30.5964568 34.1604355,30.5964568 C35.0554435,31.4102284 36.4340726,31.404195 37.2951129,30.534429 C38.132879,29.6886908 38.1508065,28.3508579 37.408129,27.449337 C37.3924032,27.4013872 33.6135968,23.4142451 33.9085081,23.1142674 C34.2077177,22.8103733 37.9467903,26.6975933 37.9546532,26.7056379 C38.8399113,27.6014429 40.2916129,27.6014429 41.1828468,26.7056379 C42.0700968,25.809727 42.0700968,24.3461448 41.1828468,23.4422953 C41.1707903,23.4346741 41.1549597,23.4266295 41.1431129,23.4187967 Z" id="Shape"></path>
            </g>
        </g>
    </g>
</svg>