<?xml version="1.0" encoding="UTF-8"?>
<svg width="54px" height="54px" viewBox="0 0 54 54" version="1.1" xmlns="http://www.w3.org/2000/svg" xmlns:xlink="http://www.w3.org/1999/xlink">
    <!-- Generator: sketchtool 52.5 (67469) - http://www.bohemiancoding.com/sketch -->
    <title>C55CB8B1-6F44-4E83-A4CB-C4201D60DA96</title>
    <desc>Created with sketchtool.</desc>
    <g id="Symbols" stroke="none" stroke-width="1" fill="none" fill-rule="evenodd">
        <g id="icons/Order/02">
            <g id="icons/Services/01"></g>
            <g id="77956" transform="translate(1.000000, 1.000000)" fill="#ffd94f" fill-rule="nonzero">
                <path d="M1.87525678,20.9151816 C3.09079749,16.8056618 6.35887265,16.0465052 6.94075157,15.9448935 C10.141737,8.38556994 17.735691,3.06485177 26.5667891,3.06485177 C35.4345804,3.06485177 43.0285344,8.40717328 46.2274572,15.9881002 C46.3226639,16.0140459 46.428618,16.0399916 46.5432568,16.0724509 L46.5432568,5.9068309 C45.4207516,5.44827557 44.6139374,4.35605846 44.6139374,3.06474322 C44.609595,1.37132359 46.0176117,0 47.7154823,0 C49.4371273,0 50.8408017,1.37132359 50.8408017,3.06485177 C50.8408017,4.51618372 49.8242505,5.72738205 48.4529269,6.05392902 L48.4529269,17.0262547 C49.4370188,17.746547 50.4968852,18.9555741 51.0895115,20.9151816 C51.0895115,20.9151816 52.121261,25.9590731 50.4038497,27.2330188 C50.4038497,27.2330188 49.5797745,28.3988392 47.1530355,29.3094363 C46.9562171,30.0188727 46.7463716,30.717453 46.488977,31.4160334 C45.5848935,31.5371858 44.6158914,31.7231482 43.5928267,31.9308225 C45.0722756,29.3504718 45.9287015,26.3895115 45.9287015,23.2598497 C45.9287015,13.1548058 37.1690355,4.96833403 26.3870146,4.96833403 C15.5942463,4.96833403 6.84315658,13.1549144 6.84315658,23.2598497 C6.84315658,26.482547 7.72997912,29.5040835 9.3045261,32.1384969 C8.41553236,31.9395073 7.55476409,31.7773194 6.74577871,31.6280501 C6.4646096,30.9121002 6.21807098,30.1616284 6.01473904,29.4024718 C6.00822547,29.3981294 5.98879332,29.3981294 5.98227975,29.3959582 C3.42146973,28.4788476 2.54116075,27.23519 2.54116075,27.23519 C0.834822547,25.9589645 1.87525678,20.9151816 1.87525678,20.9151816 Z M25.9546221,43.4546305 C18.4710731,34.4591733 0,33.6198998 0,33.6198998 L0,40.5086514 C16.7256534,40.5995157 25.9546221,51.9092443 25.9546221,51.9092443 C25.9546221,51.9092443 35.1880418,40.5995157 51.9092443,40.5086514 L51.9092443,33.6198998 C51.9092443,33.6198998 33.4511983,34.4591733 25.9546221,43.4546305 Z M43.6059624,26.4326096 C43.6059624,28.5868643 43.1971273,30.6286514 42.4747724,32.5406013 C36.7560752,33.8188894 29.8629812,36.2953486 25.9546221,41.0105219 C22.2063883,36.4987891 15.7111649,34.0265637 10.141737,32.7007265 C9.37389562,30.7648935 8.94128601,28.6452693 8.94128601,26.4327182 C8.94128601,17.0024802 16.7017704,9.35022965 26.2811691,9.35022965 C35.8455866,9.3479499 43.6059624,16.9872818 43.6059624,26.4326096 Z M18.0946973,23.7247015 C18.0946973,22.6627724 17.2295866,21.8040668 16.1481169,21.8040668 C15.0775031,21.8040668 14.1993653,22.6606013 14.1993653,23.7247015 C14.1993653,24.7866305 15.0775031,25.6431649 16.1481169,25.6431649 C17.2295866,25.6324175 18.0946973,24.786739 18.0946973,23.7247015 Z M22.7124927,18.8797996 C22.7124927,17.257595 21.369286,15.9231816 19.7190731,15.9231816 C18.0665804,15.9231816 16.7256534,17.2533612 16.7256534,18.8797996 C16.7256534,20.5041754 18.0666889,21.8278413 19.7190731,21.8278413 C21.369286,21.8278413 22.7124927,20.5041754 22.7124927,18.8797996 Z" id="Readernaut"></path>
            </g>
        </g>
    </g>
</svg>