<?xml version="1.0" encoding="UTF-8"?>
<svg width="54px" height="54px" viewBox="0 0 54 54" version="1.1" xmlns="http://www.w3.org/2000/svg" xmlns:xlink="http://www.w3.org/1999/xlink">
    <!-- Generator: sketchtool 52.5 (67469) - http://www.bohemiancoding.com/sketch -->
    <title>0F1BA440-2D13-4BE0-B92F-FEF0CCCC0E53</title>
    <desc>Created with sketchtool.</desc>
    <g id="Symbols" stroke="none" stroke-width="1" fill="none" fill-rule="evenodd">
        <g id="icons/Benefits/03" fill="#2E2E2E" fill-rule="nonzero">
            <g id="831327">
                <g transform="translate(1.000000, 1.000000)">
                    <path d="M41.3359375,0 L10.6640625,0 C4.78389844,0 0,4.78389844 0,10.6640625 L0,41.3359375 C0,47.2161016 4.78389844,52 10.6640625,52 L41.3359375,52 C47.2161016,52 52,47.2161016 52,41.3359375 L52,10.6640625 C52,4.78389844 47.2161016,0 41.3359375,0 Z M16.0112266,40.0679297 C15.5415,40.8815469 14.6862422,41.3368516 13.8080312,41.3369531 C13.3775078,41.3369531 12.9416016,41.2275703 12.5427656,40.9973281 C11.3303125,40.2973594 10.9133984,38.7414219 11.6133672,37.5289688 L12.11275,36.6640625 L17.9764609,36.6640625 L16.0112266,40.0679297 Z M11.2226562,34.6328125 C9.82261719,34.6328125 8.68359375,33.4937891 8.68359375,32.09375 C8.68359375,30.6937109 9.82261719,29.5546875 11.2226562,29.5546875 L16.2172969,29.5546875 L23.0680938,17.6887344 L21.2114297,14.4728594 C20.5114609,13.2604063 20.9282734,11.7044688 22.1407266,11.0043984 L22.1408281,11.0043984 C23.3532813,10.3044297 24.9092188,10.7214453 25.6091875,11.9337969 L26,12.6107109 L26.3908125,11.9338984 C27.0910859,10.7213437 28.6470234,10.3045313 29.8591719,11.0045 C30.4465078,11.3436172 30.8666719,11.8911406 31.0421719,12.5462188 C31.2177734,13.2012969 31.1275859,13.885625 30.7884688,14.4729609 L22.0810078,29.5546875 L27.5734063,29.5546875 L30.5053125,34.6328125 L11.2226562,34.6328125 Z M40.7773438,34.6328125 L38.7145078,34.6328125 L40.3865313,37.5288672 C41.0866016,38.7412188 40.6696875,40.2971563 39.4573359,40.9972266 C39.0660156,41.2231016 38.6317344,41.3385781 38.1917656,41.3385781 C37.9711719,41.3385781 37.7493594,41.3096328 37.5304922,41.2509297 C36.8753125,41.0753281 36.3277891,40.6551641 35.9886719,40.0677266 L27.1726406,24.7980078 L30.1044453,19.7198828 L35.7827031,29.5546875 L40.7773438,29.5546875 C42.1773828,29.5546875 43.3164062,30.6937109 43.3164062,32.09375 C43.3164062,33.4937891 42.1773828,34.6328125 40.7773438,34.6328125 Z" id="Shape"></path>
                </g>
            </g>
        </g>
    </g>
</svg>