<?xml version="1.0" encoding="UTF-8"?>
<svg width="54px" height="54px" viewBox="0 0 54 54" version="1.1" xmlns="http://www.w3.org/2000/svg" xmlns:xlink="http://www.w3.org/1999/xlink">
    <!-- Generator: sketchtool 52.5 (67469) - http://www.bohemiancoding.com/sketch -->
    <title>16B2F574-9A22-40E2-BA5E-677BD6B8353F</title>
    <desc>Created with sketchtool.</desc>
    <g id="Symbols" stroke="none" stroke-width="1" fill="none" fill-rule="evenodd">
        <g id="icons/Order/04" fill="#ffd94f" fill-rule="nonzero">
            <path d="M21,2 L21.2317708,2 C23.817636,2.5311943 26.0506004,2.79679144 27.9306641,2.79679144 C29.8107277,2.79679144 34.8338397,2.5311943 43,2 L36.2786458,9 L43,16 C34.6321615,16.359375 29.6090495,16.5390625 27.9306641,16.5390625 C26.2522786,16.5390625 24.0193142,16.359375 21.2317708,16 L21,16 L21,30 L19,30 L19,0 L21,0 L21,2 Z M39.6619161,54 L39.8289577,54.1985401 L23,54.5574872 L23.4782686,54 L-1.0658141e-14,54 L8.99720338,43.295793 C12.782014,42.735208 15.1900382,42.6211425 16.0534749,42.9170972 C16.5596794,43.0906056 16.7705634,43.199118 18.3049841,44.0384841 C19.2435104,44.5518813 19.85553,44.8540147 20.5133829,45.1002578 C21.3330214,45.4070594 22.0891229,45.5597768 22.8233686,45.5306172 C24.3533734,45.4698551 26.7981282,44.4428611 30.287591,42.4448942 L40,54 L39.6619161,54 Z M10.9108528,41.0190744 L20,30.2054795 L28.9789109,40.8879234 C25.9369858,42.6066262 23.820095,43.489457 22.7440038,43.5321925 C22.3074145,43.5495311 21.8041019,43.447872 21.2145019,43.2271769 C20.6691859,43.0230579 20.1252712,42.7545455 19.2648111,42.2838525 C17.5832671,41.3640063 17.3691927,41.2538523 16.7019652,41.025151 C15.6814373,40.6753512 13.7813686,40.6799168 10.9108528,41.0190744 Z M32.8526483,43.0728826 L38.0625774,37 L54,53.8962839 L42.155714,54.1489123 L32.8526483,43.0728826 Z" id="Combined-Shape"></path>
        </g>
    </g>
</svg>