<?xml version="1.0" encoding="UTF-8"?>
<svg width="54px" height="54px" viewBox="0 0 54 54" version="1.1" xmlns="http://www.w3.org/2000/svg" xmlns:xlink="http://www.w3.org/1999/xlink">
    <!-- Generator: sketchtool 52.5 (67469) - http://www.bohemiancoding.com/sketch -->
    <title>CD523B8E-B5FB-4397-8487-CFA7DAE011E0</title>
    <desc>Created with sketchtool.</desc>
    <g id="Symbols" stroke="none" stroke-width="1" fill="none" fill-rule="evenodd">
        <g id="icons/Benefits/04" fill="#2E2E2E" fill-rule="nonzero">
            <g id="icons">
                <g transform="translate(1.000000, 1.000000)">
                    <path d="M34,12 L31,12 C29.3431458,12 28,13.3431458 28,15 L28,44 L4,44 L4,5 L34,5 L34,12 Z M28,52 L2.02147043,52 C0.902930208,52 3.55271368e-15,51.1125434 3.55271368e-15,50.0198314 L3.55271368e-15,1.98215171 C3.55271368e-15,0.88844819 0.902930208,3.55271368e-15 2.02147043,3.55271368e-15 L35.9785296,3.55271368e-15 C37.0950453,3.55271368e-15 38,0.88844819 38,1.98215171 L38,12 L35.9785296,12 L35.9785296,3.373 L2.02147043,3.373 L2.02147043,46.1 L28,46.1 L28,52 Z M19.226,50.55 C19.927,50.55 20.499,49.978 20.499,49.274 C20.499,48.57 19.927,48 19.226,48 C18.523,48 17.951,48.57 17.951,49.274 C17.951,49.978 18.523,50.55 19.226,50.55 Z" id="Combined-Shape"></path>
                    <path d="M49.1728443,14 L32.8271557,14 C31.2628057,14 30,15.2407259 30,16.7680927 L30,49.2346768 C30,50.7606588 31.2628057,52 32.8271557,52 L49.1728443,52 C50.7343629,52 52,50.7606588 52,49.2346768 L52,16.7680927 C52,15.2407259 50.7343629,14 49.1728443,14 Z M36.9666667,15.6810728 L45.0361647,15.6810728 C45.2400257,15.6810728 45.4056628,15.9787916 45.4056628,16.3471321 C45.4056628,16.7154726 45.2400257,17.0145762 45.0361647,17.0145762 L36.9666667,17.0145762 C36.76139,17.0145762 36.5985843,16.7154726 36.5985843,16.3471321 C36.5985843,15.9787916 36.76139,15.6810728 36.9666667,15.6810728 Z M41.0014157,49.2679105 C40.0061776,49.2679105 39.1963964,48.47584 39.1963964,47.5009839 C39.1963964,46.5261278 40.0061776,45.7368268 41.0014157,45.7368268 C41.9938224,45.7368268 42.8036036,46.5261278 42.8036036,47.5009839 C42.8036036,48.47584 41.9938224,49.2679105 41.0014157,49.2679105 Z M49.8821107,43.217987 L32.119305,43.217987 L32.119305,18.6707237 L49.8821107,18.6707237 L49.8821107,43.217987 Z" id="Shape"></path>
                    <rect id="Rectangle" x="34" y="21" width="14" height="20"></rect>
                </g>
            </g>
        </g>
    </g>
</svg>