<?xml version="1.0" encoding="UTF-8"?>
<svg width="24px" height="24px" viewBox="0 0 24 24" version="1.1" xmlns="http://www.w3.org/2000/svg" xmlns:xlink="http://www.w3.org/1999/xlink">
    <!-- Generator: sketchtool 52.5 (67469) - http://www.bohemiancoding.com/sketch -->
    <title>C9A9D799-6B08-4DDE-AD02-218AA7F94C83</title>
    <desc>Created with sketchtool.</desc>
    <g id="Symbols" stroke="none" stroke-width="1" fill="none" fill-rule="evenodd">
        <g id="Social/Navigationbar/Fb(Normal)" fill="#FFFFFF" fill-rule="nonzero">
            <g id="Shape">
                <path d="M12,24 C18.627417,24 24,18.627417 24,12 C24,5.372583 18.627417,0 12,0 C5.372583,0 0,5.372583 0,12 C0,18.627417 5.372583,24 12,24 Z M15.1017073,7.6838822 L13.6009846,7.6838822 C13.3037433,7.6838822 13.0037591,7.9910822 13.0037591,8.21962549 L13.0037591,9.74988659 L15.0987534,9.74988659 C15.0144,10.9232809 14.8412202,11.9962866 14.8412202,11.9962866 L12.9930409,11.9962866 L12.9930409,18.6461538 L10.2389591,18.6461538 L10.2389591,11.9955692 L8.89829275,11.9955692 L8.89829275,9.75786198 L10.2389591,9.75786198 L10.2389591,7.92833407 C10.2389591,7.59378989 10.1711895,5.35388835 13.0608105,5.35388835 L15.1017495,5.35388835 L15.1017495,7.6838822 L15.1017073,7.6838822 Z"></path>
            </g>
        </g>
    </g>
</svg>