<?xml version="1.0" encoding="UTF-8"?>
<svg width="31px" height="31px" viewBox="0 0 31 31" version="1.1" xmlns="http://www.w3.org/2000/svg" xmlns:xlink="http://www.w3.org/1999/xlink">
    <!-- Generator: sketchtool 52.5 (67469) - http://www.bohemiancoding.com/sketch -->
    <title>8465FE9E-FC76-4CAA-AF31-96076EEA4725</title>
    <desc>Created with sketchtool.</desc>
    <g id="Symbols" stroke="none" stroke-width="1" fill="none" fill-rule="evenodd">
        <g id="icCallNormal">
            <g transform="translate(15.142615, 15.124247) rotate(-5.000000) translate(-15.142615, -15.124247) translate(0.142615, 0.124247)">
                <circle id="Oval" fill="#2a7937" cx="15" cy="15" r="15"></circle>
                <path d="M20.4077592,18.8781779 C19.4623316,18.0770958 18.5028569,17.5918482 17.5690333,18.3917202 L17.0114264,18.8751526 C16.6034512,19.2260798 15.8449104,20.8657568 12.9121303,17.5234779 C9.97996099,14.1854344 11.7248491,13.6656992 12.1334351,13.3177972 L12.6940957,12.8337597 C13.6230333,12.0320726 13.2724677,11.0228545 12.6024845,9.98398901 L12.1981737,9.35474027 C11.5251367,8.318295 10.792247,7.63761728 9.86086642,8.43809428 L9.35761553,8.87372802 C8.94597584,9.17080603 7.79533909,10.1364608 7.51623028,11.9709629 C7.18032253,14.1721234 8.23995881,16.6927486 10.6676558,19.4584178 C13.092299,22.2252971 15.4662508,23.6150897 17.7150005,23.5908879 C19.5838691,23.5709213 20.7125192,22.5774344 21.0655277,22.2162214 L21.5706108,21.7799826 C22.4995484,20.9801106 21.9223978,20.1657176 20.9763594,19.3628204 L20.4077592,18.8781779 Z" id="Shape" fill="#181818" fill-rule="nonzero"></path>
            </g>
        </g>
    </g>
</svg>