<?xml version="1.0" encoding="UTF-8"?>
<svg width="24px" height="24px" viewBox="0 0 24 24" version="1.1" xmlns="http://www.w3.org/2000/svg" xmlns:xlink="http://www.w3.org/1999/xlink">
    <!-- Generator: sketchtool 52.5 (67469) - http://www.bohemiancoding.com/sketch -->
    <title>C1DBCF8B-3061-4009-B1AE-9BB6F4DEE878</title>
    <desc>Created with sketchtool.</desc>
    <g id="Symbols" stroke="none" stroke-width="1" fill="none" fill-rule="evenodd">
        <g id="Social/Navigationbar/Vk(Normal)" fill="#FFFFFF" fill-rule="nonzero">
            <g id="Shape">
                <path d="M12,24 C18.627417,24 24,18.627417 24,12 C24,5.372583 18.627417,0 12,0 C5.372583,0 0,5.372583 0,12 C0,18.627417 5.372583,24 12,24 Z M17.6224336,13.5014723 C18.0720981,13.9556581 18.5534989,14.3806114 18.988972,14.847171 C19.3054344,15.1866291 19.59834,15.5549192 19.8491215,15.942591 C20.1663201,16.4329371 19.9703817,16.8947714 19.3778224,16.977023 C19.0050446,17.0285204 17.1840567,16.9774235 17.0899523,16.977023 C16.6003722,16.9748606 16.1712381,16.8085554 15.8256569,16.4830329 C15.4413052,16.1205492 15.0920024,15.7230264 14.7229462,15.3448453 C14.6117468,15.2308383 14.4930631,15.1215966 14.3650959,15.0262104 C14.0631929,14.8007593 13.7668928,14.8508151 13.6258384,15.1979617 C13.5053144,15.4961338 13.4011902,16.2791658 13.3963234,16.3460003 C13.3709672,16.6956697 13.1437016,16.9185579 12.7436453,16.9401019 C11.588709,17.0014903 10.4695576,16.8754299 9.42696577,16.3284607 C8.54330038,15.8651447 7.83766042,15.2100151 7.22641116,14.4460042 C6.25543029,13.2324927 5.48848546,11.8985671 4.78828482,10.5254779 C4.75249979,10.4552797 4.04330178,8.977634 4.02424369,8.90783627 C3.96089396,8.67413599 4.01999038,8.45088736 4.22165438,8.37404177 C4.34737232,8.32610839 6.68562773,8.37388159 6.72452095,8.37592387 C7.09762593,8.39566585 7.35208819,8.54979751 7.50921516,8.92901986 C7.95589417,10.0091028 8.52199295,11.0274369 9.26758945,11.941615 C9.36647884,12.0633106 9.49113344,12.171431 9.62245429,12.2594891 C9.81426207,12.3884727 9.99523209,12.3431422 10.073223,12.1283029 C10.1557126,11.9028519 10.2314133,11.445943 10.235912,11.2091993 C10.2482221,10.5905904 10.2340716,10.1851789 10.200127,9.56733076 C10.1781243,9.17161004 10.0344525,8.82414306 9.43997107,8.71926625 C9.25638363,8.68675004 9.2393295,8.53878525 9.35727697,8.39118086 C9.60282364,8.08387861 9.94488766,8.03490407 10.3158251,8.01552248 C10.9170137,7.98372707 11.5204107,8.00967597 12.1223354,8.01552248 C12.367514,8.01772494 12.6141649,8.03706648 12.8556218,8.08860388 C13.170571,8.15583876 13.339231,8.37215968 13.3911295,8.67321497 C13.417999,8.82850792 13.4318222,8.98816573 13.4280597,9.14530073 C13.412396,9.82053275 13.3791875,10.4954044 13.3713353,11.170276 C13.3679817,11.435171 13.387735,11.7066734 13.4456046,11.9646407 C13.526581,12.3242011 13.7765854,12.4144216 14.0322337,12.1546523 C14.3568755,11.8246848 14.6431149,11.4534714 14.9117685,11.0764114 C15.3998763,10.3905676 15.7644338,9.63788934 16.0782788,8.86182502 C16.2405997,8.46137904 16.3648862,8.37440217 16.8048172,8.37332097 C17.6317582,8.37147892 18.4586992,8.37075811 19.2856402,8.37332097 C19.4322975,8.37404177 19.5856619,8.38757685 19.7240989,8.43066483 C19.9487471,8.50082297 20.0379438,8.68022277 19.9853092,8.90787631 C19.8625358,9.44135045 19.568117,9.89477544 19.2527997,10.3307009 C18.7467789,11.0300398 18.2165061,11.7126 17.6985842,12.4038899 C17.6325352,12.4919479 17.5743385,12.5858525 17.5201907,12.6812388 C17.3265425,13.0239004 17.3399568,13.2160744 17.6224336,13.5014723 Z"></path>
            </g>
        </g>
    </g>
</svg>