<?xml version="1.0" encoding="UTF-8"?>
<svg width="36px" height="36px" viewBox="0 0 36 36" version="1.1" xmlns="http://www.w3.org/2000/svg" xmlns:xlink="http://www.w3.org/1999/xlink">
    <!-- Generator: sketchtool 52.5 (67469) - http://www.bohemiancoding.com/sketch -->
    <title>7491351E-1DC9-4465-AA82-1482D2789788</title>
    <desc>Created with sketchtool.</desc>
    <g id="Symbols" stroke="none" stroke-width="1" fill="none" fill-rule="evenodd">
        <g id="icons/Platforms/Android" fill="#FFFFFF" fill-rule="nonzero">
            <g id="icons/Platforms/Ios">
                <path d="M10.6799085,23.9927122 C10.6799085,24.693441 11.1478993,25.1605935 11.8498856,25.1605935 L13.0198627,25.1605935 L13.0198627,29.248178 C13.0198627,30.1824831 13.8388467,31 14.7748284,31 C15.7108101,31 16.5297941,30.1824831 16.5297941,29.248178 L16.5297941,25.1605935 L18.8697483,25.1605935 L18.8697483,29.248178 C18.8697483,30.1824831 19.6887323,31 20.624714,31 C21.5606957,31 22.3796796,30.1824831 22.3796796,29.248178 L22.3796796,25.1605935 L23.5496568,25.1605935 C24.251643,25.1605935 24.7196339,24.693441 24.7196339,23.9927122 L24.7196339,12.3138992 L10.6799085,12.3138992 L10.6799085,23.9927122 Z M7.75496568,12.3138992 C6.81898398,12.3138992 6,13.1314619 6,14.0657211 L6,22.2408902 C6,23.1751953 6.81898398,23.9927122 7.75496568,23.9927122 C8.69094737,23.9927122 9.50993135,23.1751953 9.50993135,22.2408902 L9.50993135,14.0657211 C9.50993135,13.1314161 8.69094737,12.3138992 7.75496568,12.3138992 Z M27.6445767,12.3138992 C26.708595,12.3138992 25.889611,13.1314619 25.889611,14.0657211 L25.889611,22.2408902 C25.889611,23.1751953 26.708595,23.9927122 27.6445767,23.9927122 C28.5805584,23.9927122 29.3995423,23.1751953 29.3995423,22.2408902 L29.3995423,14.0657211 C29.3995423,13.1314161 28.5805584,12.3138992 27.6445767,12.3138992 Z M21.7946911,5.54018763 L23.3156613,4.02194194 C23.5496568,3.78836568 23.5496568,3.43800129 23.3156613,3.20442503 C23.08162,2.97080297 22.7306728,2.97080297 22.4966315,3.20442503 L20.7416658,4.95624698 C19.9226818,4.37230633 18.8697024,4.13868427 17.6997253,4.13868427 C16.5297482,4.13868427 15.4767688,4.37230633 14.5407871,4.83941305 L12.9028191,3.0875911 C12.6688237,2.97080297 12.2008328,2.97080297 11.9668374,3.0875911 C11.8498397,3.32121316 11.8498397,3.78836568 11.9668374,4.02189614 L13.4878077,5.54014183 C11.8498397,6.82481126 10.6798626,8.81016368 10.6798626,11.1459263 L24.719588,11.1459263 C24.7196339,8.81025527 23.5496568,6.70806893 21.7946911,5.54018763 Z M15.3598169,8.81025527 L14.1898398,8.81025527 L14.1898398,7.64237397 L15.3598169,7.64237397 L15.3598169,8.81025527 Z M21.2097025,8.81025527 L20.0397254,8.81025527 L20.0397254,7.64237397 L21.2097025,7.64237397 L21.2097025,8.81025527 Z" id="Shape"></path>
            </g>
        </g>
    </g>
</svg>