<?xml version="1.0" encoding="UTF-8"?>
<svg width="36px" height="36px" viewBox="0 0 36 36" version="1.1" xmlns="http://www.w3.org/2000/svg" xmlns:xlink="http://www.w3.org/1999/xlink">
    <!-- Generator: sketchtool 52.5 (67469) - http://www.bohemiancoding.com/sketch -->
    <title>976D9403-FCE7-4524-90FB-86F5C7B3A221</title>
    <desc>Created with sketchtool.</desc>
    <g id="Symbols" stroke="none" stroke-width="1" fill="none" fill-rule="evenodd">
        <g id="icons/Platforms/Ios" fill="#FFFFFF" fill-rule="nonzero">
            <g id="Shape">
                <g transform="translate(6.000000, 3.000000)">
                    <g>
                        <path d="M19.1632545,14.8775013 C19.1277018,11.3315125 22.0735132,9.63089698 22.2051022,9.54640487 C20.5499201,7.13961031 17.9715233,6.80989969 17.0527115,6.77178254 C14.8584051,6.55100932 12.7710869,8.05551568 11.6574507,8.05551568 C10.5466212,8.05551568 8.82814866,6.80443095 7.00830136,6.8372981 C4.61658382,6.87262619 2.41127033,8.21919521 1.17974879,10.3476853 C-1.3051983,14.6324468 0.54337735,20.9800189 2.96536422,24.4550233 C4.14884008,26.1560217 5.56005139,28.066473 7.41291978,27.998223 C9.19721438,27.9274575 9.87194531,26.8509351 12.0291581,26.8509351 C14.1863158,26.8509351 14.7927481,27.998223 16.6809491,27.9630043 C18.6010154,27.9275669 19.8174573,26.2294669 20.992788,24.5232733 C22.351826,22.5499314 22.9114234,20.6394254 22.9444444,20.5413708 C22.9017922,20.5220115 19.2003482,19.1129894 19.1632545,14.8775013 Z M15.6152484,4.47130038 C16.5986715,3.28573121 17.2624505,1.64089686 17.0813848,0 C15.6648351,0.0573124448 13.9477935,0.937616285 12.9314594,2.12050577 C12.0195269,3.16984851 11.2212421,4.84465158 11.4351637,6.45273597 C13.0165437,6.57534523 14.6307797,5.65418987 15.6152484,4.47130038 Z"></path>
                    </g>
                </g>
            </g>
        </g>
    </g>
</svg>