<?xml version="1.0" encoding="UTF-8"?>
<svg width="36px" height="36px" viewBox="0 0 36 36" version="1.1" xmlns="http://www.w3.org/2000/svg" xmlns:xlink="http://www.w3.org/1999/xlink">
    <!-- Generator: sketchtool 52.5 (67469) - http://www.bohemiancoding.com/sketch -->
    <title>2DC0D49A-8807-4C57-BB1F-53E9E25E8A5F</title>
    <desc>Created with sketchtool.</desc>
    <g id="Symbols" stroke="none" stroke-width="1" fill="none" fill-rule="evenodd">
        <g id="icons/Platforms/Web" fill="#FFFFFF" fill-rule="nonzero">
            <g id="Combined-Shape">
                <path d="M31.9498547,27.4743185 C31.9824364,27.5829831 31.9999364,27.6982782 32,27.817629 C32,28.4705177 31.4768467,29 30.8311937,29 C30.8309391,29 30.8304937,29 30.8301119,29 L5.16887298,29 C4.80888293,29 4.46906555,28.8322394 4.24761154,28.5452568 C4.02609388,28.2584029 3.94763043,27.8841281 4.03487568,27.5309683 L5.78805332,20.4371287 C5.81509871,20.3273697 5.85779861,20.2250139 5.91182576,20.1307693 C5.81217145,19.8517691 5.75763521,19.551139 5.75763521,19.2378915 L5.75763521,7.63801275 C5.75763521,6.18340097 6.92739606,5 8.36551082,5 L27.6335377,5 C29.0715252,5 30.241286,6.18346535 30.241286,7.63801275 L30.241286,19.2380203 C30.241286,19.5512034 30.1866861,19.8518335 30.0872864,20.1308336 C30.1411862,20.2250139 30.1836952,20.3274985 30.2107406,20.4372574 L31.9498547,27.4743185 Z M20.9614081,27.1515435 C21.0888078,27.1515435 21.192153,27.0471277 21.1919621,26.9181207 C21.1919621,26.8966195 21.1890348,26.8758265 21.1836258,26.8559347 L20.7259541,24.2859017 C20.7062905,24.1747908 20.6106453,24.0939362 20.4990274,24.0939362 L15.4998302,24.0939362 C15.3882123,24.0939362 15.2925671,24.1746621 15.2727762,24.2859017 L14.8112864,26.8766633 C14.7991319,26.9448362 14.8175227,27.0148759 14.8613681,27.067792 C14.9050862,27.1208368 14.9699951,27.1515435 15.0383404,27.1515435 L20.9603899,27.1515435 C20.9608354,27.1516723 20.9611536,27.1515435 20.9614081,27.1515435 Z M27.9634914,19.2380203 L27.9635551,7.63801275 C27.9635551,7.4538366 27.8153463,7.30403656 27.6334104,7.30403656 L8.36544719,7.30403656 C8.18332035,7.30403656 8.03511161,7.4538366 8.03511161,7.63801275 L8.03511161,19.2380203 C8.03511161,19.372821 8.11472051,19.4890174 8.2287566,19.5416759 L27.7700373,19.5416759 C27.8839462,19.4888887 27.9634914,19.372821 27.9634914,19.2380203 Z M19.1502478,13.2097869 L20.896137,14.9555781 C21.034621,15.0941299 21.034621,15.3186568 20.896137,15.4572085 L20.4572023,15.8960862 C20.3186531,16.0346379 20.0941956,16.0346379 19.9557116,15.8960862 L18.2097571,14.150295 L18.0056515,14.898631 C17.9652739,15.046837 17.8340958,15.1521859 17.6805436,15.1595571 C17.5271219,15.1669935 17.3863549,15.0746909 17.3318224,14.9310511 L16.0230414,11.4804341 C15.9735968,11.3499058 16.0051683,11.2025478 16.103927,11.1038525 C16.2026204,11.0052224 16.3500409,10.9735851 16.4805016,11.0230306 L19.9310546,12.3318359 C20.0745613,12.3863042 20.1669274,12.5270738 20.1594911,12.6805636 C20.1522506,12.8340533 20.0467079,12.9652992 19.8985699,13.0056775 L19.1502478,13.2097869 Z"></path>
            </g>
        </g>
    </g>
</svg>