<?xml version="1.0" encoding="UTF-8"?>
<svg width="40px" height="40px" viewBox="0 0 40 40" version="1.1" xmlns="http://www.w3.org/2000/svg" xmlns:xlink="http://www.w3.org/1999/xlink">
    <!-- Generator: sketchtool 52.5 (67469) - http://www.bohemiancoding.com/sketch -->
    <title>3EFD2AA9-0AD2-4870-8430-6C9DF4EF99B5</title>
    <desc>Created with sketchtool.</desc>
    <defs>
        <filter x="-14.2%" y="-9.7%" width="128.4%" height="119.4%" filterUnits="objectBoundingBox" id="filter-1">
            <feOffset dx="0" dy="10" in="SourceAlpha" result="shadowOffsetOuter1"></feOffset>
            <feGaussianBlur stdDeviation="10" in="shadowOffsetOuter1" result="shadowBlurOuter1"></feGaussianBlur>
            <feColorMatrix values="0 0 0 0 0   0 0 0 0 0   0 0 0 0 0  0 0 0 0.0939481431 0" type="matrix" in="shadowBlurOuter1" result="shadowMatrixOuter1"></feColorMatrix>
            <feMerge>
                <feMergeNode in="shadowMatrixOuter1"></feMergeNode>
                <feMergeNode in="SourceGraphic"></feMergeNode>
            </feMerge>
        </filter>
    </defs>
    <g id="Symbols" stroke="none" stroke-width="1" fill="none" fill-rule="evenodd">
        <g id="Разделы/Контакты" transform="translate(-314.000000, -511.000000)" fill-rule="nonzero">
            <g id="Group-10">
                <g filter="url(#filter-1)" transform="translate(120.000000, 50.000000)">
                    <g id="Social/Bh(Normal)" transform="translate(193.181818, 460.727273)">
                        <circle id="Oval" fill="#4176FA" cx="20.8181818" cy="20.2727273" r="20"></circle>
                        <path d="M27.4861529,16.1056412 C21.8548608,16.1056412 21.8475623,21.7157329 21.8475623,21.7445792 C21.8475623,21.7445792 21.461786,27.3616219 27.4861529,27.3616219 C27.4861529,27.3616219 32.5102816,27.6473049 32.5102816,23.4524216 L29.9304457,23.4524216 C29.9304457,23.4524216 30.0159421,25.0316718 27.5719968,25.0316718 C27.5719968,25.0316718 24.9921609,25.2033596 24.9921609,22.4803347 L32.5961255,22.4803347 C32.5961255,22.4803347 33.4323218,16.1056412 27.4861529,16.1056412 Z M24.9633146,20.5149606 C24.9633146,20.5149606 25.2778439,18.256605 27.543498,18.256605 C29.816103,18.256605 29.7803391,20.5149606 29.7803391,20.5149606 L24.9633146,20.5149606 Z M18.5177216,19.071601 C18.5177216,19.071601 20.7545294,18.9072116 20.7545294,16.277329 C20.7545294,13.654745 18.9250459,12.3681287 16.6023942,12.3681287 L8.96228479,12.3681287 L8.96228479,27.0540434 L16.6016991,27.0540434 C16.6016991,27.0540434 21.2685503,27.1972325 21.2685503,22.7163186 C21.2688978,22.7163186 21.4690845,19.071601 18.5177216,19.071601 Z M12.3286179,14.9764634 L16.6020467,14.9764634 C16.6020467,14.9764634 17.6384296,14.9764634 17.6384296,16.5056669 C17.6384296,18.0348705 17.0309187,18.256605 16.337564,18.256605 L12.3286179,18.256605 L12.3286179,14.9764634 Z M16.3879582,24.4457088 L12.3286179,24.4457088 L12.3286179,20.5149579 L16.6020467,20.5149606 C16.6020467,20.5149606 18.1531456,20.5007112 18.1458471,22.5373323 C18.1458471,24.2528206 16.995469,24.4314594 16.3879582,24.4457088 Z M24.3273049,13.2328238 L24.3273049,15.041107 L30.3878166,15.041107 L30.3878166,13.2328238 L24.3273049,13.2328238 Z" id="Shape" fill="#FFFFFF"></path>
                    </g>
                </g>
            </g>
        </g>
    </g>
</svg>