<?xml version="1.0" encoding="UTF-8"?>
<svg width="40px" height="40px" viewBox="0 0 40 40" version="1.1" xmlns="http://www.w3.org/2000/svg" xmlns:xlink="http://www.w3.org/1999/xlink">
    <!-- Generator: sketchtool 52.5 (67469) - http://www.bohemiancoding.com/sketch -->
    <title>9AB01B46-5D9B-4834-8297-D88441C3E50B</title>
    <desc>Created with sketchtool.</desc>
    <defs>
        <filter x="-14.2%" y="-9.7%" width="128.4%" height="119.4%" filterUnits="objectBoundingBox" id="filter-1">
            <feOffset dx="0" dy="10" in="SourceAlpha" result="shadowOffsetOuter1"></feOffset>
            <feGaussianBlur stdDeviation="10" in="shadowOffsetOuter1" result="shadowBlurOuter1"></feGaussianBlur>
            <feColorMatrix values="0 0 0 0 0   0 0 0 0 0   0 0 0 0 0  0 0 0 0.0939481431 0" type="matrix" in="shadowBlurOuter1" result="shadowMatrixOuter1"></feColorMatrix>
            <feMerge>
                <feMergeNode in="shadowMatrixOuter1"></feMergeNode>
                <feMergeNode in="SourceGraphic"></feMergeNode>
            </feMerge>
        </filter>
    </defs>
    <g id="Symbols" stroke="none" stroke-width="1" fill="none" fill-rule="evenodd">
        <g id="Разделы/Контакты" transform="translate(-257.000000, -511.000000)" fill-rule="nonzero">
            <g id="Group-10">
                <g filter="url(#filter-1)" transform="translate(120.000000, 50.000000)">
                    <g id="Social/In(Normal)" transform="translate(136.454545, 460.727273)">
                        <circle id="Oval" fill="#F26798" cx="20.5454545" cy="20.2727273" r="20"></circle>
                        <path d="M20.4963025,8.11496702 C13.6604151,8.11496702 8.09897989,13.6697989 8.09897989,20.4969976 C8.09897989,27.3241963 13.6604151,32.8786806 20.4963025,32.8786806 C27.3325374,32.8786806 32.8943202,27.3245438 32.8943202,20.4969976 C32.8943202,13.6697989 27.3325374,8.11496702 20.4963025,8.11496702 Z M28.6542558,13.9589574 C30.0684216,15.7116331 30.9279035,17.9251553 30.9675237,20.3371263 C30.4969461,20.2405084 28.5041158,19.8689815 26.1227289,19.8689815 C25.3543041,19.8689815 24.545564,19.9075591 23.7347385,20.0076525 C23.6662719,19.8411778 23.5978053,19.6753982 23.5258632,19.5078809 C23.3155977,19.0133226 23.0889976,18.5225873 22.8544039,18.0391504 C26.5196267,16.5290619 28.2875945,14.433358 28.6542558,13.9589574 Z M20.4963025,10.0532325 C23.1380016,10.0532325 25.552753,11.0347031 27.397181,12.6511408 C27.1052422,13.0494288 25.5218214,15.0287047 21.9876235,16.3639775 C20.3517233,13.3736895 18.5611649,10.8974224 18.1350732,10.3225809 C18.8944618,10.1467224 19.684782,10.0532325 20.4963025,10.0532325 Z M15.9973162,11.0680676 C16.3584167,11.5654063 18.1517554,14.0680869 19.8297088,17.0343942 C15.3265519,18.2181368 11.3276846,18.295292 10.3625487,18.295292 L10.2600225,18.295292 C10.9533773,15.0999517 13.1123347,12.4446983 15.9973162,11.0680676 Z M10.0223009,20.5133323 C10.0223009,20.4271408 10.0236911,20.3409493 10.0264714,20.2551054 C10.0890298,20.2558005 10.1814771,20.2558005 10.3013805,20.2558005 C11.6012035,20.2558005 16.1130491,20.1484087 20.7625229,18.76865 C21.0447305,19.3205535 21.3133837,19.8807981 21.5632695,20.4406951 C21.4457989,20.4744071 21.330066,20.5081191 21.2150282,20.5456541 C15.9799389,22.2364666 13.1026034,26.7125149 12.6598294,27.4440998 C11.0194111,25.5958488 10.0223009,23.1692808 10.0223009,20.5133323 Z M20.4963025,30.9727369 C18.0940628,30.9727369 15.8770652,30.1591311 14.1080547,28.7950121 C14.407292,28.208354 16.5791086,24.298111 22.3160547,22.3014578 C22.3195302,22.3000676 22.3233532,22.2986774 22.3275237,22.2976348 C23.7660177,26.0427932 24.3752663,29.1860016 24.542436,30.1601738 C23.2975253,30.6835784 21.9302784,30.9727369 20.4963025,30.9727369 Z M26.4289171,29.129004 C26.2885084,28.3230442 25.7240933,25.3772422 24.4214899,21.7843089 C25.1520322,21.6706613 25.8627643,21.6258278 26.529358,21.6258278 C28.7185519,21.6258278 30.4309123,22.1050941 30.8288528,22.2267353 C30.3558423,25.0797426 28.7223749,27.5487112 26.4289171,29.129004 Z" id="Shape" fill="#FFFFFF"></path>
                    </g>
                </g>
            </g>
        </g>
    </g>
</svg>