<?xml version="1.0" encoding="UTF-8"?>
<svg width="40px" height="40px" viewBox="0 0 40 40" version="1.1" xmlns="http://www.w3.org/2000/svg" xmlns:xlink="http://www.w3.org/1999/xlink">
    <!-- Generator: sketchtool 52.5 (67469) - http://www.bohemiancoding.com/sketch -->
    <title>F57D034B-E2E8-49FE-93F7-20048CDE1C63</title>
    <desc>Created with sketchtool.</desc>
    <defs>
        <filter x="-14.2%" y="-9.7%" width="128.4%" height="119.4%" filterUnits="objectBoundingBox" id="filter-1">
            <feOffset dx="0" dy="10" in="SourceAlpha" result="shadowOffsetOuter1"></feOffset>
            <feGaussianBlur stdDeviation="10" in="shadowOffsetOuter1" result="shadowBlurOuter1"></feGaussianBlur>
            <feColorMatrix values="0 0 0 0 0   0 0 0 0 0   0 0 0 0 0  0 0 0 0.0939481431 0" type="matrix" in="shadowBlurOuter1" result="shadowMatrixOuter1"></feColorMatrix>
            <feMerge>
                <feMergeNode in="shadowMatrixOuter1"></feMergeNode>
                <feMergeNode in="SourceGraphic"></feMergeNode>
            </feMerge>
        </filter>
    </defs>
    <g id="Symbols" stroke="none" stroke-width="1" fill="none" fill-rule="evenodd">
        <g id="Разделы/Контакты" transform="translate(-144.000000, -511.000000)" fill-rule="nonzero">
            <g id="Group-10">
                <g filter="url(#filter-1)" transform="translate(120.000000, 50.000000)">
                    <g id="Social/Vk(Normal)" transform="translate(24.000000, 461.000000)">
                        <circle id="Combined-Shape" fill="#4D76A1" cx="20" cy="20" r="20"></circle>
                        <path d="M18.9993629,28.3027387 L20.520877,28.3027387 C20.520877,28.3027387 20.9804759,28.252203 21.2151132,27.9988322 C21.4310901,27.7662294 21.4241788,27.329407 21.4241788,27.329407 C21.4241788,27.329407 21.3944604,25.2844413 22.3419943,24.9833039 C23.2760512,24.6866661 24.4755005,26.9597348 25.746827,27.8337258 C26.7081834,28.4951898 27.4387037,28.3501592 27.4387037,28.3501592 L30.8380074,28.3027387 C30.8380074,28.3027387 32.6162748,28.1930139 31.773101,26.7925516 C31.7039884,26.6779809 31.2820559,25.7565695 29.2456528,23.8632109 C27.11422,21.8815879 27.399655,22.202109 29.9671885,18.7743338 C31.5308613,16.6867935 32.1559848,15.4123244 31.9607417,14.8664694 C31.7744832,14.3465746 30.6244494,14.4839903 30.6244494,14.4839903 L26.7969931,14.5078736 C26.7969931,14.5078736 26.5132858,14.4691064 26.3028379,14.5950996 C26.0972279,14.7186698 25.9648773,15.0066541 25.9648773,15.0066541 C25.9648773,15.0066541 25.3591052,16.6220663 24.5511788,17.9958762 C22.8468619,20.894757 22.1654116,21.0477487 21.8868877,20.8677585 C21.238957,20.4482428 21.4006805,19.182427 21.4006805,18.2831682 C21.4006805,15.4739364 21.8260686,14.3026155 20.5723659,13.9994012 C20.156308,13.8986759 19.8501391,13.832218 18.7861505,13.8214878 C17.4204853,13.8072963 16.2645769,13.8256414 15.6100805,14.1468547 C15.1746711,14.36042 14.8387838,14.8363557 15.0433571,14.8637004 C15.2963093,14.8976216 15.8692528,15.0184227 16.1730027,15.4327463 C16.5652168,15.9671788 16.5513943,17.1675751 16.5513943,17.1675751 C16.5513943,17.1675751 16.7767014,20.4745491 16.0251017,20.8854113 C15.5091761,21.1671652 14.801463,20.5918888 13.2820223,17.9619549 C12.5034687,16.6147974 11.915666,15.1257246 11.915666,15.1257246 C11.915666,15.1257246 11.8023213,14.847432 11.6001669,14.698594 C11.3548172,14.5182576 11.0120186,14.4607992 11.0120186,14.4607992 L7.37496753,14.4846825 C7.37496753,14.4846825 6.82897791,14.4999125 6.62855134,14.7377072 C6.45024081,14.9491957 6.61438326,15.3867104 6.61438326,15.3867104 C6.61438326,15.3867104 9.46182278,22.0595013 12.685926,25.4222031 C15.6422179,28.5052277 18.9993629,28.3027387 18.9993629,28.3027387 Z" id="Shape" fill="#FFFFFF"></path>
                    </g>
                </g>
            </g>
        </g>
    </g>
</svg>