<?xml version="1.0" encoding="UTF-8"?>
<svg width="54px" height="54px" viewBox="0 0 54 54" version="1.1" xmlns="http://www.w3.org/2000/svg" xmlns:xlink="http://www.w3.org/1999/xlink">
    <!-- Generator: sketchtool 53.2 (72643) - https://sketchapp.com -->
    <title>3AF45301-A49F-4B15-81EF-93F93A5730FE</title>
    <desc>Created with sketchtool.</desc>
    <g id="Symbols" stroke="none" stroke-width="1" fill="none" fill-rule="evenodd">
        <g id="icons/Profitable/03">
            <g id="Group-5" transform="translate(2.000000, 1.000000)">
                <g id="1483244" transform="translate(10.384615, 0.000000)">
                    <path d="M0,39.9285714 L0,47.4733275 C0,49.9693347 1.84400481,52 4.11057692,52 L25.1201923,52 C27.3868558,52 29.2307692,49.9693347 29.2307692,47.4733275 L29.2307692,39.9285714 L0,39.9285714 Z M15.4578702,47.1712475 L13.7729904,47.1712475 C13.0162788,47.1712475 12.4027981,46.4956668 12.4027981,45.6623567 C12.4027981,44.8290465 13.0162788,44.1534658 13.7729904,44.1534658 L15.4578702,44.1534658 C16.2145817,44.1534658 16.8280625,44.8290465 16.8280625,45.6623567 C16.8280625,46.4956668 16.2145817,47.1712475 15.4578702,47.1712475 Z" id="Shape" fill="#2E2E2E" fill-rule="nonzero"></path>
                    <path d="M29.2307692,7.5 L29.2307692,5.45939825 C29.2307692,2.44908606 27.3868558,0 25.1201923,0 L4.11057692,0 C1.84400481,0 0,2.44908606 0,5.45939825 L0,7.5 L29.2307692,7.5 Z" id="Path" fill="#2E2E2E"></path>
                    <polygon id="Shape" fill="#2E2E2E" fill-rule="nonzero" points="0 6.5 0 37.1428571 29.2307692 37.1428571 29.2307692 6.5"></polygon>
                    <rect id="Rectangle" fill="#F9F9F9" fill-rule="nonzero" x="3.69230769" y="11.1428571" width="21.8461538" height="2.78571429"></rect>
                    <rect id="Rectangle" fill="#F9F9F9" fill-rule="nonzero" x="3.69230769" y="15.7857143" width="9.23076923" height="8.35714286"></rect>
                    <rect id="Rectangle" fill="#F9F9F9" fill-rule="nonzero" x="15.6923077" y="15.7857143" width="9.84615385" height="2.78571429"></rect>
                    <rect id="Rectangle" fill="#F9F9F9" fill-rule="nonzero" x="15.6923077" y="21.3571429" width="9.84615385" height="2.78571429"></rect>
                    <rect id="Rectangle" fill="#F9F9F9" fill-rule="nonzero" x="3.69230769" y="27.8571429" width="21.8461538" height="2.78571429"></rect>
                </g>
                <g id="1483244" transform="translate(38.846154, 6.500000)" fill="#2E2E2E" fill-rule="nonzero">
                    <path d="M3.61538462,0 L5.51098901,0 C8.07516821,-4.71032077e-16 10.1538462,2.07867795 10.1538462,4.64285714 L10.1538462,40.8571429 C10.1538462,43.4213221 8.07516821,45.5 5.51098901,45.5 L0.615384615,45.5 C2.27223886,45.5 3.61538462,44.1568542 3.61538462,42.5 L3.61538462,0 Z" id="Combined-Shape"></path>
                </g>
                <g id="1483244" transform="translate(5.653846, 29.928571) scale(-1, 1) translate(-5.653846, -29.928571) translate(0.153846, 7.428571)" fill="#2E2E2E" fill-rule="nonzero">
                    <path d="M3.61538462,-7.86512343e-16 L5.51098901,-8.8817842e-16 C8.07516821,9.18238129e-16 10.1538462,2.07867795 10.1538462,4.64285714 L10.1538462,39.9285714 C10.1538462,42.4927506 8.07516821,44.5714286 5.51098901,44.5714286 L0.615384615,44.5714286 C2.27223886,44.5714286 3.61538462,43.2282828 3.61538462,41.5714286 L3.61538462,-4.4408921e-16 Z" id="Combined-Shape"></path>
                </g>
            </g>
        </g>
    </g>
</svg>