<?xml version="1.0" encoding="UTF-8"?>
<svg width="54px" height="54px" viewBox="0 0 54 54" version="1.1" xmlns="http://www.w3.org/2000/svg" xmlns:xlink="http://www.w3.org/1999/xlink">
    <!-- Generator: sketchtool 52.5 (67469) - http://www.bohemiancoding.com/sketch -->
    <title>9D2DC92D-FC2A-404D-9A63-EB1F6EB0E5D4</title>
    <desc>Created with sketchtool.</desc>
    <g id="Symbols" stroke="none" stroke-width="1" fill="none" fill-rule="evenodd">
        <g id="icons/Profitable/04" fill="#2E2E2E">
            <g id="732042">
                <g transform="translate(2.000000, 2.000000)">
                    <path d="M9.73705866,0.814014473 C7.72302573,-0.286615524 5.35830656,-0.261167432 3.35714286,0.829919531 L26.8112963,22.2222222 L34.6904762,14.4319249 L9.73705866,0.814014473 Z" id="Path"></path>
                    <path d="M0.866701791,3.33333333 C0.315727081,4.25215497 0,5.30359004 0,6.41817436 L0,44.7687159 C0,45.8485681 0.287868809,46.8779009 0.807889884,47.7777778 L23.5,24.630419 L0.866701791,3.33333333 Z" id="Path"></path>
                    <path d="M43.7953522,20.7653173 L36.3465391,16.6666667 L27.9761905,25.0102347 L38.234252,34.4444444 L43.7985409,31.3823804 C45.8010472,30.2758401 47,28.291699 47,26.072259 C46.9968113,23.852819 45.8010472,21.8686778 43.7953522,20.7653173 Z" id="Path"></path>
                    <path d="M25.2804455,25.5555556 L2.23809524,49.1092469 C3.23802854,49.6924018 4.33513405,50 5.43850874,50 C6.50426837,50 7.57629719,49.7244433 8.55742297,49.1701257 L34.6904762,34.4278411 L25.2804455,25.5555556 Z" id="Path"></path>
                </g>
            </g>
        </g>
    </g>
</svg>