<?xml version="1.0" encoding="UTF-8"?>
<svg width="54px" height="54px" viewBox="0 0 54 54" version="1.1" xmlns="http://www.w3.org/2000/svg" xmlns:xlink="http://www.w3.org/1999/xlink">
    <!-- Generator: sketchtool 52.5 (67469) - http://www.bohemiancoding.com/sketch -->
    <title>03B2E75A-B571-4553-AE4A-F290E9D2302B</title>
    <desc>Created with sketchtool.</desc>
    <g id="Symbols" stroke="none" stroke-width="1" fill="none" fill-rule="evenodd">
        <g id="icons/Profitable/02" fill-rule="nonzero">
            <g id="Group-7">
                <g transform="translate(1.000000, 0.000000)">
                    <rect id="Rectangle" x="0" y="0" width="52" height="52"></rect>
                    <path d="M30,43 L0,43 L0,3 C-2.02906125e-16,1.34314575 1.34314575,3.04359188e-16 3,0 L37,0 C38.6568542,-3.04359188e-16 40,1.34314575 40,3 L40,18 L33,18 C31.3431458,18 30,19.3431458 30,21 L30,43 Z M33,52 L4,52 C1.790861,52 2.705415e-16,50.209139 0,48 L0,45 L30,45 L30,49 C30,50.6568542 31.3431458,52 33,52 Z M20.5,46 C19.6715729,46 19,46.6715729 19,47.5 C19,48.3284271 19.6715729,49 20.5,49 C21.3284271,49 22,48.3284271 22,47.5 C22,46.6715729 21.3284271,46 20.5,46 Z" id="Combined-Shape" fill="#2E2E2E"></path>
                    <path d="M52,43 L32,43 L32,23 C32,21.3431458 33.3431458,20 35,20 L49,20 C50.6568542,20 52,21.3431458 52,23 L52,43 Z M52,45 L52,48 C52,50.209139 50.209139,52 48,52 L36,52 C33.790861,52 32,50.209139 32,48 L32,45 L52,45 Z M40.4230769,47.0769231 C39.9132756,47.0769231 39.5,47.4901987 39.5,48 C39.5,48.5098013 39.9132756,48.9230769 40.4230769,48.9230769 L43.5769231,48.9230769 C44.0867244,48.9230769 44.5,48.5098013 44.5,48 C44.5,47.4901987 44.0867244,47.0769231 43.5769231,47.0769231 L40.4230769,47.0769231 Z" id="Combined-Shape" fill="#2E2E2E"></path>
                </g>
            </g>
        </g>
    </g>
</svg>