<?xml version="1.0" encoding="UTF-8"?>
<svg width="54px" height="54px" viewBox="0 0 54 54" version="1.1" xmlns="http://www.w3.org/2000/svg" xmlns:xlink="http://www.w3.org/1999/xlink">
    <!-- Generator: sketchtool 52.5 (67469) - http://www.bohemiancoding.com/sketch -->
    <title>9E692993-B544-48BB-8365-7433DEB20DDB</title>
    <desc>Created with sketchtool.</desc>
    <g id="Symbols" stroke="none" stroke-width="1" fill="none" fill-rule="evenodd">
        <g id="icons/Benefits/01" fill="#2E2E2E">
            <g id="icons/Profitable/01">
                <g>
                    <g id="icons" transform="translate(1.000000, 1.000000)">
                        <rect id="Rectangle" x="0.894837476" y="47.65286" width="49.3154876" height="2.34714004"></rect>
                        <path d="M32.1147228,49.8422091 L32.1147228,35.8307592 C37.6090681,38.250819 41.4875623,43.6200369 41.7789675,49.9211045 L41.7789675,49.8422091 L32.1147228,49.8422091 Z M16.7036329,49.8422091 L9.32619503,49.8422091 C9.57525493,44.506183 12.4446403,39.8199209 16.7036329,37.0622811 L16.7036329,49.8422091 Z M20.3425583,35.3057199 C21.9763157,34.7560392 23.7281345,34.4575937 25.5525813,34.4575937 C27.3762375,34.4575937 29.1273287,34.7557806 30.7604805,35.3057199 L20.3425583,35.3057199 Z" id="Combined-Shape"></path>
                        <path d="M37.6826004,49.8422091 L37.6826004,39.8812446 C40.0860662,42.5744627 41.6010558,46.0741114 41.7789675,49.9211045 L41.7789675,49.8422091 L37.6826004,49.8422091 Z M18.8910134,49.8422091 L9.32619503,49.8422091 C9.6158393,43.6366762 13.4493514,38.3099187 18.8910134,35.873371 L18.8910134,49.8422091 Z M19.292211,35.7001972 C21.2165802,34.9002179 23.3307234,34.4575937 25.5525813,34.4575937 C27.7732447,34.4575937 29.8863092,34.8997421 31.8098478,35.7001972 L19.292211,35.7001972 Z" id="Combined-Shape"></path>
                        <path d="M25.2741874,1.18343195 L24.7173996,1.18343195 C24.6378585,1.18343195 24.5583174,1.10453649 24.5583174,0.946745562 C24.5583174,0.788954635 24.6378585,0.710059172 24.7173996,0.710059172 L25.2741874,0.710059172 L25.2741874,0.236686391 C25.2741874,0.0788954635 25.3537285,2.38031816e-13 25.5128107,2.38031816e-13 C25.6718929,2.38031816e-13 25.751434,0.0788954635 25.751434,0.236686391 L25.751434,0.710059172 L26.3877629,0.710059172 C26.467304,0.710059172 26.5468451,0.788954635 26.5468451,0.946745562 C26.5468451,1.10453649 26.467304,1.18343195 26.3877629,1.18343195 L25.751434,1.18343195 L25.751434,3.57134858 C26.3486787,3.67859477 26.7854685,4.18371698 26.7854685,4.81262327 C26.7854685,5.47852864 26.2957735,6.00565686 25.6444151,6.06863908 L26.2723446,10.1793339 C26.4865128,10.1974868 26.6263862,10.350055 26.6263862,10.5719921 L26.6263862,10.8086785 C26.6263862,11.03449 26.4815867,11.1884894 26.2610608,11.2021641 C28.9508289,15.5515283 36.4099426,20.1978683 36.4099426,26.035503 C36.4099426,29.3574825 35.2468497,31.1097389 33.3500903,32.0422984 C33.413304,32.0751452 33.4669216,32.1833337 33.4669216,32.3668639 C33.4669216,32.5904011 33.3873805,32.7021696 33.2282983,32.7021696 L33.0317181,32.7021696 L32.1942639,35.3451677 L32.1743786,35.3451677 L32.1743786,45.244932 C31.8092196,45.1056018 31.4102186,45.0295858 30.9900868,45.0295858 C29.7784146,45.0295858 28.7425013,45.6618581 28.1872628,46.6217081 C27.6320244,45.6618581 26.596111,45.0295858 25.3844389,45.0295858 C24.2542392,45.0295858 23.2769571,45.5796891 22.7000441,46.4326238 C22.1231312,45.5796891 21.145849,45.0295858 20.0156494,45.0295858 C19.5955175,45.0295858 19.1965165,45.1056018 18.8313576,45.244932 L18.8313576,35.3451677 L17.9939033,32.7021696 L17.7973231,32.7021696 C17.6382409,32.7021696 17.5586998,32.5904011 17.5586998,32.3668639 C17.5586998,32.1980988 17.6040373,32.0930405 17.6947123,32.0516889 C15.786616,31.121519 14.6156788,29.368666 14.6156788,26.035503 C14.6156788,20.2671453 22.0775241,15.5650733 24.7660375,11.2022536 C24.5446815,11.1891761 24.3992352,11.0349937 24.3992352,10.8086785 L24.3992352,10.5719921 C24.3992352,10.350055 24.5391086,10.1974868 24.7532768,10.1793339 L25.3812063,6.06863908 C24.7298479,6.00565686 24.240153,5.47852864 24.240153,4.81262327 C24.240153,4.18371698 24.6769428,3.67859477 25.2741874,3.57134858 L25.2741874,1.18343195 Z M25.028166,11.2031558 C23.2676242,15.5522345 18.2745698,20.1983119 18.2745698,26.035503 C18.2745698,29.3447723 19.0503501,31.0963074 20.3065951,32.0315582 L23.4055841,32.0315582 C22.8914547,31.0963074 22.5697897,29.3447723 22.5697897,26.035503 C22.5697897,20.1983119 24.5922927,15.5522345 25.3132683,11.2031558 L25.028166,11.2031558 Z M25.9974554,11.2031558 L25.712352,11.2031558 C26.4333287,15.5522345 28.4558317,20.1983119 28.4558317,26.035503 C28.4558317,29.3447723 28.1530882,31.0963074 27.6491159,32.0315582 L30.7481048,32.0315582 C31.9941927,31.0963074 32.7510516,29.3447723 32.7510516,26.035503 C32.7510516,20.1983119 27.7579972,15.5522345 25.9974554,11.2031558 Z M29.1742868,48.2445759 C29.1851563,47.3055355 29.9708325,46.4497041 30.9900868,46.4497041 C31.4485165,46.4497041 31.859695,46.6070937 32.1743786,46.8726648 L32.1743786,48.2445759 L34.9782027,48.2445759 C35.0577438,48.2445759 35.216826,48.4023669 35.216826,48.4812623 C35.216826,48.6390533 35.1372849,48.7179487 34.9782027,48.7179487 L15.7292543,48.7179487 C15.5701721,48.7179487 15.490631,48.6390533 15.490631,48.4812623 C15.490631,48.3234714 15.5701721,48.2445759 15.7292543,48.2445759 L18.8313576,48.2445759 L18.8313576,46.8987925 C19.1460411,46.6228326 19.5572197,46.4497041 20.0156494,46.4497041 C20.9570005,46.4497041 21.8204092,47.2285614 21.8314563,48.2445759 L23.568639,48.2445759 C23.5795084,47.3055355 24.3651846,46.4497041 25.3844389,46.4497041 C26.4042359,46.4497041 27.190206,47.2285614 27.2002555,48.2445759 L29.1742868,48.2445759 Z M20.2525077,42.7928994 C20.6472717,42.7928994 20.9630828,42.4773176 20.88413,42.0828402 L20.88413,36.4023669 C20.88413,36.086785 20.6472717,35.7712032 20.2525077,35.7712032 L20.1735549,35.7712032 C19.8577438,35.7712032 19.5419326,36.0078895 19.5419326,36.4023669 L19.5419326,42.1617357 C19.5419326,42.4773176 19.778791,42.7928994 20.1735549,42.7928994 L20.2525077,42.7928994 Z M23.8053831,42.7928994 C24.1211943,42.7928994 24.4370054,42.4773176 24.4370054,42.0828402 L24.4370054,36.4023669 C24.4370054,36.086785 24.2001471,35.7712032 23.8053831,35.7712032 L23.7264304,35.7712032 C23.4106192,35.7712032 23.0948081,36.0078895 23.0948081,36.4023669 L23.0948081,42.1617357 C23.0948081,42.4773176 23.3316664,42.7928994 23.7264304,42.7928994 L23.8053831,42.7928994 Z M27.2793058,42.7928994 C27.5951169,42.7928994 27.9109281,42.4773176 27.9109281,42.0828402 L27.9109281,36.4023669 C27.9109281,36.086785 27.6740697,35.7712032 27.2793058,35.7712032 L27.200353,35.7712032 C26.8845418,35.7712032 26.5687307,36.0078895 26.5687307,36.4023669 L26.5687307,42.1617357 C26.5687307,42.4773176 26.8055891,42.7928994 27.200353,42.7928994 L27.2793058,42.7928994 Z M30.7532284,42.7928994 C31.1479924,42.7928994 31.3848507,42.4773176 31.3848507,42.0828402 L31.3848507,36.4023669 C31.3848507,36.086785 31.1479924,35.7712032 30.7532284,35.7712032 L30.6742756,35.7712032 C30.3584645,35.7712032 30.0426533,36.0078895 30.0426533,36.4023669 L30.0426533,42.1617357 C30.0426533,42.4773176 30.2795117,42.7928994 30.6742756,42.7928994 L30.7532284,42.7928994 Z" id="Combined-Shape"></path>
                        <path d="M7.15869981,17.8500986 L6.76497132,17.8500986 C6.7132696,17.8500986 6.66156788,17.800789 6.66156788,17.7021696 C6.66156788,17.6035503 6.7132696,17.5542406 6.76497132,17.5542406 L7.15869981,17.5542406 L7.15869981,17.2181299 C7.15869981,17.1134726 7.208413,17.061144 7.30783939,17.061144 C7.40726577,17.061144 7.45697897,17.1134726 7.45697897,17.2181299 L7.45697897,17.5542406 L7.85070746,17.5542406 C7.90240918,17.5542406 7.9541109,17.6035503 7.9541109,17.7021696 C7.9541109,17.800789 7.90240918,17.8500986 7.85070746,17.8500986 L7.45697897,17.8500986 L7.45697897,19.4403664 C7.85835504,19.5079667 8.15296367,19.8453741 8.15296367,20.2662722 C8.15296367,20.7070962 7.82980023,21.0563374 7.39927561,21.099945 L7.83045413,23.8686011 C7.96593654,23.886131 8.05353728,23.9869274 8.05353728,24.1313913 L8.05353728,24.2906994 C8.05353728,24.4371624 7.96349538,24.5387409 7.82480244,24.5541694 C9.64131598,27.4661759 14.6156788,30.5780497 14.6156788,34.4849953 C14.6156788,36.7960578 13.7775838,37.9751402 12.4221454,38.5828942 L11.8411593,40.729783 L11.83174,40.729783 L11.83174,47.7317554 L2.8833652,47.7317554 L2.8833652,40.729783 L2.87394586,40.729783 L2.30613718,38.6315881 C0.884663459,38.0389197 2.30926389e-14,36.8593966 2.30926389e-14,34.4849953 C2.30926389e-14,30.6244035 4.97621301,27.4754565 6.7918894,24.5542805 C6.65262202,24.5392349 6.56214149,24.4375187 6.56214149,24.2906994 L6.56214149,24.1313913 C6.56214149,23.9869274 6.64974224,23.886131 6.78522465,23.8686011 L7.21640316,21.099945 C6.78587854,21.0563374 6.46271511,20.7070962 6.46271511,20.2662722 C6.46271511,19.8453741 6.75732374,19.5079667 7.15869981,19.4403664 L7.15869981,17.8500986 Z M7.3081262,23.5514004 C7.3081262,23.4714004 7.3081262,23.4714004 7.3081262,23.5514004 C7.3081262,23.4714004 7.3081262,23.4714004 7.3081262,23.5514004 Z" id="Combined-Shape"></path>
                        <path d="M44.543021,17.8500986 L44.1492925,17.8500986 C44.0975908,17.8500986 44.0458891,17.800789 44.0458891,17.7021696 C44.0458891,17.6035503 44.0975908,17.5542406 44.1492925,17.5542406 L44.543021,17.5542406 L44.543021,17.2181299 C44.543021,17.1134726 44.5927342,17.061144 44.6921606,17.061144 C44.791587,17.061144 44.8413002,17.1134726 44.8413002,17.2181299 L44.8413002,17.5542406 L45.2350287,17.5542406 C45.2867304,17.5542406 45.3384321,17.6035503 45.3384321,17.7021696 C45.3384321,17.800789 45.2867304,17.8500986 45.2350287,17.8500986 L44.8413002,17.8500986 L44.8413002,19.4403664 C45.2426763,19.5079667 45.5372849,19.8453741 45.5372849,20.2662722 C45.5372849,20.7070962 45.2141215,21.0563374 44.7835968,21.099945 L45.2147754,23.8686011 C45.3502578,23.886131 45.4378585,23.9869274 45.4378585,24.1313913 L45.4378585,24.2906994 C45.4378585,24.4371624 45.3478166,24.5387409 45.2091237,24.5541694 C47.0256372,27.4661759 52,30.5780497 52,34.4849953 C52,36.7960578 51.161905,37.9751402 49.8064666,38.5828942 L49.2254805,40.729783 L49.2160612,40.729783 L49.2160612,47.7317554 L40.2676864,47.7317554 L40.2676864,40.729783 L40.2582671,40.729783 L39.6904584,38.6315881 C38.2689847,38.0389197 37.3843212,36.8593966 37.3843212,34.4849953 C37.3843212,30.6244035 42.3605342,27.4754565 44.1762106,24.5542805 C44.0369432,24.5392349 43.9464627,24.4375187 43.9464627,24.2906994 L43.9464627,24.1313913 C43.9464627,23.9869274 44.0340635,23.886131 44.1695459,23.8686011 L44.6007244,21.099945 C44.1701998,21.0563374 43.8470363,20.7070962 43.8470363,20.2662722 C43.8470363,19.8453741 44.141645,19.5079667 44.543021,19.4403664 L44.543021,17.8500986 Z M44.6924474,23.5514004 C44.6924474,23.4714004 44.6924474,23.4714004 44.6924474,23.5514004 C44.6924474,23.4714004 44.6924474,23.4714004 44.6924474,23.5514004 Z" id="Combined-Shape"></path>
                    </g>
                </g>
            </g>
        </g>
    </g>
</svg>