<?xml version="1.0" encoding="UTF-8"?>
<svg width="16px" height="16px" viewBox="0 0 16 16" version="1.1" xmlns="http://www.w3.org/2000/svg" xmlns:xlink="http://www.w3.org/1999/xlink">
    <!-- Generator: sketchtool 52.5 (67469) - http://www.bohemiancoding.com/sketch -->
    <title>118F9B94-1464-4CB9-9945-D6ED8C46A3E4</title>
    <desc>Created with sketchtool.</desc>
    <g id="Symbols" stroke="none" stroke-width="1" fill="none" fill-rule="evenodd">
        <g id="Разделы/Footer" transform="translate(-1154.000000, -37.000000)" fill="#FFC225" fill-rule="nonzero">
            <g id="Group-6">
                <g transform="translate(728.000000, 32.000000)">
                    <g id="Group">
                        <g id="Group-2" transform="translate(426.000000, 5.000000)">
                            <g id="icon/CallFooter">
                                <path d="M11.733344,9.6 C10.666656,10.666656 10.666656,11.733312 9.6,11.733312 C8.533344,11.733312 7.466656,10.666656 6.4,9.6 C5.333344,8.533312 4.266656,7.466656 4.266656,6.4 C4.266656,5.333344 5.333312,5.333344 6.4,4.266656 C7.466688,3.199968 4.266656,0 3.2,0 C2.133344,0 0,3.2 0,3.2 C0,5.333344 2.19168,9.658336 4.266656,11.733344 C6.341632,13.808352 10.666656,16 12.8,16 C12.8,16 16,13.866656 16,12.8 C16,11.733344 12.8,8.533344 11.733344,9.6 Z" id="Shape"></path>
                            </g>
                        </g>
                    </g>
                </g>
            </g>
        </g>
    </g>
</svg>