<?xml version="1.0" encoding="UTF-8"?>
<svg width="220px" height="100px" viewBox="0 0 220 100" version="1.1" xmlns="http://www.w3.org/2000/svg" xmlns:xlink="http://www.w3.org/1999/xlink">
    <!-- Generator: sketchtool 52.5 (67469) - http://www.bohemiancoding.com/sketch -->
    <title>1AD14FA0-365D-4389-871F-922B7E1268E1</title>
    <desc>Created with sketchtool.</desc>
    <defs>
        <path d="M192.998535,-1.56048507e-11 C190.487779,3.34264212 189,7.49757633 189,12 C189,23.045695 197.954305,32 209,32 C213.063634,32 216.844208,30.7880773 220,28.7059542 L220,96 C220,98.209139 218.209139,100 216,100 L4,100 C1.790861,100 2.705415e-16,98.209139 0,96 L0,4 C-2.705415e-16,1.790861 1.790861,4.05812251e-16 4,0 L192.998535,0 Z" id="path-1"></path>
    </defs>
    <g id="Symbols" stroke="none" stroke-width="1" fill="none" fill-rule="evenodd">
        <g id="Разделы/Калькулятор-" transform="translate(-608.000000, -378.000000)">
            <g id="Group-28">
                <g transform="translate(608.000000, 374.000000)">
                    <g id="Bitmap-Copy-2" transform="translate(0.000000, 4.000000)">
                        <mask id="mask-2" fill="white">
                            <use xlink:href="#path-1"></use>
                        </mask>
                        <path stroke="#F9F9F9" d="M192.026955,0.5 L4,0.5 C2.06700338,0.5 0.5,2.06700338 0.5,4 L0.5,96 C0.5,97.9329966 2.06700338,99.5 4,99.5 L216,99.5 C217.932997,99.5 219.5,97.9329966 219.5,96 L219.5,29.6104461 C216.355971,31.4893725 212.752544,32.5 209,32.5 C197.678163,32.5 188.5,23.3218374 188.5,12 C188.5,7.8367826 189.744771,3.86098718 192.026955,0.5 Z"></path>
                    </g>
                </g>
            </g>
        </g>
    </g>
</svg>