<?xml version="1.0" encoding="UTF-8"?>
<svg width="48px" height="48px" viewBox="0 0 48 48" version="1.1" xmlns="http://www.w3.org/2000/svg" xmlns:xlink="http://www.w3.org/1999/xlink">
    <!-- Generator: sketchtool 52.5 (67469) - http://www.bohemiancoding.com/sketch -->
    <title>B0AC0A23-8234-42C3-A2EE-6BA564829787</title>
    <desc>Created with sketchtool.</desc>
    <g id="Symbols" stroke="none" stroke-width="1" fill="none" fill-rule="evenodd">
        <g id="Glyphs/icons/Step1/1Pressed" fill="#2E2E2E" fill-rule="nonzero">
            <g>
                <path d="M32.5442718,25.392662 C32.4865131,19.3404297 37.2722605,16.4378485 37.4860392,16.2936388 C34.7970404,12.1857635 30.6081926,11.6230191 29.1154965,11.5579614 C25.5506395,11.1811495 22.1595951,13.7490149 20.3503884,13.7490149 C18.5457416,13.7490149 15.7539215,11.6136851 12.7974086,11.6697822 C8.9118388,11.7300796 5.32909988,14.0283803 3.32837744,17.6612505 C-0.708652538,24.9744073 2.29453225,35.8083335 6.22927745,41.7394111 C8.15194516,44.6426457 10.4445905,47.9033709 13.4547493,47.7868831 C16.3535034,47.6661017 17.4496672,45.8287118 20.954262,45.8287118 C24.4587674,45.8287118 25.4439737,47.7868831 28.5115335,47.7267724 C31.6308616,47.6662883 33.6070857,44.7680007 35.5165208,41.8558989 C37.7244057,38.4878331 38.6335242,35.2270145 38.6871701,35.0596567 C38.6178775,35.0266144 32.604534,32.6217199 32.5442718,25.392662 Z M26.7802027,7.6315382 C28.3778659,5.60802923 29.4562371,2.80065439 29.162079,0 C26.8607609,0.0978198901 24.0712655,1.60030727 22.4201352,3.61924259 C20.9386153,5.41024264 19.6417266,8.26876758 19.9892624,11.0134182 C22.5583627,11.2226856 25.1808407,9.65047352 26.7802027,7.6315382 Z"></path>
            </g>
        </g>
    </g>
</svg>