<?xml version="1.0" encoding="UTF-8"?>
<svg width="48px" height="48px" viewBox="0 0 48 48" version="1.1" xmlns="http://www.w3.org/2000/svg" xmlns:xlink="http://www.w3.org/1999/xlink">
    <!-- Generator: sketchtool 52.5 (67469) - http://www.bohemiancoding.com/sketch -->
    <title>F4005FD2-CB53-4F9D-8AC2-CA9B6828E192</title>
    <desc>Created with sketchtool.</desc>
    <g id="Symbols" stroke="none" stroke-width="1" fill="none" fill-rule="evenodd">
        <g id="Glyphs/icons/Step1/2" fill="#2E2E2E" fill-rule="nonzero">
            <g transform="translate(-0.575851, -0.203209)" id="Shape">
                <path d="M10.127491,35.9446027 C10.127491,37.1293279 10.9019448,37.9191447 12.0636255,37.9191447 L13.9997599,37.9191447 L13.9997599,44.8300415 C13.9997599,46.4096751 15.355054,47.7918544 16.9039616,47.7918544 C18.4528691,47.7918544 19.8081633,46.4096751 19.8081633,44.8300415 L19.8081633,37.9191447 L23.6804322,37.9191447 L23.6804322,44.8300415 C23.6804322,46.4096751 25.0357263,47.7918544 26.5846339,47.7918544 C28.1335414,47.7918544 29.4888355,46.4096751 29.4888355,44.8300415 L29.4888355,37.9191447 L31.42497,37.9191447 C32.5866507,37.9191447 33.3611044,37.1293279 33.3611044,35.9446027 L33.3611044,16.1991833 L10.127491,16.1991833 L10.127491,35.9446027 Z M5.28715486,16.1991833 C3.7382473,16.1991833 2.38295318,17.5814401 2.38295318,19.1609962 L2.38295318,32.9827898 C2.38295318,34.5624234 3.7382473,35.9446027 5.28715486,35.9446027 C6.83606242,35.9446027 8.19135654,34.5624234 8.19135654,32.9827898 L8.19135654,19.1609962 C8.19135654,17.5813626 6.83606242,16.1991833 5.28715486,16.1991833 Z M38.2014406,16.1991833 C36.652533,16.1991833 35.2972389,17.5814401 35.2972389,19.1609962 L35.2972389,32.9827898 C35.2972389,34.5624234 36.652533,35.9446027 38.2014406,35.9446027 C39.7503481,35.9446027 41.1056423,34.5624234 41.1056423,32.9827898 L41.1056423,19.1609962 C41.1056423,17.5813626 39.7503481,16.1991833 38.2014406,16.1991833 Z M28.5207683,4.74683996 L31.0377431,2.17993543 C31.42497,1.78502704 31.42497,1.19266446 31.0377431,0.797756069 C30.6504403,0.402770246 30.0696759,0.402770246 29.6823731,0.797756069 L26.7781714,3.75956899 C25.4228773,2.77229802 23.6803562,2.37731219 21.7442218,2.37731219 C19.8080873,2.37731219 18.0655663,2.77229802 16.5166588,3.56203736 L13.8060705,0.600224441 C13.4188436,0.402770246 12.6443899,0.402770246 12.257163,0.600224441 C12.0635495,0.995210263 12.0635495,1.78502704 12.257163,2.179858 L14.7741378,4.74676253 C12.0635495,6.91875867 10.1274151,10.2754026 10.1274151,14.2244864 L33.3610285,14.2244864 C33.3611044,10.2755574 31.42497,6.72138191 28.5207683,4.74683996 Z M17.8720288,10.2755574 L15.9358944,10.2755574 L15.9358944,8.30101547 L17.8720288,8.30101547 L17.8720288,10.2755574 Z M27.5527011,10.2755574 L25.6165666,10.2755574 L25.6165666,8.30101547 L27.5527011,8.30101547 L27.5527011,10.2755574 Z"></path>
            </g>
        </g>
    </g>
</svg>