<?xml version="1.0" encoding="UTF-8"?>
<svg width="48px" height="48px" viewBox="0 0 48 48" version="1.1" xmlns="http://www.w3.org/2000/svg" xmlns:xlink="http://www.w3.org/1999/xlink">
    <!-- Generator: sketchtool 52.5 (67469) - http://www.bohemiancoding.com/sketch -->
    <title>1DF8878D-31EE-4CC3-A6B8-55976B79DE6A</title>
    <desc>Created with sketchtool.</desc>
    <g id="Symbols" stroke="none" stroke-width="1" fill="none" fill-rule="evenodd">
        <g id="Glyphs/icons/Step1/3" fill="#FFFFFF" fill-rule="nonzero">
            <g id="Shape">
                <g transform="translate(0.390093, 5.080214)">
                    <path d="M47.1970567,39.0596445 L44.2603307,26.8294581 C44.2146609,26.6387006 44.1428789,26.4605856 44.0518617,26.2969034 C44.2197115,25.81201 44.3119106,25.2895246 44.3119106,24.7452224 L44.3119106,4.58478152 C44.3119106,2.0568248 42.3366135,0 39.9083798,0 L7.37174716,0 C4.94329862,0 2.96800144,2.05671292 2.96800144,4.58478152 L2.96800144,24.7449986 C2.96800144,25.2894128 3.06009314,25.8118982 3.22837273,26.2967915 C3.13714069,26.4605856 3.06503622,26.6384768 3.01936647,26.8292343 L0.0588922357,39.1580999 C-0.0884329975,39.7718805 0.044063,40.422358 0.418125098,40.9209008 C0.792079738,41.4196674 1.36590669,41.7112299 1.97379789,41.7112299 L45.3062216,41.7112299 C45.3068664,41.7112299 45.3076186,41.7112299 45.3080484,41.7112299 C46.3983196,41.7112299 47.2817337,40.7910067 47.2817337,39.6563071 C47.2816263,39.4488793 47.2520753,39.2485 47.1970567,39.0596445 Z M28.6415994,38.4986719 C28.6411695,38.4986719 28.6406322,38.4988957 28.63988,38.4986719 L18.6397097,38.4986719 C18.5242995,38.4986719 18.4146922,38.4453045 18.3408683,38.3531144 C18.2668296,38.261148 18.2357742,38.1394212 18.2562987,38.020939 L19.0355858,33.5182783 C19.0690053,33.3249475 19.230515,33.1846484 19.4189968,33.1846484 L27.8608079,33.1846484 C28.0492896,33.1846484 28.2107993,33.3251713 28.2440039,33.5182783 L29.0168435,37.9849132 C29.0259774,38.0194845 29.0309205,38.0556222 29.0309205,38.0929905 C29.0312429,38.3172005 28.8567307,38.4986719 28.6415994,38.4986719 Z M40.4655508,24.7452224 C40.4655508,24.9795017 40.331228,25.1812236 40.1388777,25.2729662 L7.14081942,25.2729662 C6.94825427,25.1814474 6.81382403,24.9795017 6.81382403,24.7452224 L6.81382403,4.58478152 C6.81382403,4.26468928 7.06409424,4.00434162 7.3716397,4.00434162 L39.9081649,4.00434162 C40.215388,4.00434162 40.4656582,4.26468928 40.4656582,4.58478152 L40.4655508,24.7452224 Z"></path>
                    <path d="M24.7102526,13.7636282 L25.9409298,13.4143501 C26.1845549,13.3452535 26.3581285,13.1206617 26.3700362,12.8580054 C26.3822657,12.5953491 26.2303621,12.3544599 25.9943535,12.2612521 L20.319636,10.0215854 C20.1050828,9.93697278 19.8626377,9.99111145 19.7003282,10.1598902 C19.5379114,10.3287805 19.4859896,10.5809439 19.5673052,10.8043078 L21.7197029,16.709107 C21.8093861,16.9549077 22.040889,17.1128587 22.2932036,17.1001333 C22.5457327,17.0875196 22.761466,16.9072434 22.8278702,16.6536288 L23.1635386,15.3730538 L26.0349041,18.360504 C26.2626523,18.5975979 26.6317911,18.5975979 26.8596466,18.360504 L27.5815108,17.6094834 C27.809259,17.3723895 27.809259,16.9881723 27.5815108,16.7510784 L24.7102526,13.7636282 Z"></path>
                </g>
            </g>
        </g>
    </g>
</svg>